STARTFONT 2.1
COMMENT
COMMENT Converted from OpenType font "UbuntuMono-Italic.ttf" by "otf2bdf 3.0".
COMMENT
FONT -FreeType-Ubuntu Mono-Medium-I-Normal--55-400-100-100-P-259-ISO10646-1
SIZE 40 100 100
FONTBOUNDINGBOX 49 55 -12 -9
STARTPROPERTIES 19
FOUNDRY "FreeType"
FAMILY_NAME "Ubuntu Mono"
WEIGHT_NAME "Medium"
SLANT "I"
SETWIDTH_NAME "Normal"
ADD_STYLE_NAME ""
PIXEL_SIZE 55
POINT_SIZE 400
RESOLUTION_X 100
RESOLUTION_Y 100
SPACING "P"
AVERAGE_WIDTH 259
CHARSET_REGISTRY "ISO10646"
CHARSET_ENCODING "1"
FONT_ASCENT 46
FONT_DESCENT 9
COPYRIGHT "Copyright 2011 Canonical Ltd.  Licensed under the Ubuntu Font Licence 1.0"
_OTF_FONTFILE "UbuntuMono-Italic.ttf"
_OTF_PSNAME "UbuntuMono-Italic"
ENDPROPERTIES
CHARS 1224
STARTCHAR 0000
ENCODING 0
SWIDTH 486 0
DWIDTH 27 0
BBX 0 0 0 0
BITMAP
ENDCHAR
STARTCHAR 0008
ENCODING 8
SWIDTH 486 0
DWIDTH 27 0
BBX 0 0 0 0
BITMAP
ENDCHAR
STARTCHAR 0009
ENCODING 9
SWIDTH 486 0
DWIDTH 27 0
BBX 0 0 0 0
BITMAP
ENDCHAR
STARTCHAR 000D
ENCODING 13
SWIDTH 486 0
DWIDTH 27 0
BBX 0 0 0 0
BITMAP
ENDCHAR
STARTCHAR 001D
ENCODING 29
SWIDTH 486 0
DWIDTH 27 0
BBX 0 0 0 0
BITMAP
ENDCHAR
STARTCHAR 0020
ENCODING 32
SWIDTH 486 0
DWIDTH 27 0
BBX 0 0 0 0
BITMAP
ENDCHAR
STARTCHAR 0021
ENCODING 33
SWIDTH 486 0
DWIDTH 27 0
BBX 13 35 10 -1
BITMAP
00F8
00F8
01F0
01F0
01F0
01F0
03E0
03E0
03E0
03E0
07C0
07C0
07C0
07C0
0780
0F80
0F80
0F00
0F00
0F00
0E00
0E00
0000
0000
0000
0000
0000
3800
FC00
FE00
FE00
FE00
FC00
FC00
3000
ENDCHAR
STARTCHAR 0022
ENCODING 34
SWIDTH 486 0
DWIDTH 27 0
BBX 16 14 12 24
BITMAP
1E0F
3E0F
3C1F
3C1E
3C1E
7C1E
783C
783C
783C
703C
7038
7038
E030
E030
ENDCHAR
STARTCHAR 0023
ENCODING 35
SWIDTH 486 0
DWIDTH 27 0
BBX 29 34 2 0
BITMAP
0001E078
0003C078
0003C0F0
0007C0F0
000781E0
000781E0
000F03E0
000F03C0
001E03C0
0FFFFFF8
0FFFFFF8
0FFFFFF8
007C0F00
00781F00
00781E00
00F03E00
00F03C00
01F03C00
01E07800
03E07800
03C0F800
7FFFFFC0
7FFFFFC0
7FFFFFC0
7FFFFF80
0F03C000
1F03C000
1E07C000
1E078000
3C0F8000
3C0F0000
780F0000
781E0000
F81E0000
ENDCHAR
STARTCHAR 0024
ENCODING 36
SWIDTH 486 0
DWIDTH 27 0
BBX 26 44 4 -5
BITMAP
00007800
0000F000
0000F000
0000F000
0000F000
0001E000
0007FC00
001FFF80
007FFFC0
00FFFF80
01FC0700
03F00100
03E00000
03C00000
03C00000
03C00000
03E00000
03E00000
03F00000
01FC0000
00FF0000
007FC000
001FE000
0007F000
0001F800
0000FC00
00007C00
00007C00
00007C00
00007C00
00007C00
00007C00
2000F800
7803F800
7FFFF000
FFFFE000
7FFF8000
0FFC0000
00F00000
01E00000
01E00000
01E00000
01E00000
03C00000
ENDCHAR
STARTCHAR 0025
ENCODING 37
SWIDTH 486 0
DWIDTH 27 0
BBX 32 36 1 -1
BITMAP
003E0000
00FF000F
01FF801E
03C7803C
03C78078
038380F0
078380F0
070381E0
070783C0
07078780
0F070F00
0F071E00
070F3C00
079E3C00
07FC7800
03FCF000
01F1E000
0003C000
00078000
000F1FC0
000F3FE0
001E7FE0
003C70E0
0078F0E0
00F0E0E0
01E1E0E0
03E1C0E0
03C1C0E0
0781C1E0
0F01C1E0
1E01C1C0
3C01C3C0
7801E780
7801FF00
F000FE00
00003800
ENDCHAR
STARTCHAR 0026
ENCODING 38
SWIDTH 486 0
DWIDTH 27 0
BBX 24 35 3 0
BITMAP
0007F0
001FF8
003FFC
007EFC
00F83E
01F01E
01F01E
01E03E
01E03C
03E03C
03E078
01E0F8
01E1F0
01F3E0
01FFC0
00FF80
00FE00
03FC0F
07FC0F
0FBE1E
1F1F1E
3E1F1E
3C0FBC
7C07BC
7807F8
F803F8
F803F0
F801F0
F801F0
F803F8
FC0FF8
7F3FF8
7FFE7C
3FFC7C
0FF03C
ENDCHAR
STARTCHAR 0027
ENCODING 39
SWIDTH 486 0
DWIDTH 27 0
BBX 7 15 17 23
BITMAP
3E
3E
3C
7C
7C
7C
78
78
F8
F0
F0
F0
E0
E0
E0
ENDCHAR
STARTCHAR 0028
ENCODING 40
SWIDTH 486 0
DWIDTH 27 0
BBX 21 48 8 -9
BITMAP
000010
000070
0000F8
0003F8
0007F0
000FC0
001F80
003F00
007E00
00FC00
01F800
01F000
03E000
07C000
07C000
0F8000
0F0000
1F0000
1E0000
3E0000
3C0000
3C0000
7C0000
780000
780000
F80000
F80000
F80000
F80000
F80000
F80000
F80000
F80000
F80000
F80000
780000
780000
7C0000
7C0000
3E0000
3E0000
1F0000
1F0000
0F8000
0FC000
07E000
03C000
018000
ENDCHAR
STARTCHAR 0029
ENCODING 41
SWIDTH 486 0
DWIDTH 27 0
BBX 21 48 3 -9
BITMAP
000400
000E00
001F00
001F00
000F80
0007C0
0007C0
0003E0
0003E0
0001F0
0001F0
0000F0
0000F0
0000F8
0000F8
000078
000078
000078
000078
000078
000078
0000F8
0000F8
0000F8
0000F0
0000F0
0001F0
0001E0
0003E0
0003E0
0007C0
0007C0
000F80
000F80
001F00
003F00
007E00
007C00
00F800
01F000
03F000
07E000
1FC000
3F0000
FE0000
FC0000
780000
600000
ENDCHAR
STARTCHAR 002A
ENCODING 42
SWIDTH 486 0
DWIDTH 27 0
BBX 21 20 8 14
BITMAP
00F800
00F800
00F800
00F800
00F000
607030
F871F0
FE77F8
FFFFF8
7FFFF0
03FE00
00F800
01FC00
03DE00
079F00
0F8F80
1F0FC0
1F07C0
0E0780
060200
ENDCHAR
STARTCHAR 002B
ENCODING 43
SWIDTH 486 0
DWIDTH 27 0
BBX 23 25 5 2
BITMAP
000F80
000F00
000F00
000F00
001F00
001E00
001E00
001E00
003E00
003C00
7FFFFE
FFFFFE
FFFFFE
FFFFFC
007800
007800
00F800
00F000
00F000
00F000
01F000
01E000
01E000
01E000
03E000
ENDCHAR
STARTCHAR 002C
ENCODING 44
SWIDTH 486 0
DWIDTH 27 0
BBX 12 16 6 -8
BITMAP
0180
07E0
0FE0
0FF0
0FF0
0FF0
0FF0
07F0
01E0
03E0
07C0
1F80
FF00
FE00
F800
E000
ENDCHAR
STARTCHAR 002D
ENCODING 45
SWIDTH 486 0
DWIDTH 27 0
BBX 13 4 10 12
BITMAP
7FF8
FFF8
FFF0
FFF0
ENDCHAR
STARTCHAR 002E
ENCODING 46
SWIDTH 486 0
DWIDTH 27 0
BBX 8 9 10 -1
BITMAP
3C
7E
FF
FF
FF
FF
FE
FC
30
ENDCHAR
STARTCHAR 002F
ENCODING 47
SWIDTH 486 0
DWIDTH 27 0
BBX 32 48 -1 -9
BITMAP
0000001F
0000003E
0000003C
0000007C
00000078
000000F8
000000F0
000001F0
000003E0
000003C0
000007C0
00000780
00000F80
00000F00
00001F00
00003E00
00003E00
00007C00
00007800
0000F800
0000F000
0001F000
0001E000
0003E000
0007C000
00078000
000F8000
000F0000
001F0000
001E0000
003E0000
007C0000
007C0000
00F80000
00F00000
01F00000
01E00000
03E00000
07C00000
07C00000
0F800000
0F000000
1F000000
1E000000
3E000000
3C000000
7C000000
F8000000
ENDCHAR
STARTCHAR 0030
ENCODING 48
SWIDTH 486 0
DWIDTH 27 0
BBX 24 36 5 -1
BITMAP
000FF0
003FF8
007FFC
00FFFE
01F83E
03E01F
07C01F
0FC01F
0F801F
1F001F
1F001F
3E001F
3E001F
3C081F
7C3E1F
7C7E1F
787E1E
787E1E
F87E3E
F87C3E
F8383E
F8003C
F0007C
F0007C
F000F8
F000F8
F001F0
F001F0
F803E0
F807C0
FC0FC0
7F3F80
7FFF00
3FFC00
1FF800
07C000
ENDCHAR
STARTCHAR 0031
ENCODING 49
SWIDTH 486 0
DWIDTH 27 0
BBX 20 34 5 0
BITMAP
0000F0
0001F0
0003F0
000FE0
003FE0
00FFE0
03FFE0
07FBE0
07E3C0
0387C0
0007C0
0007C0
000780
000F80
000F80
000F80
000F00
000F00
001F00
001F00
001E00
001E00
003E00
003E00
003C00
003C00
007C00
007C00
007800
007800
7FFFE0
7FFFE0
FFFFE0
FFFFE0
ENDCHAR
STARTCHAR 0032
ENCODING 50
SWIDTH 486 0
DWIDTH 27 0
BBX 25 35 4 0
BITMAP
000FF000
007FFC00
01FFFE00
03FFFF00
01F01F80
01C00F80
01000F80
00000F80
00000F80
00000F80
00000F80
00000F80
00001F00
00003F00
00007E00
0000FC00
0001FC00
0003F800
0007E000
001FC000
003F8000
007E0000
01FC0000
03F80000
07F00000
0FC00000
1F800000
1F000000
3E000000
3E000000
7C000000
7FFFF800
FFFFF800
FFFFF000
FFFFF000
ENDCHAR
STARTCHAR 0033
ENCODING 51
SWIDTH 486 0
DWIDTH 27 0
BBX 26 36 3 -1
BITMAP
000FF800
003FFE00
00FFFF00
00FFFF80
00701F80
00400F80
000007C0
000007C0
000007C0
00000780
00000F80
00000F80
00001F00
00007E00
0003FC00
003FF800
003FE000
003FF000
003FF800
0000FC00
00007C00
00003E00
00003E00
00001E00
00001E00
00003E00
00003E00
00003E00
00007C00
0000FC00
3001F800
7E1FF800
7FFFF000
FFFFC000
3FFF0000
03F00000
ENDCHAR
STARTCHAR 0034
ENCODING 52
SWIDTH 486 0
DWIDTH 27 0
BBX 25 34 3 0
BITMAP
00000F80
00003F80
00007F80
0000FF00
0001FF00
0003EF00
0007DF00
000F9E00
001F1E00
003E1E00
007C3E00
00F83E00
00F03C00
01E03C00
03E07C00
07C07C00
0F807800
0F007800
1E00F800
3E00F800
7C00F000
7FFFFF00
FFFFFF00
FFFFFF00
FFFFFE00
0001E000
0003E000
0003E000
0003C000
0003C000
0003C000
0007C000
0007C000
00078000
ENDCHAR
STARTCHAR 0035
ENCODING 53
SWIDTH 486 0
DWIDTH 27 0
BBX 27 35 3 -1
BITMAP
001FFFE0
001FFFE0
001FFFE0
003FFFE0
003C0000
003C0000
003C0000
00780000
00780000
00780000
00F00000
00F00000
01F00000
01FE0000
01FFC000
03FFF000
007FF800
0003FC00
0000FC00
00007E00
00003E00
00003E00
00003E00
00003E00
00003E00
00003E00
00007C00
00007C00
0000FC00
2003F800
7C1FF000
7FFFE000
FFFFC000
3FFF0000
03F00000
ENDCHAR
STARTCHAR 0036
ENCODING 54
SWIDTH 486 0
DWIDTH 27 0
BBX 26 36 5 -1
BITMAP
000001C0
00007F80
0001FF80
0007FF80
001FFE00
003FC000
007F0000
01FC0000
01F00000
03E00000
07C00000
0F800000
0F800000
1F000000
1F3FC000
3FFFF000
3FFFF800
3FFFF800
7F00FC00
7C007C00
7C003C00
78003C00
F8003C00
F8003C00
F8003C00
F8003C00
F8007C00
F8007C00
7800F800
7C01F800
7C03F000
3E07E000
3FFFC000
1FFF8000
0FFE0000
01F00000
ENDCHAR
STARTCHAR 0037
ENCODING 55
SWIDTH 486 0
DWIDTH 27 0
BBX 25 34 8 0
BITMAP
1FFFFF80
1FFFFF00
1FFFFF00
3FFFFF00
00003E00
00007C00
0000F800
0001F000
0003E000
0007C000
000F8000
000F8000
001F0000
003E0000
007E0000
007C0000
00F80000
01F00000
01F00000
03E00000
03E00000
07C00000
07800000
0F800000
0F000000
1F000000
1E000000
3E000000
3E000000
7C000000
7C000000
F8000000
F8000000
F8000000
ENDCHAR
STARTCHAR 0038
ENCODING 56
SWIDTH 486 0
DWIDTH 27 0
BBX 26 36 4 -1
BITMAP
0007F800
001FFE00
007FFF00
00FFFF80
01F80F80
01F007C0
03E007C0
03C007C0
07C007C0
07C007C0
07C00780
07C00F80
07C00F80
03E01F00
03F03E00
01FCFC00
00FFF800
01FFE000
03FFF000
0FC7F800
1F81F800
1F007C00
3E007C00
7C003E00
7C003E00
78003E00
F8003E00
F8003C00
F8007C00
7800FC00
7C01F800
7E07F000
3FFFE000
1FFFC000
0FFF0000
01F80000
ENDCHAR
STARTCHAR 0039
ENCODING 57
SWIDTH 486 0
DWIDTH 27 0
BBX 26 35 4 0
BITMAP
000FF000
003FFC00
00FFFE00
01FFFF00
03F81F80
03E00F80
07C00780
07C007C0
0F8007C0
0F8007C0
0F0007C0
0F0007C0
0F0007C0
0F000780
0F000780
0F800F80
0F800F80
0FF1FF80
07FFFF00
03FFFF00
01FFDF00
00183E00
00003E00
00007C00
0000FC00
0000F800
0001F000
0007E000
000FC000
003F8000
01FF0000
7FFE0000
7FF80000
FFE00000
FE000000
ENDCHAR
STARTCHAR 003A
ENCODING 58
SWIDTH 486 0
DWIDTH 27 0
BBX 12 27 10 -1
BITMAP
01C0
07E0
0FF0
0FF0
0FF0
0FF0
0FE0
07E0
0380
0000
0000
0000
0000
0000
0000
0000
0000
0000
3C00
7E00
FF00
FF00
FF00
FF00
FE00
FC00
3000
ENDCHAR
STARTCHAR 003B
ENCODING 59
SWIDTH 486 0
DWIDTH 27 0
BBX 16 34 6 -8
BITMAP
001C
007E
00FF
00FF
00FF
00FF
00FE
007E
0038
0000
0000
0000
0000
0000
0000
0000
0000
0000
0180
07E0
0FE0
0FF0
0FF0
0FF0
0FF0
07F0
01E0
03E0
07C0
1F80
FF00
FE00
F800
E000
ENDCHAR
STARTCHAR 003C
ENCODING 60
SWIDTH 486 0
DWIDTH 27 0
BBX 25 22 4 3
BITMAP
00000180
00000F80
00003F80
0001FF80
000FFE00
003FF800
01FFC000
07FE0000
3FF80000
7FC00000
7E000000
7E000000
FF800000
3FE00000
0FF80000
03FE0000
00FF8000
003FF000
000FF800
0003F800
0000F000
00002000
ENDCHAR
STARTCHAR 003D
ENCODING 61
SWIDTH 486 0
DWIDTH 27 0
BBX 25 15 4 7
BITMAP
1FFFFF80
1FFFFF80
3FFFFF80
3FFFFF80
00000000
00000000
00000000
00000000
00000000
00000000
00000000
FFFFFE00
FFFFFC00
FFFFFC00
FFFFFC00
ENDCHAR
STARTCHAR 003E
ENCODING 62
SWIDTH 486 0
DWIDTH 27 0
BBX 25 22 3 3
BITMAP
02000000
07C00000
0FF00000
0FFC0000
03FF0000
00FFC000
003FF000
0007FC00
0001FF00
00007F80
00001F00
00007F00
0003FF00
000FFC00
007FF000
03FF8000
0FFC0000
7FF00000
FF800000
FE000000
70000000
40000000
ENDCHAR
STARTCHAR 003F
ENCODING 63
SWIDTH 486 0
DWIDTH 27 0
BBX 20 36 9 -1
BITMAP
01FF00
0FFFC0
0FFFE0
0FFFE0
0C03F0
0001F0
0001F0
0001F0
0001F0
0001E0
0003E0
0007C0
000F80
001F80
003E00
007C00
01F800
03F000
03E000
07C000
0F8000
0F0000
0F0000
000000
000000
000000
000000
000000
3C0000
7E0000
FE0000
FE0000
FE0000
FE0000
7C0000
380000
ENDCHAR
STARTCHAR 0040
ENCODING 64
SWIDTH 486 0
DWIDTH 27 0
BBX 27 42 4 -7
BITMAP
0003FE00
000FFF00
003FFF80
007FFFC0
00FC07C0
01F803E0
03F001E0
03E001E0
07C001E0
0F8001E0
0F0001E0
1F007FE0
1E01FFE0
3E07FFC0
3C0FFFC0
3C1F87C0
7C3E07C0
783C0780
787C0780
78780F80
F8780F80
F8F80F00
F0F80F00
F0F00F00
F0F01F00
F0F81E00
F0F81E00
F0781E00
F07C3E00
F03FFC00
F83FFC00
F80FFC00
F800C000
78000000
7C000000
7C000000
3E000000
3F800000
1FF38000
0FFF8000
07FF8000
01FF0000
ENDCHAR
STARTCHAR 0041
ENCODING 65
SWIDTH 486 0
DWIDTH 27 0
BBX 26 34 0 0
BITMAP
00003F00
00007F00
0000FF00
0000FF00
0001EF00
0001EF00
0003CF00
0007CF80
00078F80
000F0F80
000F0780
001E0780
001E0780
003C0780
007C0780
00780780
00F80780
00F00780
01F00780
01E00780
03C007C0
03FFFFC0
07FFFFC0
07FFFFC0
0FFFFFC0
0F0007C0
1E0007C0
1E0007C0
3C0007C0
3C0007C0
7C0007C0
780007C0
F80007C0
F00007C0
ENDCHAR
STARTCHAR 0042
ENCODING 66
SWIDTH 486 0
DWIDTH 27 0
BBX 26 35 3 0
BITMAP
001FC000
01FFFC00
01FFFF00
01FFFF80
01E03FC0
03E00FC0
03E007C0
03C007C0
03C007C0
07C007C0
07C007C0
07C00780
07800F80
0F801F00
0F807E00
0FFFFC00
0FFFF000
0FFFF800
1FFFFC00
1F00FE00
1E003E00
1E001F00
3E001F00
3E001F00
3C001F00
3C001F00
7C001F00
7C003E00
78003E00
7800FC00
F801FC00
FFFFF800
FFFFE000
FFFF8000
FFFE0000
ENDCHAR
STARTCHAR 0043
ENCODING 67
SWIDTH 486 0
DWIDTH 27 0
BBX 27 36 5 -1
BITMAP
0003FE00
001FFFC0
003FFFE0
007FFFC0
01FE03C0
03F80080
03E00000
07C00000
0F800000
0F800000
1F000000
1E000000
3E000000
3C000000
7C000000
7C000000
78000000
78000000
F8000000
F8000000
F8000000
F8000000
F8000000
F8000000
F8000000
F8000000
F8000000
F8000000
7C000000
7C000000
7F002000
3FC3F000
1FFFF000
0FFFF000
07FFC000
00FC0000
ENDCHAR
STARTCHAR 0044
ENCODING 68
SWIDTH 486 0
DWIDTH 27 0
BBX 27 35 2 0
BITMAP
000FC000
00FFF800
00FFFE00
01FFFF00
01F07F80
01E01F80
01E00FC0
03E007C0
03E003E0
03C003E0
03C003E0
07C003E0
07C003E0
07C003E0
078003E0
078003E0
0F8003E0
0F8003E0
0F0003C0
0F0003C0
1F0007C0
1F0007C0
1E000780
1E000F80
3E000F80
3E001F00
3C003E00
3C007E00
7C00FC00
7C01F800
7807F000
7FFFE000
FFFFC000
FFFF0000
FFF80000
ENDCHAR
STARTCHAR 0045
ENCODING 69
SWIDTH 486 0
DWIDTH 27 0
BBX 27 34 4 0
BITMAP
00FFFFE0
00FFFFE0
00FFFFE0
01FFFFE0
01F00000
01E00000
01E00000
03E00000
03E00000
03C00000
03C00000
07C00000
07C00000
07800000
07FFFC00
0FFFFC00
0FFFFC00
0FFFF800
0F000000
1F000000
1F000000
1F000000
1E000000
3E000000
3E000000
3E000000
3C000000
3C000000
7C000000
7C000000
7FFFF800
7FFFF800
FFFFF800
FFFFF800
ENDCHAR
STARTCHAR 0046
ENCODING 70
SWIDTH 486 0
DWIDTH 27 0
BBX 28 34 4 0
BITMAP
00FFFFF0
00FFFFE0
00FFFFE0
01FFFFE0
01F00000
01E00000
01E00000
03E00000
03E00000
03C00000
03C00000
07C00000
07C00000
07800000
07FFFC00
0FFFFC00
0FFFFC00
0FFFFC00
0F000000
1F000000
1F000000
1F000000
1E000000
3E000000
3E000000
3E000000
3C000000
3C000000
7C000000
7C000000
78000000
78000000
F8000000
F8000000
ENDCHAR
STARTCHAR 0047
ENCODING 71
SWIDTH 486 0
DWIDTH 27 0
BBX 27 36 4 -1
BITMAP
0003FF00
000FFFC0
003FFFE0
007FFFC0
00FE03C0
01F80080
03F00000
07E00000
07C00000
0F800000
0F000000
1F000000
1E000000
3E000000
3C000000
3C000000
7C000000
7C000000
78001F00
78001E00
78001E00
78003E00
F8003E00
F8003C00
F8003C00
F8007C00
78007C00
7C007C00
7C007800
7E00F800
3F00F800
3FC1F800
1FFFF000
0FFFF000
03FFE000
00FC0000
ENDCHAR
STARTCHAR 0048
ENCODING 72
SWIDTH 486 0
DWIDTH 27 0
BBX 30 34 2 0
BITMAP
00F8007C
00F0007C
00F00078
01F00078
01F000F8
01E000F8
01E000F0
03E000F0
03E001F0
03C001F0
03C001E0
07C001E0
07C003E0
078003E0
07FFFFC0
0FFFFFC0
0FFFFFC0
0FFFFFC0
0F0007C0
1F000780
1F000F80
1F000F80
1E000F80
3E000F00
3E001F00
3E001F00
3C001F00
3C001E00
7C001E00
7C003E00
78003E00
78003C00
F8003C00
F8007C00
ENDCHAR
STARTCHAR 0049
ENCODING 73
SWIDTH 486 0
DWIDTH 27 0
BBX 26 34 4 0
BITMAP
00FFFFC0
00FFFFC0
00FFFF80
01FFFF80
0003C000
0007C000
0007C000
0007C000
00078000
000F8000
000F8000
000F8000
000F0000
001F0000
001F0000
001F0000
001E0000
001E0000
003E0000
003E0000
003C0000
003C0000
007C0000
007C0000
00780000
00780000
00F80000
00F80000
00F00000
00F00000
7FFFE000
7FFFC000
FFFFC000
FFFFC000
ENDCHAR
STARTCHAR 004A
ENCODING 74
SWIDTH 486 0
DWIDTH 27 0
BBX 27 35 4 -1
BITMAP
003FFFE0
003FFFC0
003FFFC0
003FFFC0
000007C0
00000780
00000780
00000F80
00000F80
00000F00
00000F00
00001F00
00001F00
00001E00
00001E00
00003E00
00003E00
00003E00
00003C00
00007C00
00007C00
00007C00
00007800
0000F800
0000F800
0000F800
0001F000
0001F000
2003E000
7007E000
FE3FC000
FFFF8000
7FFF0000
1FFE0000
03E00000
ENDCHAR
STARTCHAR 004B
ENCODING 75
SWIDTH 486 0
DWIDTH 27 0
BBX 29 34 3 0
BITMAP
01F001F8
01F003F0
01F007E0
01E00FC0
01E01F80
03E03F00
03E07E00
03C0FC00
03C1F800
07C3F000
07C7E000
078FC000
079F8000
0FBF0000
0FFE0000
0FF80000
0FF80000
1FFC0000
1F7E0000
1F3E0000
1E1F0000
3E0F8000
3E0F8000
3E07C000
3C03E000
3C03E000
7C01F000
7C01F000
7800F800
7800F800
F8007C00
F8007C00
F0007C00
F0003E00
ENDCHAR
STARTCHAR 004C
ENCODING 76
SWIDTH 486 0
DWIDTH 27 0
BBX 20 34 3 0
BITMAP
00F800
00F000
00F000
01F000
01F000
01E000
01E000
03E000
03E000
03C000
03C000
07C000
07C000
07C000
078000
0F8000
0F8000
0F8000
0F0000
1F0000
1F0000
1F0000
1E0000
1E0000
3E0000
3E0000
3C0000
3C0000
7C0000
7C0000
7FFFF0
7FFFF0
FFFFF0
FFFFF0
ENDCHAR
STARTCHAR 004D
ENCODING 77
SWIDTH 486 0
DWIDTH 27 0
BBX 30 34 1 0
BITMAP
003E007C
003E007C
003E00FC
007E00FC
007E01F8
007E03F8
00FF03B8
00EF07B8
00EF0778
01EF0F78
01EF0E78
01C71E70
03C71C70
03C738F0
03C778F0
078770F0
0787F0F0
0787E1E0
0F87E1E0
0F07C1E0
0F0781E0
0F0003E0
1E0003C0
1E0003C0
1E0003C0
3E0003C0
3C0007C0
3C000780
7C000780
7C000780
78000F80
78000F80
F8000F00
F0000F00
ENDCHAR
STARTCHAR 004E
ENCODING 78
SWIDTH 486 0
DWIDTH 27 0
BBX 30 34 2 0
BITMAP
00F8003C
00FC003C
00FC0078
00FC0078
01FC0078
01FE0078
01FE00F8
01FE00F0
03CF00F0
03CF00F0
03CF01F0
03C701E0
078781E0
078781E0
078783E0
078383C0
0F83C3C0
0F03C3C0
0F03C3C0
0F01C780
1F01C780
1E01E780
1E01E780
1E01EF00
3E00EF00
3C00EF00
3C00FF00
3C00FE00
3C00FE00
78007E00
78007E00
78007E00
78007C00
F8007C00
ENDCHAR
STARTCHAR 004F
ENCODING 79
SWIDTH 486 0
DWIDTH 27 0
BBX 26 36 4 -1
BITMAP
0007F800
001FFC00
007FFF00
00FFFF00
01FC1F80
01F00F80
03E007C0
07C007C0
078007C0
0F8007C0
0F0007C0
1F0007C0
1E0007C0
3E0007C0
3E0007C0
3C0007C0
3C000780
7C000780
7C000780
78000F80
78000F80
78000F00
78001F00
F8001F00
F8001E00
F8003E00
F8007C00
78007C00
7C00F800
7C01F000
7E03F000
3F8FE000
3FFFC000
1FFF0000
07FE0000
01E00000
ENDCHAR
STARTCHAR 0050
ENCODING 80
SWIDTH 486 0
DWIDTH 27 0
BBX 27 35 3 0
BITMAP
0007E000
00FFFE00
00FFFF00
01FFFF80
01F01FC0
01F007E0
01E003E0
01E003E0
03E003E0
03E003E0
03C003E0
03C003E0
07C003E0
07C003C0
078007C0
07800F80
0F801F80
0F807F00
0FFFFE00
0FFFF800
1FFFF000
1FFF8000
1F000000
1E000000
3E000000
3E000000
3E000000
3C000000
3C000000
7C000000
7C000000
78000000
78000000
F8000000
F8000000
ENDCHAR
STARTCHAR 0051
ENCODING 81
SWIDTH 486 0
DWIDTH 27 0
BBX 26 44 4 -9
BITMAP
0007F800
001FFC00
007FFF00
00FFFF00
01FC1F80
01F00F80
03E007C0
07C007C0
078007C0
0F8007C0
0F0007C0
1F0007C0
1E0007C0
3E0007C0
3E0007C0
3C0007C0
3C0007C0
7C000780
7C000780
78000F80
78000F80
78000F00
78001F00
F8001F00
F8001E00
F8003E00
F8007C00
78007C00
7C00F800
7C01F800
7E03F000
3F8FE000
3FFFC000
1FFF0000
07FE0000
03F00000
01E00000
01F00000
01F80000
01FE0000
00FFE000
007FC000
001FC000
00038000
ENDCHAR
STARTCHAR 0052
ENCODING 82
SWIDTH 486 0
DWIDTH 27 0
BBX 26 35 3 0
BITMAP
001FE000
01FFFC00
01FFFF00
01FFFF80
01E03F80
01E00FC0
03E007C0
03E003C0
03C003C0
03C003C0
07C003C0
07C003C0
078007C0
07800780
0F800F80
0F801F00
0F003F00
0F07FE00
1FFFF800
1FFFF000
1FFFC000
1E07C000
3E07C000
3E03E000
3E03E000
3C01E000
3C01F000
7C01F000
7C00F000
7800F800
7800F800
F8007800
F8007800
F0007C00
F0007C00
ENDCHAR
STARTCHAR 0053
ENCODING 83
SWIDTH 486 0
DWIDTH 27 0
BBX 27 36 3 -1
BITMAP
0003FF00
001FFFC0
003FFFE0
007FFFC0
00FC01C0
01F80000
01F00000
01E00000
03E00000
03E00000
03E00000
03E00000
01F00000
01F80000
01FC0000
00FF0000
007FC000
003FE000
000FF000
0003F800
0001FC00
00007C00
00003E00
00003E00
00003E00
00003E00
00003E00
00003E00
00003C00
00007C00
3001FC00
7E0FF800
FFFFF000
FFFFE000
3FFF8000
03F80000
ENDCHAR
STARTCHAR 0054
ENCODING 84
SWIDTH 486 0
DWIDTH 27 0
BBX 25 34 8 0
BITMAP
7FFFFF80
7FFFFF00
7FFFFF00
FFFFFF00
003C0000
007C0000
007C0000
00780000
00780000
00F80000
00F80000
00F00000
00F00000
01F00000
01F00000
01F00000
01E00000
03E00000
03E00000
03E00000
03C00000
07C00000
07C00000
07C00000
07800000
0F800000
0F800000
0F800000
0F000000
0F000000
1F000000
1F000000
1E000000
1E000000
ENDCHAR
STARTCHAR 0055
ENCODING 85
SWIDTH 486 0
DWIDTH 27 0
BBX 28 35 4 -1
BITMAP
03E001F0
03C001F0
03C001E0
07C003E0
07C003E0
078003E0
078003C0
0F8003C0
0F8007C0
0F0007C0
0F000780
1F000780
1F000F80
1E000F80
1E000F00
3E000F00
3E001F00
3C001F00
3C001E00
7C001E00
7C003E00
7C003E00
78003E00
78003C00
F8007C00
F8007C00
78007800
7800F800
7C01F000
7C03F000
3F0FE000
3FFFC000
1FFF8000
0FFF0000
01F00000
ENDCHAR
STARTCHAR 0056
ENCODING 86
SWIDTH 486 0
DWIDTH 27 0
BBX 26 34 8 0
BITMAP
F00007C0
F0000F80
F0000F80
F0001F00
F0001F00
F0003E00
F0003E00
F0007C00
F0007C00
F000F800
F000F800
F801F000
F801E000
F803E000
F803C000
F807C000
F8078000
F80F8000
F80F0000
F81F0000
781E0000
783E0000
783C0000
787C0000
78780000
78F00000
79F00000
79E00000
7BE00000
7FC00000
7FC00000
3F800000
3F000000
3F000000
ENDCHAR
STARTCHAR 0057
ENCODING 87
SWIDTH 486 0
DWIDTH 27 0
BBX 30 34 3 0
BITMAP
03C0003C
03C0007C
07C0007C
07C00078
07800078
078000F8
078000F0
078000F0
0F8000F0
0F0001E0
0F0001E0
0F0001E0
0F0001E0
1E0F83C0
1E0F83C0
1E1F83C0
1E1F8780
1E3F8780
3C3B8780
3C7B8700
3C738F00
3CE3CF00
39E3CF00
39C1CE00
7BC1DE00
7B81DE00
7F81DC00
7701FC00
7F01F800
7E01F800
7C01F800
7C01F000
F801F000
F801F000
ENDCHAR
STARTCHAR 0058
ENCODING 88
SWIDTH 486 0
DWIDTH 27 0
BBX 32 34 1 0
BITMAP
007C001F
007C003E
003E003E
003E007C
001E00F8
001F01F0
001F01F0
000F83E0
000F87C0
000F8F80
0007DF00
0007DF00
0007FE00
0003FC00
0003F800
0001F000
0003F000
0007F000
000FF800
001FF800
001F7800
003E7C00
007C7C00
00F83C00
01F83E00
03F03E00
03E01E00
07C01F00
0F801F00
1F800F00
3F000F80
3E000F80
7C000F80
F8000F80
ENDCHAR
STARTCHAR 0059
ENCODING 89
SWIDTH 486 0
DWIDTH 27 0
BBX 26 34 8 0
BITMAP
F80007C0
F8000F80
78000F80
78001F00
78003E00
7C003E00
7C007C00
3C00F800
3C00F800
3E01F000
3E03E000
1E03C000
1E07C000
1F0F8000
0F1F0000
0F1E0000
0FBC0000
07FC0000
07F80000
07F00000
03E00000
03C00000
03C00000
07C00000
07C00000
07C00000
07800000
0F800000
0F800000
0F800000
0F000000
1F000000
1F000000
1F000000
ENDCHAR
STARTCHAR 005A
ENCODING 90
SWIDTH 486 0
DWIDTH 27 0
BBX 30 34 2 0
BITMAP
007FFFFC
00FFFFF8
00FFFFF8
00FFFFF8
000001F0
000003E0
000007C0
00000F80
00001F00
00003E00
00007C00
0000F800
0001F800
0001F000
0003E000
0007C000
000F8000
001F0000
003E0000
007E0000
007C0000
00F80000
01F00000
03E00000
07C00000
07C00000
0F800000
1F000000
3E000000
7E000000
7FFFFE00
7FFFFE00
FFFFFC00
FFFFFC00
ENDCHAR
STARTCHAR 005B
ENCODING 91
SWIDTH 486 0
DWIDTH 27 0
BBX 24 48 6 -9
BITMAP
001FFF
001FFF
003FFF
003FFF
003C00
003C00
007C00
007C00
007800
007800
00F800
00F800
00F000
00F000
00F000
01F000
01E000
01E000
01E000
03E000
03C000
03C000
03C000
07C000
07C000
078000
078000
0F8000
0F8000
0F0000
0F0000
1F0000
1F0000
1E0000
1E0000
3E0000
3E0000
3C0000
3C0000
3C0000
7C0000
780000
780000
780000
F80000
FFF800
FFF800
FFF800
ENDCHAR
STARTCHAR 005C
ENCODING 92
SWIDTH 486 0
DWIDTH 27 0
BBX 9 48 12 -9
BITMAP
F800
F800
F800
F800
7800
7800
7800
7800
7800
7C00
7C00
7C00
7C00
7C00
7C00
7C00
7C00
3C00
3C00
3C00
3C00
3C00
3E00
3E00
3E00
3E00
3E00
3E00
3E00
3E00
1E00
1E00
1E00
1E00
1F00
1F00
1F00
1F00
1F00
1F00
1F00
1F00
0F00
0F00
0F00
0F00
0F00
0F80
ENDCHAR
STARTCHAR 005D
ENCODING 93
SWIDTH 486 0
DWIDTH 27 0
BBX 24 48 2 -9
BITMAP
001FFF
001FFF
003FFF
003FFE
00001E
00001E
00003E
00003E
00003C
00003C
00007C
00007C
000078
000078
000078
0000F8
0000F0
0000F0
0000F0
0001F0
0001E0
0001E0
0001E0
0003E0
0003C0
0003C0
0003C0
0007C0
000780
000780
000780
000F80
000F80
000F00
000F00
001F00
001F00
001E00
001E00
003E00
003E00
003C00
003C00
003C00
007C00
FFF800
FFF800
FFF800
ENDCHAR
STARTCHAR 005E
ENCODING 94
SWIDTH 486 0
DWIDTH 27 0
BBX 22 18 7 16
BITMAP
000F80
001F80
003F80
007FC0
00FBC0
00FBC0
01F3C0
03E3E0
07C1E0
0F81E0
0F81F0
1F00F0
3E00F0
7C00F8
F80078
F80078
F0007C
600030
ENDCHAR
STARTCHAR 005F
ENCODING 95
SWIDTH 486 0
DWIDTH 27 0
BBX 25 4 -1 -9
BITMAP
FFFFFF80
FFFFFF80
FFFFFF80
FFFFFF80
ENDCHAR
STARTCHAR 0060
ENCODING 96
SWIDTH 486 0
DWIDTH 27 0
BBX 9 10 15 28
BITMAP
3000
7000
F800
7C00
3E00
1F00
0F00
0780
0700
0200
ENDCHAR
STARTCHAR 0061
ENCODING 97
SWIDTH 486 0
DWIDTH 27 0
BBX 24 27 4 -1
BITMAP
000FFE
007FFF
00FFFF
03FFFF
07F01F
0FC01E
1F801E
1F003E
3E003E
3E003C
7C003C
7C007C
78007C
F80078
F80078
F800F8
F800F8
F800F8
F800F0
F800F0
F801F0
7C03F0
7F0FF0
3FFFF0
3FFEF8
0FF878
018000
ENDCHAR
STARTCHAR 0062
ENCODING 98
SWIDTH 486 0
DWIDTH 27 0
BBX 24 39 4 0
BITMAP
00F800
00F800
00F000
01F000
01F000
01F000
01E000
01E000
03E000
03E000
03C000
03C000
07DFF0
07FFF8
07FFFC
07FFFE
0FC03E
0F801F
0F001F
0F001F
1F001F
1F001F
1E001F
1E001F
3E001F
3E001E
3E003E
3C003E
3C003E
7C007C
7C00FC
7801F8
7803F0
F80FE0
FEFFC0
FFFF80
FFFE00
FFF800
020000
ENDCHAR
STARTCHAR 0063
ENCODING 99
SWIDTH 486 0
DWIDTH 27 0
BBX 24 27 4 -1
BITMAP
001FFF
007FFF
01FFFF
03FF7E
07F002
0FC000
1F8000
3F0000
3E0000
7C0000
7C0000
780000
F80000
F80000
F80000
F80000
F80000
F80000
F80000
F80000
7C0000
7E0010
3FC1F0
3FFFF0
0FFFF0
07FFE0
007E00
ENDCHAR
STARTCHAR 0064
ENCODING 100
SWIDTH 486 0
DWIDTH 27 0
BBX 28 39 4 0
BITMAP
000001F0
000001F0
000001F0
000001E0
000003E0
000003E0
000003E0
000003C0
000003C0
000007C0
000007C0
00000780
000FFF80
003FFF80
00FFFF80
01FFFF00
03F80F00
07E01F00
0FC01F00
1F801E00
1F001E00
3E003E00
3E003E00
7C003C00
7C003C00
78007C00
78007C00
78007800
F8007800
F8007800
F800F800
7800F800
7C00F800
7C03F800
7F0FF800
3FFFF800
1FFE7800
0FFC7800
01C00000
ENDCHAR
STARTCHAR 0065
ENCODING 101
SWIDTH 486 0
DWIDTH 27 0
BBX 24 27 4 -1
BITMAP
003FF0
00FFFC
01FFFE
07FEFE
0FE01F
0F801F
1F001F
3E001F
3E001F
7C003E
7C007E
7801FC
FFFFF8
FFFFF0
FFFF80
FFF800
F00000
F00000
F80000
F80000
7C0000
7E0010
3FE3F0
3FFFF0
1FFFF0
07FFE0
00FC00
ENDCHAR
STARTCHAR 0066
ENCODING 102
SWIDTH 486 0
DWIDTH 27 0
BBX 32 47 1 -8
BITMAP
000007FF
00001FFF
00003FFE
00007FDE
00007C00
0000F800
0000F800
0001F000
0001F000
0001F000
0001E000
0003E000
007FFFF8
007FFFF8
00FFFFF8
00FFFFF8
0007C000
0007C000
0007C000
00078000
00078000
000F8000
000F8000
000F8000
000F0000
001F0000
001F0000
001F0000
001E0000
001E0000
003E0000
003E0000
003E0000
003C0000
003C0000
007C0000
007C0000
00780000
00780000
00F80000
00F80000
01F00000
03F00000
FFE00000
FFE00000
FFC00000
FF000000
ENDCHAR
STARTCHAR 0067
ENCODING 103
SWIDTH 486 0
DWIDTH 27 0
BBX 28 35 1 -9
BITMAP
0001FFF0
0007FFF0
001FFFF0
003FFFF0
007F01F0
00FC01E0
01F801E0
03F003E0
03E003E0
07C003C0
07C003C0
078007C0
0F8007C0
0F800780
0F000780
0F000F80
0F000F80
0F000F00
0F800F00
0F801F00
0FC07F00
07FFFE00
07FFFE00
01FFFE00
007E3E00
00003C00
00003C00
00007C00
0000F800
0001F800
7003F000
7FFFE000
7FFFC000
FFFF8000
1FFC0000
ENDCHAR
STARTCHAR 0068
ENCODING 104
SWIDTH 486 0
DWIDTH 27 0
BBX 23 38 3 1
BITMAP
00F800
00F800
00F800
00F000
01F000
01F000
01F000
01E000
01E000
03E000
03E000
03C000
03FFE0
07FFF8
07FFFC
07FFFE
07807E
0F803E
0F801E
0F801E
0F001E
1F001E
1F001E
1F003E
1E003E
3E003E
3E003C
3E007C
3C007C
3C007C
7C0078
7C00F8
7800F8
7800F8
F800F0
F800F0
F001F0
F001F0
ENDCHAR
STARTCHAR 0069
ENCODING 105
SWIDTH 486 0
DWIDTH 27 0
BBX 16 37 8 0
BITMAP
0078
00FC
01FC
01FC
01FC
01FC
00F8
0000
0000
0000
0000
FFF0
FFF0
FFF0
FFF0
01E0
01E0
03E0
03E0
03C0
03C0
07C0
07C0
0780
0780
0F80
0F80
0F80
0F00
0F00
0F00
0F80
0F80
0FFF
07FF
03FE
01FE
ENDCHAR
STARTCHAR 006A
ENCODING 106
SWIDTH 486 0
DWIDTH 27 0
BBX 27 46 1 -9
BITMAP
000007C0
00000FC0
00000FE0
00001FE0
00001FE0
00000FC0
00000780
00000000
00000000
00000000
00000000
003FFF80
003FFF80
003FFF80
003FFF80
00000F00
00000F00
00001F00
00001F00
00001F00
00001E00
00003E00
00003E00
00003E00
00003C00
00003C00
00007C00
00007C00
00007800
00007800
0000F800
0000F800
0000F000
0000F000
0001F000
0001F000
0001E000
0001E000
0003E000
0003C000
0007C000
700FC000
7FFF8000
7FFF0000
FFFE0000
1FF80000
ENDCHAR
STARTCHAR 006B
ENCODING 107
SWIDTH 486 0
DWIDTH 27 0
BBX 26 38 4 1
BITMAP
00F80000
00F80000
00F80000
00F00000
00F00000
01F00000
01F00000
01E00000
01E00000
03E00000
03E00000
03C00000
03C007C0
07C01F80
07C03F00
07807E00
0780FC00
0F83F000
0F87E000
0F0FC000
0F1F8000
1F7E0000
1FFC0000
1FF80000
1FF80000
3EFC0000
3E7C0000
3E3E0000
3C1F0000
3C1F8000
7C0F8000
7C07C000
7807E000
7803E000
F801F000
F801F000
F000F800
F000F800
ENDCHAR
STARTCHAR 006C
ENCODING 108
SWIDTH 486 0
DWIDTH 27 0
BBX 15 39 10 -1
BITMAP
7FF8
FFF0
FFF0
FFF0
01F0
01F0
01E0
03E0
03E0
03E0
03C0
07C0
07C0
07C0
0780
0780
0F80
0F80
0F00
0F00
1F00
1F00
1E00
1E00
3E00
3E00
3C00
3C00
7C00
7C00
7C00
7C00
7C00
7C00
7E1C
3FFC
3FFE
1FFC
01C0
ENDCHAR
STARTCHAR 006D
ENCODING 109
SWIDTH 486 0
DWIDTH 27 0
BBX 27 26 2 0
BITMAP
01FF1F80
03FFFFC0
07FFFFC0
07EFF7E0
0787C3E0
0783C1E0
0F87C1E0
0F0783E0
0F0783C0
0F0783C0
1F0783C0
1E0F03C0
1E0F0780
1E0F0780
3E0F0780
3C1F0780
3C000F00
3C000F00
3C000F00
78000F00
78001F00
78001E00
78001E00
F0001E00
F0003E00
F0003C00
ENDCHAR
STARTCHAR 006E
ENCODING 110
SWIDTH 486 0
DWIDTH 27 0
BBX 23 26 4 0
BITMAP
00FFE0
07FFF8
07FFFC
07FFFE
07807E
0F803E
0F801E
0F801E
0F001E
1F001E
1F001E
1F003E
1E003E
3E003E
3E003C
3E007C
3C007C
3C007C
7C0078
7C0078
7800F8
7800F8
F800F0
F800F0
F001F0
F001F0
ENDCHAR
STARTCHAR 006F
ENCODING 111
SWIDTH 486 0
DWIDTH 27 0
BBX 24 27 4 -1
BITMAP
003FF0
00FFF8
01FFFC
03FFFE
07E03E
0FC01F
1F801F
1F001F
3E001F
3E001F
3C001F
7C001F
7C001F
78001F
78001E
78003E
F8003E
F8007C
F8007C
7800F8
7C01F8
7E03F0
7FFFE0
3FFFC0
1FFF80
0FFE00
00C000
ENDCHAR
STARTCHAR 0070
ENCODING 112
SWIDTH 486 0
DWIDTH 27 0
BBX 27 35 1 -9
BITMAP
001FFC00
00FFFF00
00FFFF80
00FFFFC0
01F00FC0
01F003E0
01E003E0
01E003E0
03E003E0
03E003E0
03E003E0
03C003E0
07C003E0
07C003E0
07C003C0
078007C0
0F8007C0
0F800F80
0F801F80
0F003F00
1F007E00
1F01FC00
1FFFF800
1FFFF000
1FFFE000
3FFF0000
3EE00000
3C000000
3C000000
7C000000
7C000000
78000000
78000000
F8000000
F8000000
ENDCHAR
STARTCHAR 0071
ENCODING 113
SWIDTH 486 0
DWIDTH 27 0
BBX 25 35 4 -9
BITMAP
000FFF00
003FFF80
00FFFF80
01FFFF80
03F80F00
07E01F00
0FC01F00
1F801F00
1F001E00
3E003E00
3E003E00
7C003E00
7C003C00
78007C00
78007C00
78007C00
F8007800
F800F800
F800F800
7800F800
7C00F000
7C03F000
7F0FF000
3FFFF000
1FFFE000
0FFFE000
01E3E000
0003E000
0003C000
0003C000
0007C000
0007C000
00078000
00078000
000F8000
ENDCHAR
STARTCHAR 0072
ENCODING 114
SWIDTH 486 0
DWIDTH 27 0
BBX 24 26 5 0
BITMAP
003FFF
03FFFF
03FFFE
07FFFE
07C000
078000
078000
0F8000
0F8000
0F0000
0F0000
1F0000
1F0000
1E0000
1E0000
3E0000
3E0000
3E0000
3C0000
7C0000
7C0000
7C0000
780000
780000
F80000
F80000
ENDCHAR
STARTCHAR 0073
ENCODING 115
SWIDTH 486 0
DWIDTH 27 0
BBX 24 27 4 -1
BITMAP
001FFE
007FFF
01FFFE
01FFFE
03E004
03C000
07C000
07C000
07C000
03E000
03F800
01FE00
00FF80
007FC0
001FE0
0007F0
0001F0
0000F8
0000F8
0000F0
0000F0
3001F0
7E0FE0
7FFFE0
FFFFC0
3FFF00
03F000
ENDCHAR
STARTCHAR 0074
ENCODING 116
SWIDTH 486 0
DWIDTH 27 0
BBX 20 35 8 -1
BITMAP
001800
00F000
01F000
01F000
01F000
01E000
03E000
03E000
FFFFF0
FFFFF0
FFFFF0
FFFFF0
07C000
078000
0F8000
0F8000
0F8000
0F0000
0F0000
1F0000
1F0000
1E0000
1E0000
3E0000
3E0000
3C0000
3C0000
3C0000
3C0000
3E0080
3F9F00
3FFF00
1FFF00
0FFF00
00C000
ENDCHAR
STARTCHAR 0075
ENCODING 117
SWIDTH 486 0
DWIDTH 27 0
BBX 24 27 5 -1
BITMAP
1F001F
1F001E
1F003E
1E003E
1E003E
3E003C
3E003C
3C007C
3C007C
7C0078
7C0078
7800F8
7800F8
F800F0
F800F0
F001F0
F001F0
F001F0
F001E0
F001E0
F803E0
F80FE0
FE3FE0
7FFFE0
3FFDF0
1FF0F0
010000
ENDCHAR
STARTCHAR 0076
ENCODING 118
SWIDTH 486 0
DWIDTH 27 0
BBX 23 26 7 0
BITMAP
F8003E
F8003C
78007C
780078
7800F8
7800F8
7800F0
7C01F0
7C01E0
7C03E0
7C03C0
7C07C0
7C0F80
7C0F80
3C1F00
3C1E00
3C3E00
3E7C00
3E7800
3EF800
1FF000
1FE000
1FE000
1FC000
1F8000
0F0000
ENDCHAR
STARTCHAR 0077
ENCODING 119
SWIDTH 486 0
DWIDTH 27 0
BBX 28 26 4 0
BITMAP
3E0000F0
3E0001F0
3C0001E0
3C0001E0
3C0003E0
3C0003C0
3C0F03C0
3C0F07C0
7C1F0780
781F0780
783F0F00
783F0F00
787F0F00
78F71E00
78E71E00
79E71C00
79C73C00
7BC73C00
7F87F800
7707F800
7F07F000
7E07F000
7E03F000
FC03E000
F803E000
F803C000
ENDCHAR
STARTCHAR 0078
ENCODING 120
SWIDTH 486 0
DWIDTH 27 0
BBX 29 26 1 0
BITMAP
01F000F8
01F001F0
00F803E0
00F807C0
007C07C0
007C0F80
003E1F00
003E3E00
001F7C00
001FF800
000FF000
000FE000
0007C000
000FC000
001FE000
003FE000
007FF000
00FCF000
01F8F800
03F07800
07E07C00
0FC07C00
1F803E00
3F003E00
7E001E00
FC001F00
ENDCHAR
STARTCHAR 0079
ENCODING 121
SWIDTH 486 0
DWIDTH 27 0
BBX 31 35 -1 -9
BITMAP
0078003E
0078003C
0078007C
0078007C
007C0078
007C00F8
007C00F8
007C00F0
007C01F0
007C01E0
003C03E0
003E03E0
003E03C0
003E07C0
003E0780
001E0F80
001E0F00
001F1F00
001F1E00
000F3E00
000F3C00
000FF800
000FF800
0007F000
0007F000
0007E000
0007C000
00078000
000F8000
001F0000
007E0000
7FFC0000
7FF80000
FFE00000
FF800000
ENDCHAR
STARTCHAR 007A
ENCODING 122
SWIDTH 486 0
DWIDTH 27 0
BBX 25 26 3 0
BITMAP
01FFFF80
01FFFF80
01FFFF80
03FFFF00
00003E00
00007C00
0000F800
0001F000
0003E000
0007C000
000F8000
001F0000
003E0000
007C0000
00F80000
01F00000
03E00000
07C00000
0FC00000
0F800000
1F000000
3E000000
7FFFF000
7FFFF000
7FFFF000
FFFFF000
ENDCHAR
STARTCHAR 007B
ENCODING 123
SWIDTH 486 0
DWIDTH 27 0
BBX 27 48 5 -9
BITMAP
00001FE0
0001FFC0
0003FFC0
0007FFC0
000F8000
000F0000
001F0000
001E0000
001E0000
001E0000
003E0000
003C0000
003C0000
003C0000
007C0000
00780000
00780000
00780000
00F80000
00F00000
01F00000
03E00000
7FC00000
7F800000
FF000000
FF800000
0FC00000
07C00000
03C00000
03C00000
03C00000
07C00000
07800000
07800000
07800000
0F800000
0F000000
0F000000
0F000000
1F000000
1E000000
1E000000
1E000000
1F000000
1FE00000
0FFF0000
0FFF0000
03FE0000
ENDCHAR
STARTCHAR 007C
ENCODING 124
SWIDTH 486 0
DWIDTH 27 0
BBX 15 48 9 -9
BITMAP
001E
001E
003E
003E
003C
003C
003C
007C
0078
0078
0078
00F8
00F0
00F0
00F0
01F0
01E0
01E0
01E0
03E0
03E0
03C0
03C0
07C0
07C0
0780
0780
0F80
0F80
0F00
0F00
1F00
1F00
1E00
1E00
1E00
3E00
3C00
3C00
3C00
7C00
7800
7800
7800
F800
F000
F000
F000
ENDCHAR
STARTCHAR 007D
ENCODING 125
SWIDTH 486 0
DWIDTH 27 0
BBX 27 48 0 -9
BITMAP
001FF000
001FFC00
001FFE00
001FFE00
00001F00
00001F00
00001F00
00001F00
00001E00
00001E00
00001E00
00003E00
00003C00
00003C00
00003C00
00003C00
00007800
00007800
00007800
00007800
00007800
00007C00
00007FE0
00003FE0
00003FC0
00007FC0
0000F800
0001F000
0001E000
0003E000
0003C000
0003C000
0007C000
00078000
00078000
00078000
00078000
000F8000
000F0000
000F0000
000F0000
001F0000
001E0000
003E0000
03FC0000
7FF80000
FFF00000
FFC00000
ENDCHAR
STARTCHAR 007E
ENCODING 126
SWIDTH 486 0
DWIDTH 27 0
BBX 25 9 4 10
BITMAP
03C00000
0FF00780
1FF80F00
3FFE0F00
7E7FFE00
781FFE00
F00FFC00
7007F000
00008000
ENDCHAR
STARTCHAR 00A0
ENCODING 160
SWIDTH 486 0
DWIDTH 27 0
BBX 0 0 0 0
BITMAP
ENDCHAR
STARTCHAR 00A1
ENCODING 161
SWIDTH 486 0
DWIDTH 27 0
BBX 13 35 8 -9
BITMAP
0070
01F8
03F8
03F8
03F8
03F8
01F0
00C0
0000
0000
0000
0000
03C0
0380
0380
0780
0780
0780
0F80
0F80
0F00
1F00
1F00
1F00
1F00
3E00
3E00
3E00
3E00
7C00
7C00
7C00
7C00
F800
F800
ENDCHAR
STARTCHAR 00A2
ENCODING 162
SWIDTH 486 0
DWIDTH 27 0
BBX 23 39 5 -5
BITMAP
0001E0
0001E0
0001E0
0001E0
0003C0
0003C0
0003C0
001FFE
007FFE
01FFFE
03FF7C
07F000
0FC000
1F8000
3F0000
3E0000
7C0000
7C0000
7C0000
780000
F80000
F80000
F80000
F80000
F80000
F80000
7C0000
7E0020
3FF7E0
3FFFE0
0FFFE0
07FF80
01E000
01E000
01E000
01E000
01E000
03C000
03C000
ENDCHAR
STARTCHAR 00A3
ENCODING 163
SWIDTH 486 0
DWIDTH 27 0
BBX 26 35 5 0
BITMAP
0001FF00
0007FFC0
000FFFC0
001FFF80
003F0380
007E0000
007C0000
00F80000
00F80000
01F00000
01F00000
01F00000
01E00000
03E00000
03E00000
03E00000
7FFFF000
7FFFE000
7FFFE000
FFFFE000
07800000
0F800000
0F800000
0F800000
0F000000
1F000000
1F000000
1E000000
3E000000
3E000000
3C000000
7FFFF000
7FFFF000
FFFFF000
FFFFF000
ENDCHAR
STARTCHAR 00A4
ENCODING 164
SWIDTH 486 0
DWIDTH 27 0
BBX 23 23 5 5
BITMAP
200008
70001C
F83C3E
7DFFFE
3FFFFC
1FFFF8
0F81F0
1F00F8
1E0078
3C0078
3C0038
3C0038
3C0038
3C0038
1E0078
1E0078
1F00F0
1FC3F0
3FFFF8
7FFFFC
FCFF3E
78001E
30000C
ENDCHAR
STARTCHAR 00A5
ENCODING 165
SWIDTH 486 0
DWIDTH 27 0
BBX 30 34 4 0
BITMAP
0F8000FC
078000F8
07C001F0
07C003E0
03C003E0
03C007C0
03E00F80
03E01F00
01E01F00
01F03E00
01F07C00
00F0F800
00F8F000
00F9E000
007BE000
007FC000
003F8000
1FFFFE00
1FFFFE00
3FFFFE00
003E0000
003C0000
003C0000
007C0000
007C0000
7FFFFC00
7FFFF800
FFFFF800
FFFFF800
00F80000
00F00000
01F00000
01F00000
01F00000
ENDCHAR
STARTCHAR 00A6
ENCODING 166
SWIDTH 486 0
DWIDTH 27 0
BBX 15 48 9 -9
BITMAP
001E
001E
003E
003E
003C
003C
003C
007C
0078
0078
0078
00F8
00F0
00F0
00F0
01F0
01E0
01E0
01E0
0000
0000
0000
0000
0000
0000
0000
0000
0000
0000
0F00
0F00
1F00
1F00
1E00
1E00
1E00
3E00
3C00
3C00
3C00
7C00
7800
7800
7800
F800
F000
F000
F000
ENDCHAR
STARTCHAR 00A7
ENCODING 167
SWIDTH 486 0
DWIDTH 27 0
BBX 26 40 3 -5
BITMAP
0003FF00
000FFFC0
001FFFC0
003FFF80
007C0180
00780000
00F80000
00F80000
00F80000
00F80000
00FC0000
007F8000
007FE000
00FFF800
01F7FC00
03E1FE00
07807E00
0F803E00
0F001E00
0F001E00
1F001E00
0F001E00
0F803E00
0FC07C00
0FF0F800
07FFF000
03FFE000
00FF8000
001FC000
0007E000
0003E000
0001E000
0001E000
0001E000
0003E000
4007E000
7C3FC000
FFFF8000
FFFF0000
7FFC0000
ENDCHAR
STARTCHAR 00A8
ENCODING 168
SWIDTH 486 0
DWIDTH 27 0
BBX 16 5 13 31
BITMAP
781E
7C3E
FC3F
FC3E
783E
ENDCHAR
STARTCHAR 00A9
ENCODING 169
SWIDTH 486 0
DWIDTH 27 0
BBX 24 27 4 -1
BITMAP
01FF80
03FFC0
0FFFF0
1F00F8
3E007C
3C003C
783E1E
70FF0E
71FF0E
F1F60F
E3C007
E3C007
E38007
E38007
E3C007
E3C007
F1E00F
F1FF0E
70FF0E
787F1E
38003C
3C007C
1F00F8
0FE7F0
07FFE0
01FF80
001800
ENDCHAR
STARTCHAR 00AA
ENCODING 170
SWIDTH 486 0
DWIDTH 27 0
BBX 17 19 10 16
BITMAP
00FF80
03FF80
0FFF80
1F8780
3E0700
3C0F00
780F00
780E00
F00E00
F01E00
F01E00
F01C00
F01C00
F01C00
F03C00
7CFC00
7FFC00
3FDE00
0F0000
ENDCHAR
STARTCHAR 00AB
ENCODING 171
SWIDTH 486 0
DWIDTH 27 0
BBX 21 19 6 4
BITMAP
00C030
01E078
03E0F8
03C1F0
0781E0
0F03C0
1F07C0
3E0F80
7C1F00
F83E00
F83E00
781E00
781E00
3C0F00
3C0F00
1E0780
1E0780
0E0380
0C0300
ENDCHAR
STARTCHAR 00AC
ENCODING 172
SWIDTH 486 0
DWIDTH 27 0
BBX 24 17 5 2
BITMAP
7FFFFF
7FFFFE
FFFFFE
FFFFFE
00001E
00003C
00003C
00003C
00003C
000078
000078
000078
000078
000078
0000F0
0000F0
0000F0
ENDCHAR
STARTCHAR 00AD
ENCODING 173
SWIDTH 486 0
DWIDTH 27 0
BBX 13 4 10 12
BITMAP
7FF8
FFF8
FFF0
FFF0
ENDCHAR
STARTCHAR 00AE
ENCODING 174
SWIDTH 486 0
DWIDTH 27 0
BBX 24 27 4 -1
BITMAP
01FF80
03FFC0
0FFFF0
1F00F8
3E007C
3C003C
78FC1E
71FF0E
71FF8E
F1C38F
E1C387
E1C387
E1C787
E1FF87
E1FF07
E1FE07
F1C70F
F1C78E
71C38E
79C3DE
38003C
3C007C
1F00F8
0FE7F0
07FFE0
01FF80
001800
ENDCHAR
STARTCHAR 00AF
ENCODING 175
SWIDTH 486 0
DWIDTH 27 0
BBX 15 3 13 32
BITMAP
7FFE
FFFC
FFFC
ENDCHAR
STARTCHAR 00B0
ENCODING 176
SWIDTH 486 0
DWIDTH 27 0
BBX 14 14 12 25
BITMAP
0100
0FE0
3FF0
7FF8
783C
701C
F01C
F01C
F01C
703C
787C
3FF8
1FF0
0FE0
ENDCHAR
STARTCHAR 00B1
ENCODING 177
SWIDTH 486 0
DWIDTH 27 0
BBX 27 31 2 0
BITMAP
0000F000
0000F000
0000F000
0000F000
0001F000
0001E000
0001E000
0001E000
0003E000
0003C000
07FFFFE0
07FFFFE0
0FFFFFE0
0FFFFFC0
00078000
00078000
000F8000
000F0000
000F0000
000F0000
001F0000
001E0000
001E0000
001E0000
00000000
00000000
00000000
7FFFFE00
FFFFFE00
FFFFFC00
FFFFFC00
ENDCHAR
STARTCHAR 00B2
ENCODING 178
SWIDTH 486 0
DWIDTH 27 0
BBX 16 19 10 16
BITMAP
03F8
07FE
1FFE
0E0F
080F
000F
000E
001E
003C
00F8
01F0
07E0
0F80
1F00
3C00
7800
7FFC
7FFC
FFF8
ENDCHAR
STARTCHAR 00B3
ENCODING 179
SWIDTH 486 0
DWIDTH 27 0
BBX 16 20 10 15
BITMAP
01FC
07FE
07FF
040F
0007
000F
000E
003E
03F8
03F8
03FC
001E
001E
001E
001E
001E
70FC
7FF8
FFF0
0F00
ENDCHAR
STARTCHAR 00B4
ENCODING 180
SWIDTH 486 0
DWIDTH 27 0
BBX 10 9 17 28
BITMAP
0100
0380
07C0
0FC0
1F80
3E00
7C00
F800
6000
ENDCHAR
STARTCHAR 00B5
ENCODING 181
SWIDTH 486 0
DWIDTH 27 0
BBX 28 35 0 -9
BITMAP
00F800F0
00F800F0
00F801F0
00F001F0
00F001E0
01F001E0
01F003E0
01E003E0
01E003C0
03E003C0
03E007C0
03C007C0
03C007C0
07C00780
07C00F80
07800F80
07800F80
0F800F00
0F800F00
0F800F00
0FC01F00
1FC03F80
1FFFFFC0
1FFFFFE0
1FFFF7C0
1EFFC3C0
3E1C0000
3E000000
3C000000
3C000000
7C000000
7C000000
78000000
78000000
F8000000
ENDCHAR
STARTCHAR 00B6
ENCODING 182
SWIDTH 486 0
DWIDTH 27 0
BBX 26 44 5 -9
BITMAP
0001FE00
003FFFC0
00FFFFC0
03FFFFC0
07FF8380
1FFF8780
1FFF8780
3FFF0780
7FFF0780
7FFF0F00
7FFF0F00
FFFE0F00
FFFE0F00
FFFE1E00
FFFE1E00
FFFC1E00
7FFC1E00
7FFC3C00
7FFC3C00
3FFC3C00
1FF83C00
03F83800
00787800
00787800
00F07800
00F07000
00F0F000
00F0F000
01E0F000
01E0E000
01E1E000
01E1E000
03C1E000
03C1E000
03C3C000
03C3C000
0783C000
0783C000
07878000
07878000
07078000
0F078000
0F0F0000
0F0F0000
ENDCHAR
STARTCHAR 00B7
ENCODING 183
SWIDTH 486 0
DWIDTH 27 0
BBX 8 9 12 10
BITMAP
1C
7E
7F
FF
FF
FF
FF
7E
38
ENDCHAR
STARTCHAR 00B8
ENCODING 184
SWIDTH 486 0
DWIDTH 27 0
BBX 9 10 7 -9
BITMAP
0380
0700
0700
0F00
1F80
0780
0780
7F80
FF80
FF00
ENDCHAR
STARTCHAR 00B9
ENCODING 185
SWIDTH 486 0
DWIDTH 27 0
BBX 14 19 10 16
BITMAP
0038
0078
01F8
07F8
0FF0
0F70
08F0
00F0
00E0
00E0
01E0
01E0
01C0
01C0
03C0
03C0
7FFC
7FFC
FFF8
ENDCHAR
STARTCHAR 00BA
ENCODING 186
SWIDTH 486 0
DWIDTH 27 0
BBX 18 19 10 16
BITMAP
01FE00
03FF00
0FFF80
1F0780
1E03C0
3C03C0
7803C0
7803C0
7803C0
700380
F00780
F00780
F00F00
F00F00
781E00
7C7C00
3FF800
3FF000
078000
ENDCHAR
STARTCHAR 00BB
ENCODING 187
SWIDTH 486 0
DWIDTH 27 0
BBX 21 19 6 5
BITMAP
0E0380
0E0380
0F03C0
0F03C0
0781E0
0781E0
07C1F0
03C0F0
03E0F8
07C1F0
0783E0
0F03C0
1F07C0
3E0F80
7C1F00
783E00
F03C00
E03800
401000
ENDCHAR
STARTCHAR 00BC
ENCODING 188
SWIDTH 486 0
DWIDTH 27 0
BBX 30 35 2 0
BITMAP
000E0000
001C003C
007C0078
01FC00F0
03FC01F0
033801E0
003803C0
00380780
00780F80
00701F00
00701E00
00703C00
00F07800
00E0F800
0000F000
0001E000
0003C000
00078000
000F8000
000F0000
001E0000
003C0380
007C0F80
00781F80
00F03F80
01E07780
03C0E700
07C1C700
07838F00
0F078F00
1E07FF80
3E07FF80
7C000E00
78001E00
F0001C00
ENDCHAR
STARTCHAR 00BD
ENCODING 189
SWIDTH 486 0
DWIDTH 27 0
BBX 31 35 1 0
BITMAP
00070000
000E003E
003E007C
00FE0078
01FE00F0
019C01E0
001C03E0
001C07C0
003C0780
00380F00
00381E00
00383E00
00783C00
00707800
0000F000
0001F000
0003E000
0003C000
00078000
000F0000
001F0000
001E1F80
003C7FC0
00787FC0
00F861C0
01F001C0
01E001C0
03C00780
07800F00
0F803E00
0F00F800
1E01E000
3C01FF80
7801FF80
F803FF80
ENDCHAR
STARTCHAR 00BE
ENCODING 190
SWIDTH 486 0
DWIDTH 27 0
BBX 30 35 2 0
BITMAP
01FC0000
03FE003C
03FE0078
000E00F0
001C01F0
007C01E0
01F803C0
03F80780
007C0F80
001C1F00
001C1E00
08783C00
1FF87800
1FE0F800
0380F000
0001E000
0003C000
00078000
000F8000
000F0000
001E0000
003C0380
007C0F80
00781F80
00F03F80
01E07780
03C0E700
07C1C700
07838F00
0F078F00
1E07FF80
3E07FF80
7C000E00
78001E00
F0001C00
ENDCHAR
STARTCHAR 00BF
ENCODING 191
SWIDTH 486 0
DWIDTH 27 0
BBX 20 35 4 -9
BITMAP
0001C0
0003E0
0007F0
0007F0
0007F0
0007F0
0007E0
000180
000000
000000
000000
000000
000F80
000F00
000F00
001F00
003E00
007C00
00F800
01F000
07E000
0FC000
1F0000
3E0000
7C0000
7C0000
780000
F80000
F80000
F80000
FC0100
7F1F00
7FFF00
3FFF00
0FFC00
ENDCHAR
STARTCHAR 00C0
ENCODING 192
SWIDTH 486 0
DWIDTH 27 0
BBX 26 46 0 0
BITMAP
00001000
00003800
00007C00
00007E00
00003E00
00001F00
00000F80
000007C0
00000380
00000100
00000000
00000000
00003F00
00007F00
0000FF00
0000FF00
0001EF00
0001EF00
0003CF00
0007CF80
00078F80
000F0F80
000F0780
001E0780
001E0780
003C0780
007C0780
00780780
00F80780
00F00780
01F00780
01E00780
03C007C0
03FFFFC0
07FFFFC0
07FFFFC0
0FFFFFC0
0F0007C0
1E0007C0
1E0007C0
3C0007C0
3C0007C0
7C0007C0
780007C0
F80007C0
F00007C0
ENDCHAR
STARTCHAR 00C1
ENCODING 193
SWIDTH 486 0
DWIDTH 27 0
BBX 29 46 0 0
BITMAP
00000020
00000070
000000F0
000001F8
000003F0
000007E0
00000F80
00001F00
00000E00
00000000
00000000
00000000
00003F00
00007F00
0000FF00
0000FF00
0001EF00
0001EF00
0003CF00
0007CF80
00078F80
000F0F80
000F0780
001E0780
001E0780
003C0780
007C0780
00780780
00F80780
00F00780
01F00780
01E00780
03C007C0
03FFFFC0
07FFFFC0
07FFFFC0
0FFFFFC0
0F0007C0
1E0007C0
1E0007C0
3C0007C0
3C0007C0
7C0007C0
780007C0
F80007C0
F00007C0
ENDCHAR
STARTCHAR 00C2
ENCODING 194
SWIDTH 486 0
DWIDTH 27 0
BBX 29 46 0 0
BITMAP
00000100
00000300
00000780
00001FC0
00003FE0
00007DE0
0000F8F0
0000E078
0000C030
00000020
00000000
00000000
00003F00
00007F00
0000FF00
0000FF00
0001EF00
0001EF00
0003CF00
0007CF80
00078F80
000F0F80
000F0780
001E0780
001E0780
003C0780
007C0780
00780780
00F80780
00F00780
01F00780
01E00780
03C007C0
03FFFFC0
07FFFFC0
07FFFFC0
0FFFFFC0
0F0007C0
1E0007C0
1E0007C0
3C0007C0
3C0007C0
7C0007C0
780007C0
F80007C0
F00007C0
ENDCHAR
STARTCHAR 00C3
ENCODING 195
SWIDTH 486 0
DWIDTH 27 0
BBX 31 44 0 0
BITMAP
0000780C
0000FE1E
0001FFFC
0003FFF8
000383F0
00010000
00000000
00000000
00000000
00000000
00003F00
00007F00
0000FF00
0000FF00
0001EF00
0001EF00
0003CF00
0007CF80
00078F80
000F0F80
000F0780
001E0780
001E0780
003C0780
007C0780
00780780
00F80780
00F00780
01F00780
01E00780
03C007C0
03FFFFC0
07FFFFC0
07FFFFC0
0FFFFFC0
0F0007C0
1E0007C0
1E0007C0
3C0007C0
3C0007C0
7C0007C0
780007C0
F80007C0
F00007C0
ENDCHAR
STARTCHAR 00C4
ENCODING 196
SWIDTH 486 0
DWIDTH 27 0
BBX 30 44 0 0
BITMAP
0000703C
0000F87C
0001F87C
0001F87C
0000F07C
00006030
00000000
00000000
00000000
00000000
00003F00
00007F00
0000FF00
0000FF00
0001EF00
0001EF00
0003CF00
0007CF80
00078F80
000F0F80
000F0780
001E0780
001E0780
003C0780
007C0780
00780780
00F80780
00F00780
01F00780
01E00780
03C007C0
03FFFFC0
07FFFFC0
07FFFFC0
0FFFFFC0
0F0007C0
1E0007C0
1E0007C0
3C0007C0
3C0007C0
7C0007C0
780007C0
F80007C0
F00007C0
ENDCHAR
STARTCHAR 00C5
ENCODING 197
SWIDTH 486 0
DWIDTH 27 0
BBX 26 42 0 0
BITMAP
00000C00
00003F00
00007F80
0000E1C0
0000E1C0
0000C0C0
0000E1C0
0000E1C0
00007F80
00007F00
0000FF00
0000FF00
0001EF00
0001EF00
0003CF00
0007CF00
00078F80
000F0F80
000F0780
001E0780
001E0780
003C0780
007C0780
00780780
00F80780
00F00780
01F00780
01E00780
03C00780
03FFFFC0
07FFFFC0
07FFFFC0
0FFFFFC0
0F0007C0
1E0007C0
1E0007C0
3C0007C0
3C0007C0
7C0007C0
F80007C0
F80007C0
F00007C0
ENDCHAR
STARTCHAR 00C6
ENCODING 198
SWIDTH 486 0
DWIDTH 27 0
BBX 32 34 1 0
BITMAP
00003FFF
00007FFF
00007FFF
0000FFFE
0001EF00
0001FF00
0003DF00
00079E00
00079E00
000F1E00
000F3E00
001E3C00
001E3C00
003C3C00
003C7FF0
00787FE0
00F87FE0
00F07FE0
01F0F800
01E0F800
03C0F000
03FFF000
07FFF000
07FFF000
0FFFE000
0F01E000
1E03E000
1E03E000
3C03C000
3C03C000
7C07FFC0
7807FF80
F807FF80
F007FF80
ENDCHAR
STARTCHAR 00C7
ENCODING 199
SWIDTH 486 0
DWIDTH 27 0
BBX 27 44 5 -9
BITMAP
0003FE00
001FFFC0
003FFFE0
007FFFC0
01FE03C0
03F80080
03E00000
07C00000
0F800000
0F800000
1F000000
1E000000
3E000000
3C000000
7C000000
7C000000
78000000
78000000
F8000000
F8000000
F8000000
F8000000
F8000000
F8000000
F8000000
F8000000
F8000000
F8000000
7C000000
7C000000
7F002000
3FC3F000
1FFFF000
0FFFF000
07FFC000
00FC0000
00E00000
01E00000
01F00000
00F80000
00F80000
0FF00000
1FF00000
1FE00000
ENDCHAR
STARTCHAR 00C8
ENCODING 200
SWIDTH 486 0
DWIDTH 27 0
BBX 27 46 4 0
BITMAP
00004000
0001E000
0003E000
0001F000
0000F800
00007C00
00003E00
00001E00
00000E00
00000400
00000000
00000000
00FFFFE0
00FFFFE0
00FFFFE0
01FFFFE0
01F00000
01E00000
01E00000
03E00000
03E00000
03C00000
03C00000
07C00000
07C00000
07800000
07FFFC00
0FFFFC00
0FFFFC00
0FFFF800
0F000000
1F000000
1F000000
1F000000
1E000000
3E000000
3E000000
3E000000
3C000000
3C000000
7C000000
7C000000
7FFFF800
7FFFF800
FFFFF800
FFFFF800
ENDCHAR
STARTCHAR 00C9
ENCODING 201
SWIDTH 486 0
DWIDTH 27 0
BBX 27 46 4 0
BITMAP
00000200
00000700
00000F80
00001F80
00003F00
00007E00
0000F800
0001F000
0000E000
00000000
00000000
00000000
00FFFFE0
00FFFFE0
00FFFFE0
01FFFFE0
01F00000
01E00000
01E00000
03E00000
03E00000
03C00000
03C00000
07C00000
07C00000
07800000
07FFFC00
0FFFFC00
0FFFFC00
0FFFF800
0F000000
1F000000
1F000000
1F000000
1E000000
3E000000
3E000000
3E000000
3C000000
3C000000
7C000000
7C000000
7FFFF800
7FFFF800
FFFFF800
FFFFF800
ENDCHAR
STARTCHAR 00CA
ENCODING 202
SWIDTH 486 0
DWIDTH 27 0
BBX 27 46 4 0
BITMAP
00000800
00001C00
00003C00
00007E00
0001FF00
0003EF00
0007C780
000783C0
00020180
00000000
00000000
00000000
00FFFFE0
00FFFFE0
00FFFFE0
01FFFFE0
01F00000
01E00000
01E00000
03E00000
03E00000
03C00000
03C00000
07C00000
07C00000
07800000
07FFFC00
0FFFFC00
0FFFFC00
0FFFF800
0F000000
1F000000
1F000000
1F000000
1E000000
3E000000
3E000000
3E000000
3C000000
3C000000
7C000000
7C000000
7FFFF800
7FFFF800
FFFFF800
FFFFF800
ENDCHAR
STARTCHAR 00CB
ENCODING 203
SWIDTH 486 0
DWIDTH 27 0
BBX 27 44 4 0
BITMAP
000703C0
000F87C0
001F87C0
001F87C0
000F07C0
00060300
00000000
00000000
00000000
00000000
00FFFFE0
00FFFFE0
00FFFFE0
01FFFFE0
01F00000
01E00000
01E00000
03E00000
03E00000
03C00000
03C00000
07C00000
07C00000
07800000
07FFFC00
0FFFFC00
0FFFFC00
0FFFF800
0F000000
1F000000
1F000000
1F000000
1E000000
3E000000
3E000000
3E000000
3C000000
3C000000
7C000000
7C000000
7FFFF800
7FFFF800
FFFFF800
FFFFF800
ENDCHAR
STARTCHAR 00CC
ENCODING 204
SWIDTH 486 0
DWIDTH 27 0
BBX 26 46 4 0
BITMAP
00010000
00038000
0007C000
0007E000
0003F000
0001F000
0000F800
00007C00
00003800
00001000
00000000
00000000
00FFFFC0
00FFFFC0
00FFFF80
01FFFF80
0003C000
0007C000
0007C000
0007C000
00078000
000F8000
000F8000
000F8000
000F0000
001F0000
001F0000
001F0000
001E0000
001E0000
003E0000
003E0000
003C0000
003C0000
007C0000
007C0000
00780000
00780000
00F80000
00F80000
00F00000
00F00000
7FFFE000
7FFFC000
FFFFC000
FFFFC000
ENDCHAR
STARTCHAR 00CD
ENCODING 205
SWIDTH 486 0
DWIDTH 27 0
BBX 26 46 4 0
BITMAP
00000400
00000E00
00001F00
00003F00
00007E00
0000FC00
0001F000
0003E000
0001C000
00000000
00000000
00000000
00FFFFC0
00FFFFC0
00FFFF80
01FFFF80
0003C000
0007C000
0007C000
0007C000
00078000
000F8000
000F8000
000F8000
000F0000
001F0000
001F0000
001F0000
001E0000
001E0000
003E0000
003E0000
003C0000
003C0000
007C0000
007C0000
00780000
00780000
00F80000
00F80000
00F00000
00F00000
7FFFE000
7FFFC000
FFFFC000
FFFFC000
ENDCHAR
STARTCHAR 00CE
ENCODING 206
SWIDTH 486 0
DWIDTH 27 0
BBX 26 46 4 0
BITMAP
00001000
00003800
00007800
0000FC00
0003FE00
0007DE00
000F8F00
000F0780
00040300
00000000
00000000
00000000
00FFFFC0
00FFFFC0
00FFFF80
01FFFF80
0003C000
0007C000
0007C000
0007C000
00078000
000F8000
000F8000
000F8000
000F0000
001F0000
001F0000
001F0000
001E0000
001E0000
003E0000
003E0000
003C0000
003C0000
007C0000
007C0000
00780000
00780000
00F80000
00F80000
00F00000
00F00000
7FFFE000
7FFFC000
FFFFC000
FFFFC000
ENDCHAR
STARTCHAR 00CF
ENCODING 207
SWIDTH 486 0
DWIDTH 27 0
BBX 27 44 4 0
BITMAP
000703C0
000F87C0
001F87E0
001F87C0
000F07C0
00060300
00000000
00000000
00000000
00000000
00FFFFC0
00FFFFC0
00FFFF80
01FFFF80
0003C000
0007C000
0007C000
0007C000
00078000
000F8000
000F8000
000F8000
000F0000
001F0000
001F0000
001F0000
001E0000
001E0000
003E0000
003E0000
003C0000
003C0000
007C0000
007C0000
00780000
00780000
00F80000
00F80000
00F00000
00F00000
7FFFE000
7FFFC000
FFFFC000
FFFFC000
ENDCHAR
STARTCHAR 00D0
ENCODING 208
SWIDTH 486 0
DWIDTH 27 0
BBX 25 35 4 0
BITMAP
001F8000
00FFF000
01FFF800
01FFFC00
01F0FE00
01E03F00
01E01F00
03E01F00
03E00F80
03C00F80
03C00F80
07C00F80
07C00F80
07800F80
07800F80
FFF80F80
FFF80F80
FFF80F80
FFF80F00
1F000F00
1F001F00
1F001F00
1E001E00
3E003E00
3E003E00
3E007C00
3C00FC00
3C00F800
7C01F000
7C07F000
781FE000
7FFFC000
FFFF0000
FFFE0000
FFF00000
ENDCHAR
STARTCHAR 00D1
ENCODING 209
SWIDTH 486 0
DWIDTH 27 0
BBX 30 44 2 0
BITMAP
0000F030
0003FC78
0007FFF0
000FFFE0
000E0FC0
00000000
00000000
00000000
00000000
00000000
00F8003C
00FC003C
00FC0078
00FC0078
01FC0078
01FE0078
01FE00F8
01FE00F0
03CF00F0
03CF00F0
03CF01F0
03C701E0
078781E0
078781E0
078783E0
078383C0
0F83C3C0
0F03C3C0
0F03C3C0
0F01C780
1F01C780
1E01E780
1E01E780
1E01EF00
3E00EF00
3C00EF00
3C00FF00
3C00FE00
3C00FE00
78007E00
78007E00
78007E00
78007C00
F8007C00
ENDCHAR
STARTCHAR 00D2
ENCODING 210
SWIDTH 486 0
DWIDTH 27 0
BBX 26 47 4 -1
BITMAP
00018000
00038000
0007C000
0003E000
0001F000
0000F800
00007800
00003C00
00003C00
00001800
00000000
0007F800
001FFC00
007FFF00
00FFFF00
01FC1F80
01F00F80
03E007C0
07C007C0
078007C0
0F8007C0
0F0007C0
1F0007C0
1E0007C0
3E0007C0
3E0007C0
3C0007C0
3C000780
7C000780
7C000780
78000F80
78000F80
78000F00
78001F00
F8001F00
F8001E00
F8003E00
F8007C00
78007C00
7C00F800
7C01F000
7E03F000
3F8FE000
3FFFC000
1FFF0000
07FE0000
01E00000
ENDCHAR
STARTCHAR 00D3
ENCODING 211
SWIDTH 486 0
DWIDTH 27 0
BBX 26 47 4 -1
BITMAP
00000200
00000700
00000F00
00001F80
00003F00
00007C00
0000F800
0001F000
0000C000
00008000
00000000
0007F800
001FFC00
007FFF00
00FFFF00
01FC1F80
01F00F80
03E007C0
07C007C0
078007C0
0F8007C0
0F0007C0
1F0007C0
1E0007C0
3E0007C0
3E0007C0
3C0007C0
3C000780
7C000780
7C000780
78000F80
78000F80
78000F00
78001F00
F8001F00
F8001E00
F8003E00
F8007C00
78007C00
7C00F800
7C01F000
7E03F000
3F8FE000
3FFFC000
1FFF0000
07FE0000
01E00000
ENDCHAR
STARTCHAR 00D4
ENCODING 212
SWIDTH 486 0
DWIDTH 27 0
BBX 26 47 4 -1
BITMAP
00001000
00003800
00007800
0000FC00
0001FE00
0007DF00
000F8F00
000F0780
00040300
00000000
00000000
0007F800
001FFC00
007FFF00
00FFFF00
01FC1F80
01F00F80
03E007C0
07C007C0
078007C0
0F8007C0
0F0007C0
1F0007C0
1E0007C0
3E0007C0
3E0007C0
3C0007C0
3C000780
7C000780
7C000780
78000F80
78000F80
78000F00
78001F00
F8001F00
F8001E00
F8003E00
F8007C00
78007C00
7C00F800
7C01F000
7E03F000
3F8FE000
3FFFC000
1FFF0000
07FE0000
01E00000
ENDCHAR
STARTCHAR 00D5
ENCODING 213
SWIDTH 486 0
DWIDTH 27 0
BBX 27 45 4 -1
BITMAP
0003C0C0
000FF1E0
001FFFC0
001FFFC0
00383F00
00080000
00000000
00000000
00000000
0007F800
001FFC00
007FFF00
00FFFF00
01FC1F80
01F00F80
03E007C0
07C007C0
078007C0
0F8007C0
0F0007C0
1F0007C0
1E0007C0
3E0007C0
3E0007C0
3C0007C0
3C000780
7C000780
7C000780
78000F80
78000F80
78000F00
78001F00
F8001F00
F8001E00
F8003E00
F8007C00
78007C00
7C00F800
7C01F000
7E03F000
3F8FE000
3FFFC000
1FFF0000
07FE0000
01E00000
ENDCHAR
STARTCHAR 00D6
ENCODING 214
SWIDTH 486 0
DWIDTH 27 0
BBX 27 45 4 -1
BITMAP
000703C0
000F87E0
000F87E0
000F87E0
000F87C0
00060380
00000000
00000000
00000000
0007F800
001FFC00
007FFF00
00FFFF00
01FC1F80
01F00F80
03E007C0
07C007C0
078007C0
0F8007C0
0F0007C0
1F0007C0
1E0007C0
3E0007C0
3E0007C0
3C0007C0
3C000780
7C000780
7C000780
78000F80
78000F80
78000F00
78001F00
F8001F00
F8001E00
F8003E00
F8007C00
78007C00
7C00F800
7C01F000
7E03F000
3F8FE000
3FFFC000
1FFF0000
07FE0000
01E00000
ENDCHAR
STARTCHAR 00D7
ENCODING 215
SWIDTH 486 0
DWIDTH 27 0
BBX 23 19 5 6
BITMAP
06000C
0F003E
0F807E
07C0FC
07C1F8
03E7E0
01FFC0
00FF80
00FF00
00FC00
01FE00
03FF00
07FF00
0F8F80
3F07C0
7E03E0
FC03E0
7801E0
6000C0
ENDCHAR
STARTCHAR 00D8
ENCODING 216
SWIDTH 486 0
DWIDTH 27 0
BBX 28 37 3 -2
BITMAP
00000040
0003F8F0
001FFFF0
003FFFE0
007FFFC0
00FC0FC0
01F80FC0
03E00FC0
03E01FC0
07C03FC0
07803FE0
0F807BE0
0F00F3E0
1F01F3C0
1E01E3C0
1E03C3C0
3E07C3C0
3C0783C0
3C0F07C0
3C1E07C0
7C3E0780
7C3C0780
7C780F80
7CF00F00
79F00F00
79E01F00
7BC01E00
7FC03E00
7F807C00
7F007C00
3E00F800
3E01F000
3F8FE000
7FFFC000
FFFF8000
F7FE0000
E0700000
ENDCHAR
STARTCHAR 00D9
ENCODING 217
SWIDTH 486 0
DWIDTH 27 0
BBX 28 47 4 -1
BITMAP
00020000
000F0000
001F0000
000F8000
0007C000
0003E000
0001F000
0000F000
00007000
00002000
00000000
00000000
03E001F0
03C001F0
03C001E0
07C003E0
07C003E0
078003E0
078003C0
0F8003C0
0F8007C0
0F0007C0
0F000780
1F000780
1F000F80
1E000F80
1E000F00
3E000F00
3E001F00
3C001F00
3C001E00
7C001E00
7C003E00
7C003E00
78003E00
78003C00
F8007C00
F8007C00
78007800
7800F800
7C01F000
7C03F000
3F0FE000
3FFFC000
1FFF8000
0FFF0000
01F00000
ENDCHAR
STARTCHAR 00DA
ENCODING 218
SWIDTH 486 0
DWIDTH 27 0
BBX 28 47 4 -1
BITMAP
00000200
00000700
00000F80
00001F80
00003F00
00007E00
0000F800
0001F000
0000E000
00000000
00000000
00000000
03E001F0
03C001F0
03C001E0
07C003E0
07C003E0
078003E0
078003C0
0F8003C0
0F8007C0
0F0007C0
0F000780
1F000780
1F000F80
1E000F80
1E000F00
3E000F00
3E001F00
3C001F00
3C001E00
7C001E00
7C003E00
7C003E00
78003E00
78003C00
F8007C00
F8007C00
78007800
7800F800
7C01F000
7C03F000
3F0FE000
3FFFC000
1FFF8000
0FFF0000
01F00000
ENDCHAR
STARTCHAR 00DB
ENCODING 219
SWIDTH 486 0
DWIDTH 27 0
BBX 28 47 4 -1
BITMAP
00001000
00003800
00007800
0000FC00
0003FE00
0007DE00
000F8F00
000F0780
00040300
00000000
00000000
00000000
03E001F0
03C001F0
03C001E0
07C003E0
07C003E0
078003E0
078003C0
0F8003C0
0F8007C0
0F0007C0
0F000780
1F000780
1F000F80
1E000F80
1E000F00
3E000F00
3E001F00
3C001F00
3C001E00
7C001E00
7C003E00
7C003E00
78003E00
78003C00
F8007C00
F8007C00
78007800
7800F800
7C01F000
7C03F000
3F0FE000
3FFFC000
1FFF8000
0FFF0000
01F00000
ENDCHAR
STARTCHAR 00DC
ENCODING 220
SWIDTH 486 0
DWIDTH 27 0
BBX 28 45 4 -1
BITMAP
000703C0
000F87C0
001F87E0
001F87C0
000F07C0
00060300
00000000
00000000
00000000
00000000
03E001F0
03C001F0
03C001E0
07C003E0
07C003E0
078003E0
078003C0
0F8003C0
0F8007C0
0F0007C0
0F000780
1F000780
1F000F80
1E000F80
1E000F00
3E000F00
3E001F00
3C001F00
3C001E00
7C001E00
7C003E00
7C003E00
78003E00
78003C00
F8007C00
F8007C00
78007800
7800F800
7C01F000
7C03F000
3F0FE000
3FFFC000
1FFF8000
0FFF0000
01F00000
ENDCHAR
STARTCHAR 00DD
ENCODING 221
SWIDTH 486 0
DWIDTH 27 0
BBX 26 46 8 0
BITMAP
00001000
00003000
00007800
0001FC00
0003F000
0007E000
000FC000
000F0000
000E0000
00040000
00000000
00000000
F80007C0
F8000F80
78000F80
78001F00
78003E00
7C003E00
7C007C00
3C00F800
3C00F800
3E01F000
3E03E000
1E03C000
1E07C000
1F0F8000
0F1F0000
0F1E0000
0FBC0000
07FC0000
07F80000
07F00000
03E00000
03C00000
03C00000
07C00000
07C00000
07C00000
07800000
0F800000
0F800000
0F800000
0F000000
1F000000
1F000000
1F000000
ENDCHAR
STARTCHAR 00DE
ENCODING 222
SWIDTH 486 0
DWIDTH 27 0
BBX 26 34 3 0
BITMAP
00F80000
00F00000
00F00000
01F00000
01F00000
01FFE000
01FFFC00
03FFFE00
03FFFF00
03C0FF80
03C01F80
07C00F80
07C007C0
078007C0
078007C0
0F8007C0
0F8007C0
0F000F80
0F000F80
1F001F80
1F003F00
1F007E00
1E03FC00
3FFFF800
3FFFF000
3FFFC000
3FF80000
7C000000
7C000000
7C000000
78000000
78000000
F8000000
F8000000
ENDCHAR
STARTCHAR 00DF
ENCODING 223
SWIDTH 486 0
DWIDTH 27 0
BBX 34 47 -5 -8
BITMAP
000007FE00
00000FFF00
00001FFF80
00003FBF80
00007E0F80
00007C07C0
0000F807C0
0000F807C0
0000F00780
0001F00F80
0001F01F80
0001E03F00
0001E07E00
0003E0FC00
0003E1F800
0003E3F000
0003C7C000
0003C7C000
0007C78000
0007C78000
0007C7C000
000787C000
000787F000
000F83F800
000F81FC00
000F007E00
000F003F00
001F001F00
001F000F80
001F000F80
001E000F80
001E000F00
003E001F00
003E003F00
003E78FE00
003C7FFC00
003C7FF800
007C7FF000
007C0F0000
0078000000
00F8000000
00F8000000
01F0000000
7FF0000000
FFE0000000
FFC0000000
FF00000000
ENDCHAR
STARTCHAR 00E0
ENCODING 224
SWIDTH 486 0
DWIDTH 27 0
BBX 24 39 4 -1
BITMAP
000300
000700
000F80
0007C0
0003E0
0001F0
0000F0
000078
000030
000000
000000
000000
000FFE
007FFF
00FFFF
03FFFF
07F01F
0FC01E
1F801E
1F003E
3E003E
3E003C
7C003C
7C007C
78007C
F80078
F80078
F800F8
F800F8
F800F8
F800F0
F800F0
F801F0
7C03F0
7F0FF0
3FFFF0
3FFEF8
0FF878
018000
ENDCHAR
STARTCHAR 00E1
ENCODING 225
SWIDTH 486 0
DWIDTH 27 0
BBX 24 39 4 -1
BITMAP
000006
00000E
00001F
00003F
00007E
0000F8
0001F0
0003E0
000180
000000
000000
000000
000FFE
007FFF
00FFFF
03FFFF
07F01F
0FC01E
1F801E
1F003E
3E003E
3E003C
7C003C
7C007C
78007C
F80078
F80078
F800F8
F800F8
F800F8
F800F0
F800F0
F801F0
7C03F0
7F0FF0
3FFFF0
3FFEF8
0FF878
018000
ENDCHAR
STARTCHAR 00E2
ENCODING 226
SWIDTH 486 0
DWIDTH 27 0
BBX 24 39 4 -1
BITMAP
000020
000070
0000F8
0003F8
0007FC
000FBE
001F1E
001C0F
000804
000000
000000
000000
000FFE
007FFF
00FFFF
03FFFF
07F01F
0FC01E
1F801E
1F003E
3E003E
3E003C
7C003C
7C007C
78007C
F80078
F80078
F800F8
F800F8
F800F8
F800F0
F800F0
F801F0
7C03F0
7F0FF0
3FFFF0
3FFEF8
0FF878
018000
ENDCHAR
STARTCHAR 00E3
ENCODING 227
SWIDTH 486 0
DWIDTH 27 0
BBX 26 37 4 0
BITMAP
000FC1C0
001FF3C0
003FFF80
003CFF80
00383E00
00000000
00000000
00000000
00000000
00000000
000FFE00
007FFF00
00FFFF00
03FFFF00
07F01F00
0FC01E00
1F801E00
1F003E00
3E003E00
3E003C00
7C003C00
7C007C00
78007C00
F8007800
F8007800
F800F800
F800F800
F800F800
F800F000
F800F000
F801F000
7C03F000
7F0FF000
3FFFF000
3FFEF800
0FF87800
01800000
ENDCHAR
STARTCHAR 00E4
ENCODING 228
SWIDTH 486 0
DWIDTH 27 0
BBX 26 37 4 -1
BITMAP
000F07C0
001F87C0
001F8FC0
001F0FC0
001F0780
00000000
00000000
00000000
00000000
00000000
000FFE00
007FFF00
00FFFF00
03FFFF00
07F01F00
0FC01E00
1F801E00
1F003E00
3E003E00
3E003C00
7C003C00
7C007C00
78007C00
F8007800
F8007800
F800F800
F800F800
F800F800
F800F000
F800F000
F801F000
7C03F000
7F0FF000
3FFFF000
3FFEF800
0FF87800
01800000
ENDCHAR
STARTCHAR 00E5
ENCODING 229
SWIDTH 486 0
DWIDTH 27 0
BBX 24 40 4 -1
BITMAP
000060
0001F8
0003FC
00070E
00060E
000606
00070E
00070E
0003FC
0001F8
000000
000000
000000
000FFE
007FFF
00FFFF
03FFFF
07F01F
0FC01E
1F801E
1F003E
3E003E
3E003C
7C003C
7C007C
78007C
F80078
F80078
F800F8
F800F8
F800F8
F800F0
F800F0
F801F0
7C03F0
7F0FF0
3FFFF0
3FFEF8
0FF878
018000
ENDCHAR
STARTCHAR 00E6
ENCODING 230
SWIDTH 486 0
DWIDTH 27 0
BBX 27 27 3 -1
BITMAP
07F81F80
0FFC3FC0
0FFE7FE0
0FFEFFE0
083FE1E0
001FC1E0
001FC1E0
000F81E0
000F83E0
000F03C0
007F07C0
03FF1F80
0FFFFF00
1FFFFE00
3F9FF800
7C1FE000
781E0000
F03E0000
F03E0000
F07E0000
F07F0000
F0FF0200
F9EFFE00
FFEFFE00
FFC7FE00
7F03FC00
0C00E000
ENDCHAR
STARTCHAR 00E7
ENCODING 231
SWIDTH 486 0
DWIDTH 27 0
BBX 24 35 4 -9
BITMAP
001FFF
007FFF
01FFFF
03FF7E
07F002
0FC000
1F8000
3F0000
3E0000
7C0000
7C0000
780000
F80000
F80000
F80000
F80000
F80000
F80000
F80000
F80000
7C0000
7E0010
3FC1F0
3FFFF0
0FFFF0
07FFE0
00FE00
00E000
01E000
03F000
00F000
00F000
0FF000
1FF000
1FE000
ENDCHAR
STARTCHAR 00E8
ENCODING 232
SWIDTH 486 0
DWIDTH 27 0
BBX 24 39 4 -1
BITMAP
000300
000780
000F80
0007C0
0003E0
0001F0
0000F8
000078
000030
000000
000000
000000
003FF0
00FFFC
01FFFE
07FEFE
0FE01F
0F801F
1F001F
3E001F
3E001F
7C003E
7C007E
7801FC
FFFFF8
FFFFF0
FFFF80
FFF800
F00000
F00000
F80000
F80000
7C0000
7E0010
3FE3F0
3FFFF0
1FFFF0
07FFE0
00FC00
ENDCHAR
STARTCHAR 00E9
ENCODING 233
SWIDTH 486 0
DWIDTH 27 0
BBX 24 39 4 -1
BITMAP
000008
00001C
00003E
00007E
0000FC
0001F0
0003E0
0007C0
000300
000000
000000
000000
003FF0
00FFFC
01FFFE
07FEFE
0FE01F
0F801F
1F001F
3E001F
3E001F
7C003E
7C007E
7801FC
FFFFF8
FFFFF0
FFFF80
FFF800
F00000
F00000
F80000
F80000
7C0000
7E0010
3FE3F0
3FFFF0
1FFFF0
07FFE0
00FC00
ENDCHAR
STARTCHAR 00EA
ENCODING 234
SWIDTH 486 0
DWIDTH 27 0
BBX 24 39 4 -1
BITMAP
000060
0000E0
0001F0
0003F8
0007F8
001F3C
003E1E
001C0E
001004
000000
000000
000000
003FF0
00FFFC
01FFFE
07FEFE
0FE01F
0F801F
1F001F
3E001F
3E001F
7C003E
7C007E
7801FC
FFFFF8
FFFFF0
FFFF80
FFF800
F00000
F00000
F80000
F80000
7C0000
7E0010
3FE3F0
3FFFF0
1FFFF0
07FFE0
00FC00
ENDCHAR
STARTCHAR 00EB
ENCODING 235
SWIDTH 486 0
DWIDTH 27 0
BBX 26 37 4 -1
BITMAP
000F0780
001F0FC0
001F0FC0
001F0F80
001E0F80
00000000
00000000
00000000
00000000
00000000
003FF000
00FFFC00
01FFFE00
07FEFE00
0FE01F00
0F801F00
1F001F00
3E001F00
3E001F00
7C003E00
7C007E00
7801FC00
FFFFF800
FFFFF000
FFFF8000
FFF80000
F0000000
F0000000
F8000000
F8000000
7C000000
7E001000
3FE3F000
3FFFF000
1FFFF000
07FFE000
00FC0000
ENDCHAR
STARTCHAR 00EC
ENCODING 236
SWIDTH 486 0
DWIDTH 27 0
BBX 16 38 8 0
BITMAP
0180
0380
07C0
03E0
01F0
00F8
0078
003C
0018
0000
0000
0000
FFF0
FFF0
FFF0
FFF0
01E0
01E0
03E0
03E0
03C0
03C0
07C0
07C0
0780
0780
0F80
0F80
0F80
0F00
0F00
0F00
0F80
0F80
0FFF
07FF
03FE
01FE
ENDCHAR
STARTCHAR 00ED
ENCODING 237
SWIDTH 486 0
DWIDTH 27 0
BBX 17 38 8 0
BITMAP
000300
000700
000F80
001F80
003F00
007C00
00F800
01F000
00C000
000000
000000
000000
FFF000
FFF000
FFF000
FFF000
01E000
01E000
03E000
03E000
03C000
03C000
07C000
07C000
078000
078000
0F8000
0F8000
0F8000
0F0000
0F0000
0F0000
0F8000
0F8000
0FFF00
07FF00
03FE00
01FE00
ENDCHAR
STARTCHAR 00EE
ENCODING 238
SWIDTH 486 0
DWIDTH 27 0
BBX 17 38 8 0
BITMAP
001000
003800
007C00
01FC00
03FE00
07DF00
0F8F00
0E0780
040200
000000
000000
000000
FFF000
FFF000
FFF000
FFF000
01E000
01E000
03E000
03E000
03C000
03C000
07C000
07C000
078000
078000
0F8000
0F8000
0F8000
0F0000
0F0000
0F0000
0F8000
0F8000
0FFF00
07FF00
03FE00
01FE00
ENDCHAR
STARTCHAR 00EF
ENCODING 239
SWIDTH 486 0
DWIDTH 27 0
BBX 19 36 8 0
BITMAP
0F83C0
0F87E0
1F87E0
1F87C0
0F07C0
000000
000000
000000
000000
000000
FFF000
FFF000
FFF000
FFF000
01E000
01E000
03E000
03E000
03C000
03C000
07C000
07C000
078000
078000
0F8000
0F8000
0F8000
0F0000
0F0000
0F0000
0F8000
0F8000
0FFF00
07FF00
03FE00
01FE00
ENDCHAR
STARTCHAR 00F0
ENCODING 240
SWIDTH 486 0
DWIDTH 27 0
BBX 27 39 4 0
BITMAP
00018000
0007C000
0007E000
0003F1E0
0001FFE0
0000FFE0
0003FF00
001FFC00
001FFC00
001E3E00
00103E00
00001E00
00001E00
00001F00
007FDF00
01FFFF00
03FFFF00
07FFFF00
0FC07F00
1F001F00
3E001F00
3E001E00
3C001E00
7C003E00
7C003E00
78003E00
78003C00
F8007C00
F8007C00
F800F800
F800F800
7801F000
7C03F000
7C07E000
3F1FC000
3FFF8000
1FFF0000
07FC0000
01E00000
ENDCHAR
STARTCHAR 00F1
ENCODING 241
SWIDTH 486 0
DWIDTH 27 0
BBX 24 37 4 0
BITMAP
000002
001F03
003FC7
007FFF
00F3FE
00E0FC
000000
000000
000000
000000
000000
00FFE0
07FFF8
07FFFC
07FFFE
07807E
0F803E
0F801E
0F801E
0F001E
1F001E
1F001E
1F003E
1E003E
3E003E
3E003C
3E007C
3C007C
3C007C
7C0078
7C0078
7800F8
7800F8
F800F0
F800F0
F001F0
F001F0
ENDCHAR
STARTCHAR 00F2
ENCODING 242
SWIDTH 486 0
DWIDTH 27 0
BBX 24 39 4 -1
BITMAP
000600
000F00
001F80
000FC0
0007C0
0003E0
0001F0
0000F8
000070
000020
000000
000000
003FF0
00FFF8
01FFFC
03FFFE
07E03E
0FC01F
1F801F
1F001F
3E001F
3E001F
3C001F
7C001F
7C001F
78001F
78001E
78003E
F8003E
F8007C
F8007C
7800F8
7C01F8
7E03F0
7FFFE0
3FFFC0
1FFF80
0FFE00
00C000
ENDCHAR
STARTCHAR 00F3
ENCODING 243
SWIDTH 486 0
DWIDTH 27 0
BBX 24 39 4 -1
BITMAP
000008
00001C
00003E
00007E
0000FC
0001F0
0003E0
0007C0
000300
000000
000000
000000
003FF0
00FFF8
01FFFC
03FFFE
07E03E
0FC01F
1F801F
1F001F
3E001F
3E001F
3C001F
7C001F
7C001F
78001F
78001E
78003E
F8003E
F8007C
F8007C
7800F8
7C01F8
7E03F0
7FFFE0
3FFFC0
1FFF80
0FFE00
00C000
ENDCHAR
STARTCHAR 00F4
ENCODING 244
SWIDTH 486 0
DWIDTH 27 0
BBX 24 39 4 -1
BITMAP
000060
0000E0
0001F0
0003F8
0007F8
001F3C
003E1E
001C0E
00100C
000000
000000
000000
003FF0
00FFF8
01FFFC
03FFFE
07E03E
0FC01F
1F801F
1F001F
3E001F
3E001F
3C001F
7C001F
7C001F
78001F
78001E
78003E
F8003E
F8007C
F8007C
7800F8
7C01F8
7E03F0
7FFFE0
3FFFC0
1FFF80
0FFE00
00C000
ENDCHAR
STARTCHAR 00F5
ENCODING 245
SWIDTH 486 0
DWIDTH 27 0
BBX 25 37 4 0
BITMAP
001F8380
003FE780
007FFF00
0071FE00
00607C00
00200000
00000000
00000000
00000000
00000000
003FF000
00FFF800
01FFFC00
03FFFE00
07E03E00
0FC01F00
1F801F00
1F001F00
3E001F00
3E001F00
3C001F00
7C001F00
7C001F00
78001F00
78001E00
78003E00
F8003E00
F8007C00
F8007C00
7800F800
7C01F800
7E03F000
7FFFE000
3FFFC000
1FFF8000
0FFE0000
00C00000
ENDCHAR
STARTCHAR 00F6
ENCODING 246
SWIDTH 486 0
DWIDTH 27 0
BBX 25 37 4 -1
BITMAP
001E0F00
003E1F80
003E1F80
003E1F80
003E0F00
00000000
00000000
00000000
00000000
00000000
003FF000
00FFF800
01FFFC00
03FFFE00
07E03E00
0FC01F00
1F801F00
1F001F00
3E001F00
3E001F00
3C001F00
7C001F00
7C001F00
78001F00
78001E00
78003E00
F8003E00
F8007C00
F8007C00
7800F800
7C01F800
7E03F000
7FFFE000
3FFFC000
1FFF8000
0FFE0000
00C00000
ENDCHAR
STARTCHAR 00F7
ENCODING 247
SWIDTH 486 0
DWIDTH 27 0
BBX 23 25 5 2
BITMAP
000F00
001F00
003F00
003F00
003F00
003E00
000C00
000000
000000
000000
7FFFFE
7FFFFE
FFFFFE
FFFFFC
000000
000000
000000
000000
007000
00F800
01F800
01F800
01F800
01F000
00E000
ENDCHAR
STARTCHAR 00F8
ENCODING 248
SWIDTH 486 0
DWIDTH 27 0
BBX 29 29 2 -2
BITMAP
00000020
00000070
000FFCF8
003FFFF0
007FFFE0
00FFFFC0
01F80F80
03F00FC0
07E01FC0
07C03FC0
0F807BC0
0F80F3C0
0F01E3C0
1F03C7C0
1F0787C0
1E0F07C0
1E1E0780
1E3C0F80
3E780F80
3EF01F00
3FE01F00
1FC03E00
1F807E00
1F00FC00
1FFFF800
3FFFF000
7FFFE000
F3FF8000
60300000
ENDCHAR
STARTCHAR 00F9
ENCODING 249
SWIDTH 486 0
DWIDTH 27 0
BBX 24 39 5 -1
BITMAP
001800
003800
007C00
003E00
001F00
000F80
000780
0003C0
000180
000000
000000
000000
1F001F
1F001E
1F003E
1E003E
1E003E
3E003C
3E003C
3C007C
3C007C
7C0078
7C0078
7800F8
7800F8
F800F0
F800F0
F001F0
F001F0
F001F0
F001E0
F001E0
F803E0
F80FE0
FE3FE0
7FFFE0
3FFDF0
1FF0F0
010000
ENDCHAR
STARTCHAR 00FA
ENCODING 250
SWIDTH 486 0
DWIDTH 27 0
BBX 24 39 5 -1
BITMAP
000030
000070
0000F8
0001F8
0003F0
0007C0
000F80
001F00
000C00
000000
000000
000000
1F001F
1F001E
1F003E
1E003E
1E003E
3E003C
3E003C
3C007C
3C007C
7C0078
7C0078
7800F8
7800F8
F800F0
F800F0
F001F0
F001F0
F001F0
F001E0
F001E0
F803E0
F80FE0
FE3FE0
7FFFE0
3FFDF0
1FF0F0
010000
ENDCHAR
STARTCHAR 00FB
ENCODING 251
SWIDTH 486 0
DWIDTH 27 0
BBX 24 39 5 -1
BITMAP
000180
000380
0007C0
000FE0
001FF0
003CF0
00F878
007038
004010
000000
000000
000000
1F001F
1F001E
1F003E
1E003E
1E003E
3E003C
3E003C
3C007C
3C007C
7C0078
7C0078
7800F8
7800F8
F800F0
F800F0
F001F0
F001F0
F001F0
F001E0
F001E0
F803E0
F80FE0
FE3FE0
7FFFE0
3FFDF0
1FF0F0
010000
ENDCHAR
STARTCHAR 00FC
ENCODING 252
SWIDTH 486 0
DWIDTH 27 0
BBX 24 37 5 -1
BITMAP
00F83C
00F87E
01F87E
01F87C
00F07C
000000
000000
000000
000000
000000
1F001F
1F001E
1F003E
1E003E
1E003E
3E003C
3E003C
3C007C
3C007C
7C0078
7C0078
7800F8
7800F8
F800F0
F800F0
F001F0
F001F0
F001F0
F001E0
F001E0
F803E0
F80FE0
FE3FE0
7FFFE0
3FFDF0
1FF0F0
010000
ENDCHAR
STARTCHAR 00FD
ENCODING 253
SWIDTH 486 0
DWIDTH 27 0
BBX 31 47 -1 -9
BITMAP
00000080
000001C0
000003E0
000007E0
00000FC0
00001F00
00003E00
00007C00
00003000
00000000
00000000
00000000
0078003E
0078003C
0078007C
0078007C
007C0078
007C00F8
007C00F8
007C00F0
007C01F0
007C01E0
003C03E0
003E03E0
003E03C0
003E07C0
003E0780
001E0F80
001E0F00
001F1F00
001F1E00
000F3E00
000F3C00
000FF800
000FF800
0007F000
0007F000
0007E000
0007C000
00078000
000F8000
001F0000
007E0000
7FFC0000
7FF80000
FFE00000
FF800000
ENDCHAR
STARTCHAR 00FE
ENCODING 254
SWIDTH 486 0
DWIDTH 27 0
BBX 27 47 1 -8
BITMAP
001F0000
001F0000
001E0000
003E0000
003E0000
003E0000
003C0000
003C0000
007C0000
007C0000
00780000
00780000
00FBFE00
00FFFF00
00FFFF80
00FFFFC0
01F807C0
01F003E0
01E003E0
01E003E0
03E003E0
03E003E0
03C003E0
03C003E0
07C003E0
07C003C0
07C007C0
078007C0
0F800F80
0F800F80
0F801F80
0F003F00
0F007E00
1F01FC00
1F9FF800
1FFFF000
1FFFC000
3FFF0000
3EC00000
3C000000
3C000000
7C000000
7C000000
78000000
78000000
F8000000
F8000000
ENDCHAR
STARTCHAR 00FF
ENCODING 255
SWIDTH 486 0
DWIDTH 27 0
BBX 31 45 -1 -9
BITMAP
0003E0F0
0003E1F0
0007E1F8
0007E1F0
0003C1F0
00000000
00000000
00000000
00000000
00000000
0078003E
0078003C
0078007C
0078007C
007C0078
007C00F8
007C00F8
007C00F0
007C01F0
007C01E0
003C03E0
003E03E0
003E03C0
003E07C0
003E0780
001E0F80
001E0F00
001F1F00
001F1E00
000F3E00
000F3C00
000FF800
000FF800
0007F000
0007F000
0007E000
0007C000
00078000
000F8000
001F0000
007E0000
7FFC0000
7FF80000
FFE00000
FF800000
ENDCHAR
STARTCHAR 0100
ENCODING 256
SWIDTH 486 0
DWIDTH 27 0
BBX 30 43 0 0
BITMAP
0000FFFC
0000FFF8
0001FFF8
0001FFF8
00000000
00000000
00000000
00000000
00000000
00003F00
00007F00
0000FF00
0000FF00
0001EF00
0001EF00
0003CF00
0007CF80
00078F80
000F0F80
000F0780
001E0780
001E0780
003C0780
007C0780
00780780
00F80780
00F00780
01F00780
01E00780
03C007C0
03FFFFC0
07FFFFC0
07FFFFC0
0FFFFFC0
0F0007C0
1E0007C0
1E0007C0
3C0007C0
3C0007C0
7C0007C0
780007C0
F80007C0
F00007C0
ENDCHAR
STARTCHAR 0101
ENCODING 257
SWIDTH 486 0
DWIDTH 27 0
BBX 26 36 4 -1
BITMAP
000FFFC0
001FFF80
001FFF80
00000000
00000000
00000000
00000000
00000000
00000000
000FFE00
007FFF00
00FFFF00
03FFFF00
07F01F00
0FC01E00
1F801E00
1F003E00
3E003E00
3E003C00
7C003C00
7C007C00
78007C00
F8007800
F8007800
F800F800
F800F800
F800F800
F800F000
F800F000
F801F000
7C03F000
7F0FF000
3FFFF000
3FFEF800
0FF87800
01800000
ENDCHAR
STARTCHAR 0102
ENCODING 258
SWIDTH 486 0
DWIDTH 27 0
BBX 30 45 0 0
BITMAP
0000701C
0000703C
00007038
000078F8
00007FF0
00003FE0
00000F80
00000000
00000000
00000000
00000000
00003F00
00007F00
0000FF00
0000FF00
0001EF00
0001EF00
0003CF00
0007CF80
00078F80
000F0F80
000F0780
001E0780
001E0780
003C0780
007C0780
00780780
00F80780
00F00780
01F00780
01E00780
03C007C0
03FFFFC0
07FFFFC0
07FFFFC0
0FFFFFC0
0F0007C0
1E0007C0
1E0007C0
3C0007C0
3C0007C0
7C0007C0
780007C0
F80007C0
F00007C0
ENDCHAR
STARTCHAR 0103
ENCODING 259
SWIDTH 486 0
DWIDTH 27 0
BBX 26 38 4 -1
BITMAP
000701C0
000703C0
00070780
0007FF80
0007FF00
0003FE00
00007000
00000000
00000000
00000000
00000000
000FFE00
007FFF00
00FFFF00
03FFFF00
07F01F00
0FC01E00
1F801E00
1F003E00
3E003E00
3E003C00
7C003C00
7C007C00
78007C00
F8007800
F8007800
F800F800
F800F800
F800F800
F800F000
F800F000
F801F000
7C03F000
7F0FF000
3FFFF000
3FFEF800
0FF87800
01800000
ENDCHAR
STARTCHAR 0104
ENCODING 260
SWIDTH 486 0
DWIDTH 27 0
BBX 26 43 0 -9
BITMAP
00003F00
00007F00
0000FF00
0000FF00
0001EF00
0001EF00
0003CF00
0007CF80
00078F80
000F0F80
000F0780
001E0780
001E0780
003C0780
007C0780
00780780
00F80780
00F00780
01F00780
01E00780
03C007C0
03FFFFC0
07FFFFC0
07FFFFC0
0FFFFFC0
0F0007C0
1E0007C0
1E0007C0
3C0007C0
3C0007C0
7C0007C0
780007C0
F80007C0
F00007C0
00000780
00000F00
00001E00
00003C00
00007800
00007800
00007F80
00007F80
00003F80
ENDCHAR
STARTCHAR 0105
ENCODING 261
SWIDTH 486 0
DWIDTH 27 0
BBX 24 35 4 -9
BITMAP
000FFE
007FFF
00FFFF
03FFFF
07F01F
0FC01E
1F801E
1F003E
3E003E
3E003C
7C003C
7C007C
78007C
F80078
F80078
F800F8
F800F8
F800F8
F800F0
F800F0
F801F0
7C03F0
7F0FF0
3FFFF0
3FFEF8
0FF878
0181F0
0003C0
000780
000F00
000F00
001F00
001FE0
000FE0
000FE0
ENDCHAR
STARTCHAR 0106
ENCODING 262
SWIDTH 486 0
DWIDTH 27 0
BBX 27 47 5 -1
BITMAP
00000200
00000600
00000F00
00003F80
00007E00
0000FC00
0001F800
0001E000
0001C000
00008000
00000000
0003FE00
001FFFC0
003FFFE0
007FFFC0
01FE03C0
03F80080
03E00000
07C00000
0F800000
0F800000
1F000000
1E000000
3E000000
3C000000
7C000000
7C000000
78000000
78000000
F8000000
F8000000
F8000000
F8000000
F8000000
F8000000
F8000000
F8000000
F8000000
F8000000
7C000000
7C000000
7F002000
3FC3F000
1FFFF000
0FFFF000
07FFC000
00FC0000
ENDCHAR
STARTCHAR 0107
ENCODING 263
SWIDTH 486 0
DWIDTH 27 0
BBX 24 39 4 -1
BITMAP
000006
00000E
00001F
00003F
00007E
0000F8
0001F0
0003E0
000180
000000
000000
000000
001FFF
007FFF
01FFFF
03FF7E
07F002
0FC000
1F8000
3F0000
3E0000
7C0000
7C0000
780000
F80000
F80000
F80000
F80000
F80000
F80000
F80000
F80000
7C0000
7E0010
3FC1F0
3FFFF0
0FFFF0
07FFE0
007E00
ENDCHAR
STARTCHAR 0108
ENCODING 264
SWIDTH 486 0
DWIDTH 27 0
BBX 27 47 5 -1
BITMAP
00000800
00001C00
00003C00
00007E00
0001FF00
0003EF00
0007C780
000703C0
00060180
00000000
00000000
0003FE00
001FFFC0
003FFFE0
007FFFC0
01FE03C0
03F80080
03E00000
07C00000
0F800000
0F800000
1F000000
1E000000
3E000000
3C000000
7C000000
7C000000
78000000
78000000
F8000000
F8000000
F8000000
F8000000
F8000000
F8000000
F8000000
F8000000
F8000000
F8000000
7C000000
7C000000
7F002000
3FC3F000
1FFFF000
0FFFF000
07FFC000
00FC0000
ENDCHAR
STARTCHAR 0109
ENCODING 265
SWIDTH 486 0
DWIDTH 27 0
BBX 24 39 4 -1
BITMAP
000020
000070
0000F8
0003F8
0007FC
000FBE
001F1E
001C0F
000804
000000
000000
000000
001FFF
007FFF
01FFFF
03FF7E
07F002
0FC000
1F8000
3F0000
3E0000
7C0000
7C0000
780000
F80000
F80000
F80000
F80000
F80000
F80000
F80000
F80000
7C0000
7E0010
3FC1F0
3FFFF0
0FFFF0
07FFE0
007E00
ENDCHAR
STARTCHAR 010A
ENCODING 266
SWIDTH 486 0
DWIDTH 27 0
BBX 27 45 5 -1
BITMAP
00007800
0000FC00
0000FC00
0000FC00
0000F800
00007000
00000000
00000000
00000000
0003FE00
001FFFC0
003FFFE0
007FFFC0
01FE03C0
03F80080
03E00000
07C00000
0F800000
0F800000
1F000000
1E000000
3E000000
3C000000
7C000000
7C000000
78000000
78000000
F8000000
F8000000
F8000000
F8000000
F8000000
F8000000
F8000000
F8000000
F8000000
F8000000
7C000000
7C000000
7F002000
3FC3F000
1FFFF000
0FFFF000
07FFC000
00FC0000
ENDCHAR
STARTCHAR 010B
ENCODING 267
SWIDTH 486 0
DWIDTH 27 0
BBX 24 37 4 0
BITMAP
0000F8
0000F8
0001F8
0001F8
0000F0
000020
000000
000000
000000
000000
001FFF
007FFF
01FFFF
03FF7E
07F002
0FC000
1F8000
3F0000
3E0000
7C0000
7C0000
780000
F80000
F80000
F80000
F80000
F80000
F80000
F80000
F80000
7C0000
7E0010
3FC1F0
3FFFF0
0FFFF0
07FFE0
007E00
ENDCHAR
STARTCHAR 010C
ENCODING 268
SWIDTH 486 0
DWIDTH 27 0
BBX 27 47 5 -1
BITMAP
00010080
000381C0
0003C3C0
0003EF80
0001FF00
0000FE00
0000FC00
00007000
00002000
00000000
00000000
0003FE00
001FFFC0
003FFFE0
007FFFC0
01FE03C0
03F80080
03E00000
07C00000
0F800000
0F800000
1F000000
1E000000
3E000000
3C000000
7C000000
7C000000
78000000
78000000
F8000000
F8000000
F8000000
F8000000
F8000000
F8000000
F8000000
F8000000
F8000000
F8000000
7C000000
7C000000
7F002000
3FC3F000
1FFFF000
0FFFF000
07FFC000
00FC0000
ENDCHAR
STARTCHAR 010D
ENCODING 269
SWIDTH 486 0
DWIDTH 27 0
BBX 25 39 4 -1
BITMAP
00060300
000F0780
000F8F80
0007BE00
0003FC00
0003F800
0001F000
0000E000
00004000
00000000
00000000
00000000
001FFF00
007FFF00
01FFFF00
03FF7E00
07F00200
0FC00000
1F800000
3F000000
3E000000
7C000000
7C000000
78000000
F8000000
F8000000
F8000000
F8000000
F8000000
F8000000
F8000000
F8000000
7C000000
7E001000
3FC1F000
3FFFF000
0FFFF000
07FFE000
007E0000
ENDCHAR
STARTCHAR 010E
ENCODING 270
SWIDTH 486 0
DWIDTH 27 0
BBX 27 46 2 0
BITMAP
00020080
00070380
000787C0
0003CF80
0003FE00
0001FC00
0000F800
00007000
00006000
00000000
00000000
000FC000
00FFF800
00FFFE00
01FFFF00
01F07F80
01E01F80
01E00FC0
03E007C0
03E003E0
03C003E0
03C003E0
07C003E0
07C003E0
07C003E0
078003E0
078003E0
0F8003E0
0F8003E0
0F0003C0
0F0003C0
1F0007C0
1F0007C0
1E000780
1E000F80
3E000F80
3E001F00
3C003E00
3C007E00
7C00FC00
7C01F800
7807F000
7FFFE000
FFFFC000
FFFF0000
FFF80000
ENDCHAR
STARTCHAR 010F
ENCODING 271
SWIDTH 486 0
DWIDTH 27 0
BBX 33 40 3 -1
BITMAP
0000000F80
00000F8F80
00000F8F00
00000F8F00
00000F1E00
00001F1E00
00001F1E00
00001F1C00
00001E1C00
00001E3C00
00003E3800
00003E3800
00003C0000
003FFC0000
00FFFC0000
01FFFC0000
03FFF80000
0FE0780000
0F80F80000
1F00F80000
3E00F00000
3E00F00000
7C01F00000
7C01F00000
7801E00000
F801E00000
F803E00000
F003E00000
F003C00000
F003C00000
F003C00000
F007C00000
F007C00000
F807C00000
F80FC00000
7C3FC00000
7FFFC00000
3FFBC00000
1FE3C00000
0300000000
ENDCHAR
STARTCHAR 0110
ENCODING 272
SWIDTH 486 0
DWIDTH 27 0
BBX 25 35 4 0
BITMAP
001F8000
00FFF000
01FFF800
01FFFC00
01F0FE00
01E03F00
01E01F00
03E01F00
03E00F80
03C00F80
03C00F80
07C00F80
07C00F80
07800F80
07800F80
FFF80F80
FFF80F80
FFF80F80
FFF80F00
1F000F00
1F001F00
1F001F00
1E001E00
3E003E00
3E003E00
3E007C00
3C00FC00
3C00F800
7C01F000
7C07F000
781FE000
7FFFC000
FFFF0000
FFFE0000
FFF00000
ENDCHAR
STARTCHAR 0111
ENCODING 273
SWIDTH 486 0
DWIDTH 27 0
BBX 30 39 4 0
BITMAP
000003E0
000003E0
000003C0
000003C0
000FFFFC
000FFFF8
000FFFF8
001FFFF8
00000780
00000F80
00000F80
00000F00
000FFF00
007FFF00
00FFFF00
03FFFE00
07F01E00
0FE03E00
0F803E00
1F003C00
3F003C00
3E007C00
3C007C00
7C007800
7C007800
7800F800
7800F800
7800F000
F800F000
F800F000
F801F000
7801F000
7C01F000
7C07F000
7F1FF000
3FFFF000
1FFEF000
0FF8F000
01800000
ENDCHAR
STARTCHAR 0112
ENCODING 274
SWIDTH 486 0
DWIDTH 27 0
BBX 27 43 4 0
BITMAP
0007FFE0
0007FFC0
000FFFC0
000FFFC0
00000000
00000000
00000000
00000000
00000000
00FFFFE0
00FFFFE0
00FFFFE0
01FFFFE0
01F00000
01E00000
01E00000
03E00000
03E00000
03C00000
03C00000
07C00000
07C00000
07800000
07FFFC00
0FFFFC00
0FFFFC00
0FFFF800
0F000000
1F000000
1F000000
1F000000
1E000000
3E000000
3E000000
3E000000
3C000000
3C000000
7C000000
7C000000
7FFFF800
7FFFF800
FFFFF800
FFFFF800
ENDCHAR
STARTCHAR 0113
ENCODING 275
SWIDTH 486 0
DWIDTH 27 0
BBX 25 36 4 -1
BITMAP
001FFF80
001FFF00
003FFF00
00000000
00000000
00000000
00000000
00000000
00000000
003FF000
00FFFC00
01FFFE00
07FEFE00
0FE01F00
0F801F00
1F001F00
3E001F00
3E001F00
7C003E00
7C007E00
7801FC00
FFFFF800
FFFFF000
FFFF8000
FFF80000
F0000000
F0000000
F8000000
F8000000
7C000000
7E001000
3FE3F000
3FFFF000
1FFFF000
07FFE000
00FC0000
ENDCHAR
STARTCHAR 0114
ENCODING 276
SWIDTH 486 0
DWIDTH 27 0
BBX 27 45 4 0
BITMAP
000380E0
000381E0
000381C0
0003C7C0
0003FF80
0001FF00
00007C00
00000000
00000000
00000000
00000000
00FFFFE0
00FFFFE0
00FFFFE0
01FFFFE0
01F00000
01E00000
01E00000
03E00000
03E00000
03C00000
03C00000
07C00000
07C00000
07800000
07FFFC00
0FFFFC00
0FFFFC00
0FFFF800
0F000000
1F000000
1F000000
1F000000
1E000000
3E000000
3E000000
3E000000
3C000000
3C000000
7C000000
7C000000
7FFFF800
7FFFF800
FFFFF800
FFFFF800
ENDCHAR
STARTCHAR 0115
ENCODING 277
SWIDTH 486 0
DWIDTH 27 0
BBX 25 38 4 -1
BITMAP
000E0380
000E0780
000E0700
000FFF00
0007FE00
0007FC00
0000F000
00000000
00000000
00000000
00000000
003FF000
00FFFC00
01FFFE00
07FEFE00
0FE01F00
0F801F00
1F001F00
3E001F00
3E001F00
7C003E00
7C007E00
7801FC00
FFFFF800
FFFFF000
FFFF8000
FFF80000
F0000000
F0000000
F8000000
F8000000
7C000000
7E001000
3FE3F000
3FFFF000
1FFFF000
07FFE000
00FC0000
ENDCHAR
STARTCHAR 0116
ENCODING 278
SWIDTH 486 0
DWIDTH 27 0
BBX 27 44 4 0
BITMAP
00007800
00007C00
0000FC00
0000FC00
00007C00
00003000
00000000
00000000
00000000
00000000
00FFFFE0
00FFFFE0
00FFFFE0
01FFFFE0
01F00000
01E00000
01E00000
03E00000
03E00000
03C00000
03C00000
07C00000
07C00000
07800000
07FFFC00
0FFFFC00
0FFFFC00
0FFFF800
0F000000
1F000000
1F000000
1F000000
1E000000
3E000000
3E000000
3E000000
3C000000
3C000000
7C000000
7C000000
7FFFF800
7FFFF800
FFFFF800
FFFFF800
ENDCHAR
STARTCHAR 0117
ENCODING 279
SWIDTH 486 0
DWIDTH 27 0
BBX 24 37 4 0
BITMAP
0001F0
0001F0
0003F0
0003F0
0001E0
000000
000000
000000
000000
000000
003FF0
00FFFC
01FFFE
07FEFE
0FE01F
0F801F
1F001F
3E001F
3E001F
7C003E
7C007E
7801FC
FFFFF8
FFFFF0
FFFF80
FFF800
F00000
F00000
F80000
F80000
7C0000
7E0010
3FE3F0
3FFFF0
1FFFF0
07FFE0
00FC00
ENDCHAR
STARTCHAR 0118
ENCODING 280
SWIDTH 486 0
DWIDTH 27 0
BBX 27 43 4 -9
BITMAP
00FFFFE0
00FFFFE0
00FFFFE0
01FFFFE0
01F00000
01E00000
01E00000
03E00000
03E00000
03C00000
03C00000
07C00000
07C00000
07800000
07FFFC00
0FFFFC00
0FFFFC00
0FFFF800
0F000000
1F000000
1F000000
1F000000
1E000000
3E000000
3E000000
3E000000
3C000000
3C000000
7C000000
7C000000
7FFFF800
7FFFF800
FFFFF800
FFFFF800
0001F000
0003C000
00078000
000F0000
001E0000
001E0000
001FE000
001FE000
000FE000
ENDCHAR
STARTCHAR 0119
ENCODING 281
SWIDTH 486 0
DWIDTH 27 0
BBX 24 35 4 -9
BITMAP
003FF0
00FFFC
01FFFE
07FEFE
0FE01F
0F801F
1F001F
3E001F
3E001F
7C003E
7C007E
7801FC
FFFFF8
FFFFF0
FFFF80
FFF800
F00000
F00000
F80000
F80000
7C0000
7E0010
3FE3F0
3FFFF0
1FFFF0
07FFE0
00FFC0
000F00
001E00
003C00
003C00
007C00
007F80
007F80
003F80
ENDCHAR
STARTCHAR 011A
ENCODING 282
SWIDTH 486 0
DWIDTH 27 0
BBX 27 46 4 0
BITMAP
00010040
000381C0
0003C3E0
0001E7C0
0001FF00
0000FE00
00007C00
00003800
00003000
00000000
00000000
00000000
00FFFFE0
00FFFFE0
00FFFFE0
01FFFFE0
01F00000
01E00000
01E00000
03E00000
03E00000
03C00000
03C00000
07C00000
07C00000
07800000
07FFFC00
0FFFFC00
0FFFFC00
0FFFF800
0F000000
1F000000
1F000000
1F000000
1E000000
3E000000
3E000000
3E000000
3C000000
3C000000
7C000000
7C000000
7FFFF800
7FFFF800
FFFFF800
FFFFF800
ENDCHAR
STARTCHAR 011B
ENCODING 283
SWIDTH 486 0
DWIDTH 27 0
BBX 24 39 4 -1
BITMAP
000C02
001E07
000F1F
0007BE
0007FC
0003F8
0001E0
0001C0
000080
000000
000000
000000
003FF0
00FFFC
01FFFE
07FEFE
0FE01F
0F801F
1F001F
3E001F
3E001F
7C003E
7C007E
7801FC
FFFFF8
FFFFF0
FFFF80
FFF800
F00000
F00000
F80000
F80000
7C0000
7E0010
3FE3F0
3FFFF0
1FFFF0
07FFE0
00FC00
ENDCHAR
STARTCHAR 011C
ENCODING 284
SWIDTH 486 0
DWIDTH 27 0
BBX 27 47 4 -1
BITMAP
00000800
00001C00
00003C00
00007E00
0001FF00
0003EF00
0007C780
000783C0
00020180
00000000
00000000
0003FF00
000FFFC0
003FFFE0
007FFFC0
00FE03C0
01F80080
03F00000
07E00000
07C00000
0F800000
0F000000
1F000000
1E000000
3E000000
3C000000
3C000000
7C000000
7C000000
78001F00
78001E00
78001E00
78003E00
F8003E00
F8003C00
F8003C00
F8007C00
78007C00
7C007C00
7C007800
7E00F800
3F00F800
3FC1F800
1FFFF000
0FFFF000
03FFE000
00FC0000
ENDCHAR
STARTCHAR 011D
ENCODING 285
SWIDTH 486 0
DWIDTH 27 0
BBX 28 47 1 -9
BITMAP
00000600
00000E00
00001F00
00003F80
00007FC0
0000FBC0
0003E1E0
0001C0E0
00010040
00000000
00000000
00000000
0001FFF0
0007FFF0
001FFFF0
003FFFF0
007F01F0
00FC01E0
01F801E0
03F003E0
03E003E0
07C003C0
07C003C0
078007C0
0F8007C0
0F800780
0F000780
0F000F80
0F000F80
0F000F00
0F800F00
0F801F00
0FC07F00
07FFFE00
07FFFE00
01FFFE00
007E3E00
00003C00
00003C00
00007C00
0000F800
0001F800
7003F000
7FFFE000
7FFFC000
FFFF8000
1FFC0000
ENDCHAR
STARTCHAR 011E
ENCODING 286
SWIDTH 486 0
DWIDTH 27 0
BBX 27 46 4 -1
BITMAP
000380E0
000381E0
000381C0
0003C7C0
0003FF80
0001FF00
00007C00
00000000
00000000
00000000
0003FF00
000FFFC0
003FFFE0
007FFFC0
00FE03C0
01F80080
03F00000
07E00000
07C00000
0F800000
0F000000
1F000000
1E000000
3E000000
3C000000
3C000000
7C000000
7C000000
78001F00
78001E00
78001E00
78003E00
F8003E00
F8003C00
F8003C00
F8007C00
78007C00
7C007C00
7C007800
7E00F800
3F00F800
3FC1F800
1FFFF000
0FFFF000
03FFE000
00FC0000
ENDCHAR
STARTCHAR 011F
ENCODING 287
SWIDTH 486 0
DWIDTH 27 0
BBX 29 46 1 -9
BITMAP
0001C078
0001C070
0001E0F0
0000FFE0
0000FFE0
00007F80
00000C00
00000000
00000000
00000000
00000000
0001FFF0
0007FFF0
001FFFF0
003FFFF0
007F01F0
00FC01E0
01F801E0
03F003E0
03E003E0
07C003C0
07C003C0
078007C0
0F8007C0
0F800780
0F000780
0F000F80
0F000F80
0F000F00
0F800F00
0F801F00
0FC07F00
07FFFE00
07FFFE00
01FFFE00
007E3E00
00003C00
00003C00
00007C00
0000F800
0001F800
7003F000
7FFFE000
7FFFC000
FFFF8000
1FFC0000
ENDCHAR
STARTCHAR 0120
ENCODING 288
SWIDTH 486 0
DWIDTH 27 0
BBX 27 45 4 -1
BITMAP
00007800
00007C00
0000FC00
0000FC00
00007C00
00003000
00000000
00000000
00000000
0003FF00
000FFFC0
003FFFE0
007FFFC0
00FE03C0
01F80080
03F00000
07E00000
07C00000
0F800000
0F000000
1F000000
1E000000
3E000000
3C000000
3C000000
7C000000
7C000000
78001F00
78001E00
78001E00
78003E00
F8003E00
F8003C00
F8003C00
F8007C00
78007C00
7C007C00
7C007800
7E00F800
3F00F800
3FC1F800
1FFFF000
0FFFF000
03FFE000
00FC0000
ENDCHAR
STARTCHAR 0121
ENCODING 289
SWIDTH 486 0
DWIDTH 27 0
BBX 28 45 1 -8
BITMAP
00001F00
00001F00
00003F00
00003F00
00001E00
00000400
00000000
00000000
00000000
00000000
0001FFF0
0007FFF0
001FFFF0
003FFFF0
007F01F0
00FC01E0
01F801E0
03F003E0
03E003E0
07C003C0
07C003C0
078007C0
0F8007C0
0F800780
0F000780
0F000F80
0F000F80
0F000F00
0F800F00
0F801F00
0FC07F00
07FFFE00
07FFFE00
01FFFE00
007E3E00
00003C00
00003C00
00007C00
0000F800
0001F800
7003F000
7FFFE000
7FFFC000
FFFF8000
1FFC0000
ENDCHAR
STARTCHAR 0122
ENCODING 290
SWIDTH 486 0
DWIDTH 27 0
BBX 27 44 4 -9
BITMAP
0003FF00
000FFFC0
003FFFE0
007FFFC0
00FE03C0
01F80080
03F00000
07E00000
07C00000
0F800000
0F000000
1F000000
1E000000
3E000000
3C000000
3C000000
7C000000
7C000000
78001F00
78001E00
78001E00
78003E00
F8003E00
F8003C00
F8003C00
F8007C00
78007C00
7C007C00
7C007800
7E00F800
3F00F800
3FC1F800
1FFFF000
0FFFF000
03FFE000
00FC0000
00000000
00F00000
01F00000
01F00000
03E00000
1FE00000
1FC00000
3F000000
ENDCHAR
STARTCHAR 0123
ENCODING 291
SWIDTH 486 0
DWIDTH 27 0
BBX 28 48 1 -9
BITMAP
00000040
000001E0
000003F0
000007C0
00000F80
00000F00
00001F00
00001F00
00001F00
00000000
00000000
00000000
00000000
0001FFF0
0007FFF0
001FFFF0
003FFFF0
007F01F0
00FC01E0
01F801E0
03F003E0
03E003E0
07C003C0
07C003C0
078007C0
0F8007C0
0F800780
0F000780
0F000F80
0F000F80
0F000F00
0F800F00
0F801F00
0FC07F00
07FFFE00
07FFFE00
01FFFE00
007E3E00
00003C00
00003C00
00007C00
0000F800
0001F800
7003F000
7FFFE000
7FFFC000
FFFF8000
1FFC0000
ENDCHAR
STARTCHAR 0124
ENCODING 292
SWIDTH 486 0
DWIDTH 27 0
BBX 30 46 2 0
BITMAP
00000400
00000E00
00001E00
00003F00
0000FF80
0001F780
0003E3C0
0003C1E0
000100C0
00000000
00000000
00000000
00F8007C
00F0007C
00F00078
01F00078
01F000F8
01E000F8
01E000F0
03E000F0
03E001F0
03C001F0
03C001E0
07C001E0
07C003E0
078003E0
07FFFFC0
0FFFFFC0
0FFFFFC0
0FFFFFC0
0F0007C0
1F000780
1F000F80
1F000F80
1E000F80
3E000F00
3E001F00
3E001F00
3C001F00
3C001E00
7C001E00
7C003E00
78003E00
78003C00
F8003C00
F8007C00
ENDCHAR
STARTCHAR 0125
ENCODING 293
SWIDTH 486 0
DWIDTH 27 0
BBX 23 46 3 0
BITMAP
000300
000700
001F80
003FC0
007DE0
0070E0
004060
000000
003800
00F800
00F800
00F000
00F000
01F000
01F000
01E000
01E000
03E000
03E000
03C000
03FFE0
07FFF8
07FFFC
07FFFE
07807E
0F803E
0F801E
0F801E
0F001E
1F001E
1F001E
1F003E
1E003E
3E003E
3E003C
3E007C
3C007C
3C007C
7C0078
7C00F8
7800F8
7800F8
F800F0
F800F0
F001F0
F001F0
ENDCHAR
STARTCHAR 0126
ENCODING 294
SWIDTH 486 0
DWIDTH 27 0
BBX 29 34 4 0
BITMAP
01F003C0
01F003C0
01F007C0
01E007C0
01E00780
1FFFFFF8
3FFFFFF0
3FFFFFF0
03C00F00
07C00F00
07C01F00
07801F00
07801E00
0F801E00
0FFFFE00
0FFFFE00
0FFFFC00
1FFFFC00
1F007C00
1E007C00
1E007C00
3E007800
3E00F800
3E00F800
3C00F800
3C00F000
7C00F000
7C01F000
7801F000
7801E000
F801E000
F803E000
F003E000
F003C000
ENDCHAR
STARTCHAR 0127
ENCODING 295
SWIDTH 486 0
DWIDTH 27 0
BBX 22 38 5 1
BITMAP
00F800
00F800
00F800
00F000
0FFFF0
0FFFF0
1FFFF0
1FFFE0
01E000
03E000
03E000
03C000
03FFE0
07FFF0
07FFF8
07FFFC
0780FC
0F807C
0F803C
0F003C
0F003C
1F003C
1F003C
1F007C
1E007C
3E007C
3E0078
3E00F8
3C00F8
7C00F8
7C00F0
7C01F0
7801F0
7801F0
F801E0
F801E0
F003E0
F003E0
ENDCHAR
STARTCHAR 0128
ENCODING 296
SWIDTH 486 0
DWIDTH 27 0
BBX 27 44 4 0
BITMAP
0007C0C0
000FF1E0
001FFFC0
003FFF80
00383F00
00100000
00000000
00000000
00000000
00000000
00FFFFC0
00FFFFC0
00FFFF80
01FFFF80
0003C000
0007C000
0007C000
0007C000
00078000
000F8000
000F8000
000F8000
000F0000
001F0000
001F0000
001F0000
001E0000
001E0000
003E0000
003E0000
003C0000
003C0000
007C0000
007C0000
00780000
00780000
00F80000
00F80000
00F00000
00F00000
7FFFE000
7FFFC000
FFFFC000
FFFFC000
ENDCHAR
STARTCHAR 0129
ENCODING 297
SWIDTH 486 0
DWIDTH 27 0
BBX 20 37 8 0
BITMAP
000040
03E060
07F8F0
0FFFE0
1E7FC0
1C1F80
000000
000000
000000
000000
000000
FFF000
FFF000
FFF000
FFF000
01E000
01E000
03E000
03E000
03C000
03C000
07C000
07C000
078000
078000
0F8000
0F8000
0F8000
0F0000
0F0000
0F0000
0F8000
0F8000
0FFF00
07FF00
03FE00
01FE00
ENDCHAR
STARTCHAR 012A
ENCODING 298
SWIDTH 486 0
DWIDTH 27 0
BBX 26 43 4 0
BITMAP
000FFFC0
000FFFC0
000FFFC0
000FFF80
00000000
00000000
00000000
00000000
00000000
00FFFFC0
00FFFFC0
00FFFF80
01FFFF80
0003C000
0007C000
0007C000
0007C000
00078000
000F8000
000F8000
000F8000
000F0000
001F0000
001F0000
001F0000
001E0000
001E0000
003E0000
003E0000
003C0000
003C0000
007C0000
007C0000
00780000
00780000
00F80000
00F80000
00F00000
00F00000
7FFFE000
7FFFC000
FFFFC000
FFFFC000
ENDCHAR
STARTCHAR 012B
ENCODING 299
SWIDTH 486 0
DWIDTH 27 0
BBX 19 35 8 0
BITMAP
07FFE0
07FFC0
0FFFC0
000000
000000
000000
000000
000000
000000
FFF000
FFF000
FFF000
FFF000
01E000
01E000
03E000
03E000
03C000
03C000
07C000
07C000
078000
078000
0F8000
0F8000
0F8000
0F0000
0F0000
0F0000
0F8000
0F8000
0FFF00
07FF00
03FE00
01FE00
ENDCHAR
STARTCHAR 012C
ENCODING 300
SWIDTH 486 0
DWIDTH 27 0
BBX 26 45 4 0
BITMAP
000701C0
000703C0
00070380
00078F80
0007FF00
0003FE00
0000F800
00000000
00000000
00000000
00000000
00FFFFC0
00FFFFC0
00FFFF80
01FFFF80
0003C000
0007C000
0007C000
0007C000
00078000
000F8000
000F8000
000F8000
000F0000
001F0000
001F0000
001F0000
001E0000
001E0000
003E0000
003E0000
003C0000
003C0000
007C0000
007C0000
00780000
00780000
00F80000
00F80000
00F00000
00F00000
7FFFE000
7FFFC000
FFFFC000
FFFFC000
ENDCHAR
STARTCHAR 012D
ENCODING 301
SWIDTH 486 0
DWIDTH 27 0
BBX 19 37 8 0
BITMAP
0380E0
0381E0
0383C0
03FFC0
01FF80
01FF00
003C00
000000
000000
000000
000000
FFF000
FFF000
FFF000
FFF000
01E000
01E000
03E000
03E000
03C000
03C000
07C000
07C000
078000
078000
0F8000
0F8000
0F8000
0F0000
0F0000
0F0000
0F8000
0F8000
0FFF00
07FF00
03FE00
01FE00
ENDCHAR
STARTCHAR 012E
ENCODING 302
SWIDTH 486 0
DWIDTH 27 0
BBX 26 43 4 -9
BITMAP
00FFFFC0
00FFFFC0
00FFFF80
01FFFF80
0003C000
0007C000
0007C000
0007C000
00078000
000F8000
000F8000
000F8000
000F0000
001F0000
001F0000
001F0000
001E0000
001E0000
003E0000
003E0000
003C0000
003C0000
007C0000
007C0000
00780000
00780000
00F80000
00F80000
00F00000
00F00000
7FFFE000
7FFFC000
FFFFC000
FFFFC000
03C00000
07800000
0F000000
1E000000
3C000000
3C000000
3FC00000
3FC00000
1FC00000
ENDCHAR
STARTCHAR 012F
ENCODING 303
SWIDTH 486 0
DWIDTH 27 0
BBX 16 46 8 -9
BITMAP
0078
00FC
01FC
01FC
01FC
01FC
00F8
0000
0000
0000
0000
FFF0
FFF0
FFF0
FFF0
01E0
01E0
03E0
03E0
03C0
03C0
07C0
07C0
0780
0780
0F80
0F80
0F80
0F00
0F00
0F00
0F80
0F80
0FFF
07FF
03FE
01FE
003C
00F8
01F0
01E0
03C0
03C0
03FC
03FC
01F8
ENDCHAR
STARTCHAR 0130
ENCODING 304
SWIDTH 486 0
DWIDTH 27 0
BBX 26 44 4 0
BITMAP
0000F000
0000F800
0001F800
0001F800
0000F800
00006000
00000000
00000000
00000000
00000000
00FFFFC0
00FFFFC0
00FFFF80
01FFFF80
0003C000
0007C000
0007C000
0007C000
00078000
000F8000
000F8000
000F8000
000F0000
001F0000
001F0000
001F0000
001E0000
001E0000
003E0000
003E0000
003C0000
003C0000
007C0000
007C0000
00780000
00780000
00F80000
00F80000
00F00000
00F00000
7FFFE000
7FFFC000
FFFFC000
FFFFC000
ENDCHAR
STARTCHAR 0131
ENCODING 305
SWIDTH 486 0
DWIDTH 27 0
BBX 16 26 8 0
BITMAP
FFF0
FFF0
FFF0
FFF0
01E0
01E0
03E0
03E0
03C0
03C0
07C0
07C0
0780
0780
0F80
0F80
0F80
0F00
0F00
0F00
0F80
0F80
0FFF
07FF
03FE
01FE
ENDCHAR
STARTCHAR 0132
ENCODING 306
SWIDTH 486 0
DWIDTH 27 0
BBX 32 35 1 -1
BITMAP
00F8001F
00F0001F
00F0001E
01F0001E
01F0003E
01E0003E
01E0003E
03E0003C
03E0007C
03E0007C
03C0007C
07C00078
07C000F8
07C000F8
078000F8
078000F0
0F8001F0
0F8001F0
0F0001F0
0F0001E0
1F0001E0
1F0003E0
1E0003E0
1E0003C0
3E0003C0
3E0007C0
3C0007C0
3C000780
7C000F80
7C301F00
7C7C7F00
78FFFE00
787FFC00
F83FF800
00078000
ENDCHAR
STARTCHAR 0133
ENCODING 307
SWIDTH 486 0
DWIDTH 27 0
BBX 25 46 5 -9
BITMAP
00700700
00F81F80
01FC1F80
01FC1F80
01FC1F80
00F81F00
00700E00
00000000
00000000
00000000
00000000
03E03C00
03E03C00
03E07C00
03C07C00
03C07800
07C07800
07C0F800
0780F800
0780F000
0F80F000
0F81F000
0F01F000
0F01F000
1F01E000
1F03E000
1E03E000
1E03E000
3E03C000
3E03C000
3E07C000
3C07C000
7C078000
7C078000
7C0F8000
780F8000
F80F0000
000F0000
001F0000
001E0000
003E0000
007E0000
1FFC0000
1FF80000
1FF00000
3FE00000
ENDCHAR
STARTCHAR 0134
ENCODING 308
SWIDTH 486 0
DWIDTH 27 0
BBX 27 47 4 -1
BITMAP
00000400
00000E00
00001E00
00003F00
0000FF80
0001F780
0003E3C0
000381E0
000300C0
00000000
00000000
00000000
003FFFE0
003FFFC0
003FFFC0
003FFFC0
000007C0
00000780
00000780
00000F80
00000F80
00000F00
00000F00
00001F00
00001F00
00001E00
00001E00
00003E00
00003E00
00003E00
00003C00
00007C00
00007C00
00007C00
00007800
0000F800
0000F800
0000F800
0001F000
0001F000
2003E000
7007E000
FE3FC000
FFFF8000
7FFF0000
1FFE0000
03E00000
ENDCHAR
STARTCHAR 0135
ENCODING 309
SWIDTH 486 0
DWIDTH 27 0
BBX 26 47 1 -9
BITMAP
00000400
00000E00
00003E00
00007F00
0000FF80
0001F7C0
0003E3C0
000381C0
00010080
00000000
00000000
00000000
003FFF80
003FFF80
003FFF80
003FFF80
00000F00
00000F00
00001F00
00001F00
00001F00
00001E00
00003E00
00003E00
00003E00
00003C00
00003C00
00007C00
00007C00
00007800
00007800
0000F800
0000F800
0000F000
0000F000
0001F000
0001F000
0001E000
0001E000
0003E000
0003C000
0007C000
700FC000
7FFF8000
7FFF0000
FFFE0000
1FF80000
ENDCHAR
STARTCHAR 0136
ENCODING 310
SWIDTH 486 0
DWIDTH 27 0
BBX 29 43 3 -9
BITMAP
01F001F8
01F003F0
01F007E0
01E00FC0
01E01F80
03E03F00
03E07E00
03C0FC00
03C1F800
07C3F000
07C7E000
078FC000
079F8000
0FBF0000
0FFE0000
0FF80000
0FF80000
1FFC0000
1F7E0000
1F3E0000
1E1F0000
3E0F8000
3E0F8000
3E07C000
3C03E000
3C03E000
7C01F000
7C01F000
7800F800
7800F800
F8007C00
F8007C00
F0007C00
F0003E00
00000000
00000000
00F00000
01F00000
01F00000
03E00000
1FE00000
1FC00000
3F000000
ENDCHAR
STARTCHAR 0137
ENCODING 311
SWIDTH 486 0
DWIDTH 27 0
BBX 26 47 4 -8
BITMAP
00F80000
00F80000
00F80000
00F00000
00F00000
01F00000
01F00000
01E00000
01E00000
03E00000
03E00000
03C00000
03C007C0
07C01F80
07C03F00
07807E00
0780FC00
0F83F000
0F87E000
0F0FC000
0F1F8000
1F7E0000
1FFC0000
1FF80000
1FF80000
3EFC0000
3E7C0000
3E3E0000
3C1F0000
3C1F8000
7C0F8000
7C07C000
7807E000
7803E000
F801F000
F801F000
F000F800
F000F800
00000000
00000000
00F00000
01F00000
01F00000
03E00000
1FE00000
1FC00000
3F000000
ENDCHAR
STARTCHAR 0138
ENCODING 312
SWIDTH 486 0
DWIDTH 27 0
BBX 26 26 4 0
BITMAP
03C007C0
07C01F80
07C03F00
07807E00
0780FC00
0F81F000
0F87E000
0F8FC000
0F1F8000
1F7E0000
1FFC0000
1FF80000
1FF00000
3EF80000
3E7C0000
3E3E0000
3C1F0000
3C1F8000
7C0FC000
7C07C000
7807E000
7803E000
F801F000
F801F000
F000F800
F000F800
ENDCHAR
STARTCHAR 0139
ENCODING 313
SWIDTH 486 0
DWIDTH 27 0
BBX 20 46 3 0
BITMAP
000040
0000E0
0001F0
0003F0
0007E0
000FC0
001F00
003E00
001C00
000000
000000
000000
00F800
00F000
00F000
01F000
01F000
01E000
01E000
03E000
03E000
03C000
03C000
07C000
07C000
07C000
078000
0F8000
0F8000
0F8000
0F0000
1F0000
1F0000
1F0000
1E0000
1E0000
3E0000
3E0000
3C0000
3C0000
7C0000
7C0000
7FFFF0
7FFFF0
FFFFF0
FFFFF0
ENDCHAR
STARTCHAR 013A
ENCODING 314
SWIDTH 486 0
DWIDTH 27 0
BBX 15 47 10 -1
BITMAP
0006
001E
007E
01FE
03F8
01C0
0000
0000
7FF8
FFF8
FFF0
FFF0
01F0
01F0
01E0
03E0
03E0
03E0
03C0
03C0
07C0
07C0
0780
0780
0F80
0F80
0F00
0F00
1F00
1F00
1E00
1E00
3E00
3E00
3C00
3C00
7C00
7C00
7C00
7C00
7C00
7C00
7E1C
3FFC
3FFE
1FFC
01C0
ENDCHAR
STARTCHAR 013B
ENCODING 315
SWIDTH 486 0
DWIDTH 27 0
BBX 20 43 3 -9
BITMAP
00F800
00F000
00F000
01F000
01F000
01E000
01E000
03E000
03E000
03C000
03C000
07C000
07C000
07C000
078000
0F8000
0F8000
0F8000
0F0000
1F0000
1F0000
1F0000
1E0000
1E0000
3E0000
3E0000
3C0000
3C0000
7C0000
7C0000
7FFFF0
7FFFF0
FFFFF0
FFFFF0
000000
000000
007800
00F800
00F800
01F000
0FF000
0FE000
1F8000
ENDCHAR
STARTCHAR 013C
ENCODING 316
SWIDTH 486 0
DWIDTH 27 0
BBX 16 47 9 -9
BITMAP
3FFC
7FF8
7FF8
7FF8
00F8
00F8
00F0
01F0
01F0
01F0
01E0
03E0
03E0
03E0
03C0
03C0
07C0
07C0
0780
0780
0F80
0F80
0F00
0F00
1F00
1F00
1E00
1E00
3E00
3E00
3E00
3E00
3E00
3E00
3F0E
1FFE
1FFF
0FFE
00E0
0000
03C0
07C0
07C0
0F80
7F80
7F00
FC00
ENDCHAR
STARTCHAR 013D
ENCODING 317
SWIDTH 486 0
DWIDTH 27 0
BBX 22 35 3 0
BITMAP
00007C
00F878
00F078
00F078
01F0F0
01F0F0
01E0F0
01E0E0
03E1E0
03E1C0
03C1C0
03C1C0
07C000
07C000
07C000
078000
0F8000
0F8000
0F8000
0F0000
1F0000
1F0000
1F0000
1E0000
1E0000
3E0000
3E0000
3C0000
3C0000
7C0000
7C0000
7FFFF0
7FFFF0
FFFFF0
FFFFF0
ENDCHAR
STARTCHAR 013E
ENCODING 318
SWIDTH 486 0
DWIDTH 27 0
BBX 21 40 10 -1
BITMAP
000078
7FF878
FFF0F8
FFF0F0
FFF0F0
01F0E0
01F1E0
01E1E0
03E1C0
03E1C0
03E3C0
03C380
07C000
07C000
07C000
078000
078000
0F8000
0F8000
0F0000
0F0000
1F0000
1F0000
1E0000
1E0000
3E0000
3E0000
3C0000
3C0000
7C0000
7C0000
7C0000
7C0000
7C0000
7C0000
7E1C00
3FFC00
3FFE00
1FFC00
01C000
ENDCHAR
STARTCHAR 013F
ENCODING 319
SWIDTH 486 0
DWIDTH 27 0
BBX 22 34 3 0
BITMAP
00F800
00F000
00F000
01F000
01F000
01E000
01E000
03E000
03E000
03C000
03C000
07C000
07C000
07C038
07807C
0F80FC
0F80FC
0F807C
0F0078
1F0000
1F0000
1F0000
1E0000
1E0000
3E0000
3E0000
3C0000
3C0000
7C0000
7C0000
7FFFF0
7FFFF0
FFFFF0
FFFFF0
ENDCHAR
STARTCHAR 0140
ENCODING 320
SWIDTH 486 0
DWIDTH 27 0
BBX 22 39 10 -1
BITMAP
7FF800
FFF000
FFF000
FFF000
01F000
01F000
01E000
03E000
03E000
03E000
03C000
07C000
07C000
07C000
078000
078000
0F8000
0F8038
0F007C
0F00FC
1F00FC
1F00FC
1E0078
1E0000
3E0000
3E0000
3C0000
3C0000
7C0000
7C0000
7C0000
7C0000
7C0000
7C0000
7E1C00
3FFC00
3FFE00
1FFC00
01C000
ENDCHAR
STARTCHAR 0141
ENCODING 321
SWIDTH 486 0
DWIDTH 27 0
BBX 20 34 3 0
BITMAP
007800
00F800
00F800
00F800
00F000
01F000
01F000
01F000
01E000
03E000
03E000
03E180
03C780
03DF80
07FF00
07FC00
1FF000
7FC000
FF8000
FF8000
EF0000
8F0000
1F0000
1F0000
1E0000
1E0000
3E0000
3E0000
3E0000
3C0000
7FFFF0
7FFFF0
7FFFF0
7FFFF0
ENDCHAR
STARTCHAR 0142
ENCODING 322
SWIDTH 486 0
DWIDTH 27 0
BBX 16 39 9 -1
BITMAP
3FFC
7FF8
7FF8
7FF8
00F8
00F8
00F0
01F0
01F0
01F0
01E0
03E0
03E0
03E4
03DC
03FE
07FE
0FF8
3FE0
FF80
FF80
EF80
0F00
0F00
1F00
1F00
1E00
1E00
3E00
3E00
3E00
3E00
3E00
3E00
3F0E
1FFE
1FFF
0FFE
00E0
ENDCHAR
STARTCHAR 0143
ENCODING 323
SWIDTH 486 0
DWIDTH 27 0
BBX 30 46 2 0
BITMAP
00000080
000001C0
000003E0
000007E0
00000FC0
00001F80
00003E00
00007C00
00003800
00000000
00000000
00000000
00F8003C
00FC003C
00FC0078
00FC0078
01FC0078
01FE0078
01FE00F8
01FE00F0
03CF00F0
03CF00F0
03CF01F0
03C701E0
078781E0
078781E0
078783E0
078383C0
0F83C3C0
0F03C3C0
0F03C3C0
0F01C780
1F01C780
1E01E780
1E01E780
1E01EF00
3E00EF00
3C00EF00
3C00FF00
3C00FE00
3C00FE00
78007E00
78007E00
78007E00
78007C00
F8007C00
ENDCHAR
STARTCHAR 0144
ENCODING 324
SWIDTH 486 0
DWIDTH 27 0
BBX 23 38 4 0
BITMAP
000008
00001C
00003E
00007E
0000FC
0001F0
0003E0
0007C0
000300
000000
000000
000000
00FFE0
07FFF8
07FFFC
07FFFE
07807E
0F803E
0F801E
0F801E
0F001E
1F001E
1F001E
1F003E
1E003E
3E003E
3E003C
3E007C
3C007C
3C007C
7C0078
7C0078
7800F8
7800F8
F800F0
F800F0
F001F0
F001F0
ENDCHAR
STARTCHAR 0145
ENCODING 325
SWIDTH 486 0
DWIDTH 27 0
BBX 30 43 2 -9
BITMAP
00F8003C
00FC003C
00FC0078
00FC0078
01FC0078
01FE0078
01FE00F8
01FE00F0
03CF00F0
03CF00F0
03CF01F0
03C701E0
078781E0
078781E0
078783E0
078383C0
0F83C3C0
0F03C3C0
0F03C3C0
0F01C780
1F01C780
1E01E780
1E01E780
1E01EF00
3E00EF00
3C00EF00
3C00FF00
3C00FE00
3C00FE00
78007E00
78007E00
78007E00
78007C00
F8007C00
00000000
00000000
00780000
00F80000
00F80000
01F00000
0FF00000
0FE00000
1F800000
ENDCHAR
STARTCHAR 0146
ENCODING 326
SWIDTH 486 0
DWIDTH 27 0
BBX 23 35 4 -9
BITMAP
00FFE0
07FFF8
07FFFC
07FFFE
07807E
0F803E
0F801E
0F801E
0F001E
1F001E
1F001E
1F003E
1E003E
3E003E
3E003C
3E007C
3C007C
3C007C
7C0078
7C0078
7800F8
7800F8
F800F0
F800F0
F001F0
F001F0
000000
000000
01E000
03E000
03E000
07C000
3FC000
3F8000
7E0000
ENDCHAR
STARTCHAR 0147
ENCODING 327
SWIDTH 486 0
DWIDTH 27 0
BBX 30 46 2 0
BITMAP
00008020
0001C0E0
0001E1F0
0000F3E0
0000FF80
00007F00
00003E00
00001C00
00001800
00000000
00000000
00000000
00F8003C
00FC003C
00FC0078
00FC0078
01FC0078
01FE0078
01FE00F8
01FE00F0
03CF00F0
03CF00F0
03CF01F0
03C701E0
078781E0
078781E0
078783E0
078383C0
0F83C3C0
0F03C3C0
0F03C3C0
0F01C780
1F01C780
1E01E780
1E01E780
1E01EF00
3E00EF00
3C00EF00
3C00FF00
3C00FE00
3C00FE00
78007E00
78007E00
78007E00
78007C00
F8007C00
ENDCHAR
STARTCHAR 0148
ENCODING 328
SWIDTH 486 0
DWIDTH 27 0
BBX 24 38 4 0
BITMAP
000C06
001E0F
001E1E
000F7C
0007F8
0007F0
0003E0
0001C0
000100
000000
000000
000000
00FFE0
07FFF8
07FFFC
07FFFE
07807E
0F803E
0F801E
0F801E
0F001E
1F001E
1F001E
1F003E
1E003E
3E003E
3E003C
3E007C
3C007C
3C007C
7C0078
7C0078
7800F8
7800F8
F800F0
F800F0
F001F0
F001F0
ENDCHAR
STARTCHAR 0149
ENCODING 329
SWIDTH 486 0
DWIDTH 27 0
BBX 23 39 4 0
BITMAP
01E000
01E000
03E000
03E000
03C000
07C000
078000
0F0000
0F0000
1E0000
040000
000000
000000
00FFE0
07FFF8
07FFFC
07FFFE
07807E
0F803E
0F801E
0F801E
0F001E
1F001E
1F001E
1F003E
1E003E
3E003E
3E003C
3E007C
3C007C
3C007C
7C0078
7C0078
7800F8
7800F8
F800F0
F800F0
F001F0
F001F0
ENDCHAR
STARTCHAR 014A
ENCODING 330
SWIDTH 486 0
DWIDTH 27 0
BBX 30 43 2 -9
BITMAP
00F8003C
00FC003C
00FC0078
00FC0078
01FE0078
01FE0078
01FE00F8
01FF00F0
03CF00F0
03CF00F0
03CF01F0
03C781E0
078781E0
078781E0
0787C3E0
0783C3C0
0F83C3C0
0F03C3C0
0F03E7C0
0F01E780
1F01E780
1E01E780
1E00EF80
1E00FF00
3E00FF00
3C00FF00
3C007F00
3C007E00
3C007E00
78007E00
78007E00
78003E00
78003C00
F8003C00
00003C00
00007800
00007800
00007800
0000F000
001FF000
001FE000
003FC000
003F8000
ENDCHAR
STARTCHAR 014B
ENCODING 331
SWIDTH 486 0
DWIDTH 27 0
BBX 23 35 4 -9
BITMAP
00FFF0
07FFF8
07FFFC
07FFFE
07807E
0F803E
0F801E
0F801E
0F001E
1F001E
1F001E
1F003E
1E003E
3E003E
3E003C
3E007C
3C007C
3C007C
7C0078
7C00F8
7800F8
7800F8
F800F0
F800F0
F001F0
F001F0
0001E0
0001E0
0003E0
0003C0
0007C0
00FF80
00FF80
01FF00
01FC00
ENDCHAR
STARTCHAR 014C
ENCODING 332
SWIDTH 486 0
DWIDTH 27 0
BBX 26 44 4 -1
BITMAP
000FFFC0
000FFFC0
000FFFC0
000FFF80
00000000
00000000
00000000
00000000
0007F800
001FFC00
007FFF00
00FFFF00
01FC1F80
01F00F80
03E007C0
07C007C0
078007C0
0F8007C0
0F0007C0
1F0007C0
1E0007C0
3E0007C0
3E0007C0
3C0007C0
3C000780
7C000780
7C000780
78000F80
78000F80
78000F00
78001F00
F8001F00
F8001E00
F8003E00
F8007C00
78007C00
7C00F800
7C01F000
7E03F000
3F8FE000
3FFFC000
1FFF0000
07FE0000
01E00000
ENDCHAR
STARTCHAR 014D
ENCODING 333
SWIDTH 486 0
DWIDTH 27 0
BBX 25 36 4 -1
BITMAP
001FFF80
003FFF00
003FFF00
00000000
00000000
00000000
00000000
00000000
00000000
003FF000
00FFF800
01FFFC00
03FFFE00
07E03E00
0FC01F00
1F801F00
1F001F00
3E001F00
3E001F00
3C001F00
7C001F00
7C001F00
78001F00
78001E00
78003E00
F8003E00
F8007C00
F8007C00
7800F800
7C01F800
7E03F000
7FFFE000
3FFFC000
1FFF8000
0FFE0000
00C00000
ENDCHAR
STARTCHAR 014E
ENCODING 334
SWIDTH 486 0
DWIDTH 27 0
BBX 26 46 4 -1
BITMAP
000701C0
000701C0
000703C0
0007C780
0003FF80
0001FF00
0000FC00
00000000
00000000
00000000
0007F800
001FFC00
007FFF00
00FFFF00
01FC1F80
01F00F80
03E007C0
07C007C0
078007C0
0F8007C0
0F0007C0
1F0007C0
1E0007C0
3E0007C0
3E0007C0
3C0007C0
3C000780
7C000780
7C000780
78000F80
78000F80
78000F00
78001F00
F8001F00
F8001E00
F8003E00
F8007C00
78007C00
7C00F800
7C01F000
7E03F000
3F8FE000
3FFFC000
1FFF0000
07FE0000
01E00000
ENDCHAR
STARTCHAR 014F
ENCODING 335
SWIDTH 486 0
DWIDTH 27 0
BBX 25 38 4 -1
BITMAP
000E0380
000E0780
000E0F00
000FFF00
000FFE00
0007FC00
0000E000
00000000
00000000
00000000
00000000
003FF000
00FFF800
01FFFC00
03FFFE00
07E03E00
0FC01F00
1F801F00
1F001F00
3E001F00
3E001F00
3C001F00
7C001F00
7C001F00
78001F00
78001E00
78003E00
F8003E00
F8007C00
F8007C00
7800F800
7C01F800
7E03F000
7FFFE000
3FFFC000
1FFF8000
0FFE0000
00C00000
ENDCHAR
STARTCHAR 0150
ENCODING 336
SWIDTH 486 0
DWIDTH 27 0
BBX 29 47 4 -1
BITMAP
00002020
00007070
0000F0F8
0001F1F8
0003E3F0
0007C7C0
000F8F80
000F0F00
000C0600
00000000
00000000
0007F800
001FFC00
007FFF00
00FFFF00
01FC1F80
01F00F80
03E007C0
07C007C0
078007C0
0F8007C0
0F0007C0
1F0007C0
1E0007C0
3E0007C0
3E0007C0
3C0007C0
3C000780
7C000780
7C000780
78000F80
78000F80
78000F00
78001F00
F8001F00
F8001E00
F8003E00
F8007C00
78007C00
7C00F800
7C01F000
7E03F000
3F8FE000
3FFFC000
1FFF0000
07FE0000
01E00000
ENDCHAR
STARTCHAR 0151
ENCODING 337
SWIDTH 486 0
DWIDTH 27 0
BBX 26 39 4 -1
BITMAP
00018180
000383C0
0007C3C0
000FC7C0
001F0F80
003E1F00
007C3C00
00783800
00303000
00000000
00000000
00000000
003FF000
00FFF800
01FFFC00
03FFFE00
07E03E00
0FC01F00
1F801F00
1F001F00
3E001F00
3E001F00
3C001F00
7C001F00
7C001F00
78001F00
78001E00
78003E00
F8003E00
F8007C00
F8007C00
7800F800
7C01F800
7E03F000
7FFFE000
3FFFC000
1FFF8000
0FFE0000
00C00000
ENDCHAR
STARTCHAR 0152
ENCODING 338
SWIDTH 486 0
DWIDTH 27 0
BBX 30 35 3 0
BITMAP
0003E000
001FFFFC
003FFFFC
00FFFFFC
01FC7FF8
03F03C00
03E07C00
07C07C00
0F807800
0F807800
1F007800
1F00F800
1E00F000
3E00F000
3C00F000
3C01FFC0
7C01FF80
7C01FF80
7C01FF80
7803E000
7803E000
7803C000
F803C000
F807C000
F807C000
F8078000
F8078000
780F8000
7C0F8000
7C0F0000
7E0F0000
3FFFFF00
3FFFFE00
1FFFFE00
07FFFE00
ENDCHAR
STARTCHAR 0153
ENCODING 339
SWIDTH 486 0
DWIDTH 27 0
BBX 28 27 3 -1
BITMAP
00FC1FC0
03FE3FE0
07FF7FE0
0FDFFFF0
1F8FF1F0
1F0FE1F0
3E0FC1F0
3E0FC1F0
3C0FC1E0
7C0F83E0
7C0F87C0
780F8FC0
780FFF80
F80FFE00
F80FFC00
F80FE000
F81F0000
F81F0000
F81F0000
F83F0000
F87F0000
F87F8200
7DFFFE00
7FF7FE00
3FE3FE00
3FC1FC00
0E00E000
ENDCHAR
STARTCHAR 0154
ENCODING 340
SWIDTH 486 0
DWIDTH 27 0
BBX 26 46 3 0
BITMAP
00000200
00000700
00000F80
00001F80
00003F00
00007E00
0000F800
0001F000
0000E000
00000000
00000000
001FE000
01FFFC00
01FFFF00
01FFFF80
01E03F80
01E00FC0
03E007C0
03E003C0
03C003C0
03C003C0
07C003C0
07C003C0
078007C0
07800780
0F800F80
0F801F00
0F003F00
0F07FE00
1FFFF800
1FFFF000
1FFFC000
1E07C000
3E07C000
3E03E000
3E03E000
3C01E000
3C01F000
7C01F000
7C00F000
7800F800
7800F800
F8007800
F8007800
F0007C00
F0007C00
ENDCHAR
STARTCHAR 0155
ENCODING 341
SWIDTH 486 0
DWIDTH 27 0
BBX 24 38 5 0
BITMAP
00000C
00001C
00003E
00007E
0000FC
0001F0
0003E0
0007C0
000300
000000
000000
000000
003FFF
03FFFF
03FFFE
07FFFE
07C000
078000
078000
0F8000
0F8000
0F0000
0F0000
1F0000
1F0000
1E0000
1E0000
3E0000
3E0000
3E0000
3C0000
7C0000
7C0000
7C0000
780000
780000
F80000
F80000
ENDCHAR
STARTCHAR 0156
ENCODING 342
SWIDTH 486 0
DWIDTH 27 0
BBX 26 44 3 -9
BITMAP
001FE000
01FFFC00
01FFFF00
01FFFF80
01E03F80
01E00FC0
03E007C0
03E003C0
03C003C0
03C003C0
07C003C0
07C003C0
078007C0
07800780
0F800F80
0F801F00
0F003F00
0F07FE00
1FFFF800
1FFFF000
1FFFC000
1E07C000
3E07C000
3E03E000
3E03E000
3C01E000
3C01F000
7C01F000
7C00F000
7800F800
7800F800
F8007800
F8007800
F0007C00
F0007C00
00000000
00000000
00F00000
01F00000
01F00000
03E00000
1FE00000
1FC00000
3F000000
ENDCHAR
STARTCHAR 0157
ENCODING 343
SWIDTH 486 0
DWIDTH 27 0
BBX 30 35 -1 -9
BITMAP
0000FFFC
000FFFFC
000FFFF8
001FFFF8
001F0000
001E0000
001E0000
003E0000
003E0000
003C0000
003C0000
007C0000
007C0000
00780000
00780000
00F80000
00F80000
00F80000
00F00000
01F00000
01F00000
01F00000
01E00000
01E00000
03E00000
03E00000
00000000
00000000
07C00000
07C00000
07800000
0F800000
FF000000
FE000000
FC000000
ENDCHAR
STARTCHAR 0158
ENCODING 344
SWIDTH 486 0
DWIDTH 27 0
BBX 26 46 3 0
BITMAP
00040100
000E0700
000F0F80
00079F00
0007FC00
0003F800
0001F000
0000E000
0000C000
00000000
00000000
001FE000
01FFFC00
01FFFF00
01FFFF80
01E03F80
01E00FC0
03E007C0
03E003C0
03C003C0
03C003C0
07C003C0
07C003C0
078007C0
07800780
0F800F80
0F801F00
0F003F00
0F07FE00
1FFFF800
1FFFF000
1FFFC000
1E07C000
3E07C000
3E03E000
3E03E000
3C01E000
3C01F000
7C01F000
7C00F000
7800F800
7800F800
F8007800
F8007800
F0007C00
F0007C00
ENDCHAR
STARTCHAR 0159
ENCODING 345
SWIDTH 486 0
DWIDTH 27 0
BBX 24 38 5 0
BITMAP
000402
001E07
000F1F
0007BE
0007FC
0003F8
0001E0
0001C0
000080
000000
000000
000000
003FFF
03FFFF
03FFFE
07FFFE
07C000
078000
078000
0F8000
0F8000
0F0000
0F0000
1F0000
1F0000
1E0000
1E0000
3E0000
3E0000
3E0000
3C0000
7C0000
7C0000
7C0000
780000
780000
F80000
F80000
ENDCHAR
STARTCHAR 015A
ENCODING 346
SWIDTH 486 0
DWIDTH 27 0
BBX 27 47 3 -1
BITMAP
00000200
00000700
00000F80
00001F80
00003F00
00007E00
0000F800
0001F000
0000E000
00000000
00000000
0003FF00
001FFFC0
003FFFE0
007FFFC0
00FC01C0
01F80000
01F00000
01E00000
03E00000
03E00000
03E00000
03E00000
01F00000
01F80000
01FC0000
00FF0000
007FC000
003FE000
000FF000
0003F800
0001FC00
00007C00
00003E00
00003E00
00003E00
00003E00
00003E00
00003E00
00003C00
00007C00
3001FC00
7E0FF800
FFFFF000
FFFFE000
3FFF8000
03F80000
ENDCHAR
STARTCHAR 015B
ENCODING 347
SWIDTH 486 0
DWIDTH 27 0
BBX 24 39 4 -1
BITMAP
000008
00001C
00003E
00007E
0000FC
0001F0
0003E0
0007C0
000300
000000
000000
000000
001FFE
007FFF
01FFFE
01FFFE
03E004
03C000
07C000
07C000
07C000
03E000
03F800
01FE00
00FF80
007FC0
001FE0
0007F0
0001F0
0000F8
0000F8
0000F0
0000F0
3001F0
7E0FE0
7FFFE0
FFFFC0
3FFF00
03F000
ENDCHAR
STARTCHAR 015C
ENCODING 348
SWIDTH 486 0
DWIDTH 27 0
BBX 27 47 3 -1
BITMAP
00000800
00001C00
00003C00
00007E00
0001FF00
0003EF00
0007C780
000783C0
00020180
00000000
00000000
0003FF00
001FFFC0
003FFFE0
007FFFC0
00FC01C0
01F80000
01F00000
01E00000
03E00000
03E00000
03E00000
03E00000
01F00000
01F80000
01FC0000
00FF0000
007FC000
003FE000
000FF000
0003F800
0001FC00
00007C00
00003E00
00003E00
00003E00
00003E00
00003E00
00003E00
00003C00
00007C00
3001FC00
7E0FF800
FFFFF000
FFFFE000
3FFF8000
03F80000
ENDCHAR
STARTCHAR 015D
ENCODING 349
SWIDTH 486 0
DWIDTH 27 0
BBX 24 39 4 -1
BITMAP
000020
000070
0001F0
0003F8
0007FC
000FBE
001F1E
001C0E
000804
000000
000000
000000
001FFE
007FFF
01FFFE
01FFFE
03E004
03C000
07C000
07C000
07C000
03E000
03F800
01FE00
00FF80
007FC0
001FE0
0007F0
0001F0
0000F8
0000F8
0000F0
0000F0
3001F0
7E0FE0
7FFFE0
FFFFC0
3FFF00
03F000
ENDCHAR
STARTCHAR 015E
ENCODING 350
SWIDTH 486 0
DWIDTH 27 0
BBX 27 44 3 -9
BITMAP
0003FF00
001FFFC0
003FFFE0
007FFFC0
00FC01C0
01F80000
01F00000
01E00000
03E00000
03E00000
03E00000
03E00000
01F00000
01F80000
01FC0000
00FF0000
007FC000
003FE000
000FF000
0003F800
0001FC00
00007C00
00003E00
00003E00
00003E00
00003E00
00003E00
00003E00
00003C00
00007C00
3001FC00
7E0FF800
FFFFF000
FFFFE000
3FFF8000
01F80000
01E00000
01E00000
03F00000
00F00000
00F00000
1FF00000
1FF00000
1FC00000
ENDCHAR
STARTCHAR 015F
ENCODING 351
SWIDTH 486 0
DWIDTH 27 0
BBX 24 35 4 -9
BITMAP
001FFE
007FFF
01FFFE
01FFFE
03E004
03C000
07C000
07C000
07C000
03E000
03F800
01FE00
00FF80
007FC0
001FE0
0007F0
0001F0
0000F8
0000F8
0000F0
0000F0
3001F0
7E0FF0
7FFFE0
FFFFC0
3FFF00
01F000
01C000
03E000
03F000
00F000
00F000
1FF000
1FE000
3FC000
ENDCHAR
STARTCHAR 0160
ENCODING 352
SWIDTH 486 0
DWIDTH 27 0
BBX 27 47 3 -1
BITMAP
00008040
0003C0E0
0003E3E0
0001E7C0
0000FF80
00007F00
00007E00
00003800
00001000
00000000
00000000
0003FF00
001FFFC0
003FFFE0
007FFFC0
00FC01C0
01F80000
01F00000
01E00000
03E00000
03E00000
03E00000
03E00000
01F00000
01F80000
01FC0000
00FF0000
007FC000
003FE000
000FF000
0003F800
0001FC00
00007C00
00003E00
00003E00
00003E00
00003E00
00003E00
00003E00
00003C00
00007C00
3001FC00
7E0FF800
FFFFF000
FFFFE000
3FFF8000
03F80000
ENDCHAR
STARTCHAR 0161
ENCODING 353
SWIDTH 486 0
DWIDTH 27 0
BBX 25 39 4 -1
BITMAP
00060100
000F0380
00078F80
0007DF00
0003FE00
0001F800
0000F000
0000E000
00004000
00000000
00000000
00000000
001FFE00
007FFF00
01FFFE00
01FFFE00
03E00400
03C00000
07C00000
07C00000
07C00000
03E00000
03F80000
01FE0000
00FF8000
007FC000
001FE000
0007F000
0001F000
0000F800
0000F800
0000F000
0000F000
3001F000
7E0FE000
7FFFE000
FFFFC000
3FFF0000
03F00000
ENDCHAR
STARTCHAR 0162
ENCODING 354
SWIDTH 486 0
DWIDTH 27 0
BBX 28 43 5 -9
BITMAP
0FFFFFF0
0FFFFFE0
0FFFFFE0
1FFFFFE0
00078000
000F8000
000F8000
000F0000
000F0000
001F0000
001F0000
001E0000
001E0000
003E0000
003E0000
003E0000
003C0000
007C0000
007C0000
007C0000
00780000
00F80000
00F80000
00F80000
00F00000
01F00000
01F00000
01F00000
01E00000
01E00000
03E00000
03E00000
03C00000
03C00000
07800000
07000000
0F800000
0F800000
07C00000
07C00000
7F800000
FF800000
FF000000
ENDCHAR
STARTCHAR 0163
ENCODING 355
SWIDTH 486 0
DWIDTH 27 0
BBX 21 43 7 -9
BITMAP
001800
00F800
00F000
01F000
01F000
01F000
01E000
03E000
7FFFF8
7FFFF8
FFFFF0
FFFFF0
07C000
07C000
078000
078000
0F8000
0F8000
0F0000
0F0000
1F0000
1F0000
1E0000
1E0000
3E0000
3E0000
3E0000
3E0000
3E0000
3E0080
3F9F80
1FFF80
1FFF80
07FF00
01E000
038000
07C000
07E000
01E000
01E000
3FE000
3FC000
7F8000
ENDCHAR
STARTCHAR 0164
ENCODING 356
SWIDTH 486 0
DWIDTH 27 0
BBX 25 46 8 0
BITMAP
00200800
00703800
00787C00
003CF800
003FE000
001FC000
000F8000
00070000
00060000
00000000
00000000
00000000
7FFFFF80
7FFFFF00
7FFFFF00
FFFFFF00
003C0000
007C0000
007C0000
00780000
00780000
00F80000
00F80000
00F00000
00F00000
01F00000
01F00000
01F00000
01E00000
03E00000
03E00000
03E00000
03C00000
07C00000
07C00000
07C00000
07800000
0F800000
0F800000
0F800000
0F000000
0F000000
1F000000
1F000000
1E000000
1E000000
ENDCHAR
STARTCHAR 0165
ENCODING 357
SWIDTH 486 0
DWIDTH 27 0
BBX 22 40 8 -1
BITMAP
00007C
00007C
000078
000078
000078
0018F0
00F0F0
01F0E0
01F0E0
01F1E0
01E000
03E000
03E000
FFFFF0
FFFFF0
FFFFF0
FFFFF0
07C000
078000
0F8000
0F8000
0F8000
0F0000
0F0000
1F0000
1F0000
1E0000
1E0000
3E0000
3E0000
3C0000
3C0000
3C0000
3C0000
3E0080
3F9F00
3FFF00
1FFF00
0FFF00
00C000
ENDCHAR
STARTCHAR 0166
ENCODING 358
SWIDTH 486 0
DWIDTH 27 0
BBX 25 34 8 0
BITMAP
7FFFFF80
7FFFFF00
7FFFFF00
FFFFFF00
003C0000
007C0000
007C0000
00780000
00780000
00F80000
00F80000
00F00000
00F00000
01F00000
3FFF8000
3FFF8000
3FFF8000
7FFF0000
03E00000
03C00000
03C00000
07C00000
07C00000
07C00000
07800000
0F800000
0F800000
0F800000
0F000000
0F000000
1F000000
1F000000
1E000000
1E000000
ENDCHAR
STARTCHAR 0167
ENCODING 359
SWIDTH 486 0
DWIDTH 27 0
BBX 23 35 5 -1
BITMAP
000200
001E00
003E00
003E00
003C00
003C00
007C00
007C00
1FFFFE
1FFFFE
1FFFFE
1FFFFE
00F800
00F000
01F000
01F000
01F000
01E000
03E000
7FFFF8
7FFFF8
FFFFF0
07C000
07C000
07C000
078000
078000
078000
078000
07C000
07F3E0
07FFE0
03FFE0
01FFE0
001800
ENDCHAR
STARTCHAR 0168
ENCODING 360
SWIDTH 486 0
DWIDTH 27 0
BBX 28 45 4 -1
BITMAP
0007C0C0
000FF1E0
001FFFC0
003FFF80
00383F00
00100000
00000000
00000000
00000000
00000000
03E001F0
03C001F0
03C001E0
07C003E0
07C003E0
078003E0
078003C0
0F8003C0
0F8007C0
0F0007C0
0F000780
1F000780
1F000F80
1E000F80
1E000F00
3E000F00
3E001F00
3C001F00
3C001E00
7C001E00
7C003E00
7C003E00
78003E00
78003C00
F8007C00
F8007C00
78007800
7800F800
7C01F000
7C03F000
3F0FE000
3FFFC000
1FFF8000
0FFF0000
01F00000
ENDCHAR
STARTCHAR 0169
ENCODING 361
SWIDTH 486 0
DWIDTH 27 0
BBX 24 38 5 -1
BITMAP
000004
003E06
007F8E
00FFFE
01E7FC
01C1F8
000000
000000
000000
000000
000000
1F001F
1F001E
1F003E
1E003E
1E003E
3E003C
3E003C
3C007C
3C007C
7C0078
7C0078
7800F8
7800F8
F800F0
F800F0
F001F0
F001F0
F001F0
F001E0
F001E0
F803E0
F80FE0
FE3FE0
7FFFE0
3FFDF0
1FF0F0
010000
ENDCHAR
STARTCHAR 016A
ENCODING 362
SWIDTH 486 0
DWIDTH 27 0
BBX 28 44 4 -1
BITMAP
000FFFC0
000FFF80
001FFF80
001FFF80
00000000
00000000
00000000
00000000
00000000
03E001F0
03C001F0
03C001E0
07C003E0
07C003E0
078003E0
078003C0
0F8003C0
0F8007C0
0F0007C0
0F000780
1F000780
1F000F80
1E000F80
1E000F00
3E000F00
3E001F00
3C001F00
3C001E00
7C001E00
7C003E00
7C003E00
78003E00
78003C00
F8007C00
F8007C00
78007800
7800F800
7C01F000
7C03F000
3F0FE000
3FFFC000
1FFF8000
0FFF0000
01F00000
ENDCHAR
STARTCHAR 016B
ENCODING 363
SWIDTH 486 0
DWIDTH 27 0
BBX 24 36 5 -1
BITMAP
007FFE
00FFFC
00FFFC
000000
000000
000000
000000
000000
000000
1F001F
1F001E
1F003E
1E003E
1E003E
3E003C
3E003C
3C007C
3C007C
7C0078
7C0078
7800F8
7800F8
F800F0
F800F0
F001F0
F001F0
F001F0
F001E0
F001E0
F803E0
F80FE0
FE3FE0
7FFFE0
3FFDF0
1FF0F0
010000
ENDCHAR
STARTCHAR 016C
ENCODING 364
SWIDTH 486 0
DWIDTH 27 0
BBX 28 46 4 -1
BITMAP
000701C0
000703C0
00070380
00078F80
0007FF00
0003FE00
0000F800
00000000
00000000
00000000
00000000
03E001F0
03C001F0
03C001E0
07C003E0
07C003E0
078003E0
078003C0
0F8003C0
0F8007C0
0F0007C0
0F000780
1F000780
1F000F80
1E000F80
1E000F00
3E000F00
3E001F00
3C001F00
3C001E00
7C001E00
7C003E00
7C003E00
78003E00
78003C00
F8007C00
F8007C00
78007800
7800F800
7C01F000
7C03F000
3F0FE000
3FFFC000
1FFF8000
0FFF0000
01F00000
ENDCHAR
STARTCHAR 016D
ENCODING 365
SWIDTH 486 0
DWIDTH 27 0
BBX 24 38 5 -1
BITMAP
00380E
00381E
00383C
003FFC
003FF8
001FF0
000380
000000
000000
000000
000000
1F001F
1F001E
1F003E
1E003E
1E003E
3E003C
3E003C
3C007C
3C007C
7C0078
7C0078
7800F8
7800F8
F800F0
F800F0
F001F0
F001F0
F001F0
F001E0
F001E0
F803E0
F80FE0
FE3FE0
7FFFE0
3FFDF0
1FF0F0
010000
ENDCHAR
STARTCHAR 016E
ENCODING 366
SWIDTH 486 0
DWIDTH 27 0
BBX 28 47 4 -1
BITMAP
0001F800
0003FC00
00038E00
00070600
00070600
00070600
00030E00
0003FE00
0001FC00
00007000
00000000
00000000
03E001F0
03C001F0
03C001E0
07C003E0
07C003E0
078003E0
078003C0
0F8003C0
0F8007C0
0F0007C0
0F000780
1F000780
1F000F80
1E000F80
1E000F00
3E000F00
3E001F00
3C001F00
3C001E00
7C001E00
7C003E00
7C003E00
78003E00
78003C00
F8007C00
F8007C00
78007800
7800F800
7C01F000
7C03F000
3F0FE000
3FFFC000
1FFF8000
0FFF0000
01F00000
ENDCHAR
STARTCHAR 016F
ENCODING 367
SWIDTH 486 0
DWIDTH 27 0
BBX 24 40 5 -1
BITMAP
000300
000FE0
001FF0
001870
003830
003838
003830
001C70
001FF0
000FC0
000100
000000
000000
1F001F
1F001E
1F003E
1E003E
1E003E
3E003C
3E003C
3C007C
3C007C
7C0078
7C0078
7800F8
7800F8
F800F0
F800F0
F001F0
F001F0
F001F0
F001E0
F001E0
F803E0
F80FE0
FE3FE0
7FFFE0
3FFDF0
1FF0F0
010000
ENDCHAR
STARTCHAR 0170
ENCODING 368
SWIDTH 486 0
DWIDTH 27 0
BBX 28 47 4 -1
BITMAP
00004040
0000E0E0
0001E1F0
0003E3F0
0007C7E0
000F8F80
001F0F00
001E1E00
001C0C00
00000000
00000000
00000000
03E001F0
03C001F0
03C001E0
07C003E0
07C003E0
078003E0
078003C0
0F8003C0
0F8007C0
0F0007C0
0F000780
1F000780
1F000F80
1E000F80
1E000F00
3E000F00
3E001F00
3C001F00
3C001E00
7C001E00
7C003E00
7C003E00
78003E00
78003C00
F8007C00
F8007C00
78007800
7800F800
7C01F000
7C03F000
3F0FE000
3FFFC000
1FFF8000
0FFF0000
01F00000
ENDCHAR
STARTCHAR 0171
ENCODING 369
SWIDTH 486 0
DWIDTH 27 0
BBX 24 39 5 -1
BITMAP
000606
000E0F
001F0F
003F1F
007C3E
00F87C
01F0F0
01E0E0
00C0C0
000000
000000
000000
1F001F
1F001E
1F003E
1E003E
1E003E
3E003C
3E003C
3C007C
3C007C
7C0078
7C0078
7800F8
7800F8
F800F0
F800F0
F001F0
F001F0
F001F0
F001E0
F001E0
F803E0
F80FE0
FE3FE0
7FFFE0
3FFDF0
1FF0F0
010000
ENDCHAR
STARTCHAR 0172
ENCODING 370
SWIDTH 486 0
DWIDTH 27 0
BBX 28 43 4 -9
BITMAP
03E001F0
03C001F0
03C001E0
07C003E0
07C003E0
078003E0
078003C0
0F8003C0
0F8007C0
0F0007C0
0F000780
1F000780
1F000F80
1E000F80
1E000F00
3E000F00
3E001F00
3C001F00
3C001E00
7C001E00
7C003E00
7C003E00
78003E00
78003C00
F8007C00
F8007C00
78007800
7800F800
7C01F800
7C03F000
3F0FE000
3FFFC000
1FFF8000
0FFF0000
01FC0000
00780000
00F00000
01E00000
03C00000
03C00000
03FC0000
03FC0000
01FC0000
ENDCHAR
STARTCHAR 0173
ENCODING 371
SWIDTH 486 0
DWIDTH 27 0
BBX 24 35 5 -9
BITMAP
1F001F
1F001E
1F003E
1E003E
1E003E
3E003C
3E003C
3C007C
3C007C
7C0078
7C0078
7800F8
7800F8
F800F0
F800F0
F001F0
F001F0
F001F0
F001E0
F001E0
F803E0
F80FE0
FE3FE0
7FFFE0
3FFDF0
1FF0F0
0103E0
0007C0
000F00
001E00
001E00
003E00
003FC0
001FC0
001FC0
ENDCHAR
STARTCHAR 0174
ENCODING 372
SWIDTH 486 0
DWIDTH 27 0
BBX 30 46 3 0
BITMAP
00000800
00001C00
00003C00
00007E00
0001FF00
0003EF00
0007C780
000783C0
00020180
00000000
00000000
00000000
03C0003C
03C0007C
07C0007C
07C00078
07800078
078000F8
078000F0
078000F0
0F8000F0
0F0001E0
0F0001E0
0F0001E0
0F0001E0
1E0F83C0
1E0F83C0
1E1F83C0
1E1F8780
1E3F8780
3C3B8780
3C7B8700
3C738F00
3CE3CF00
39E3CF00
39C1CE00
7BC1DE00
7B81DE00
7F81DC00
7701FC00
7F01F800
7E01F800
7C01F800
7C01F000
F801F000
F801F000
ENDCHAR
STARTCHAR 0175
ENCODING 373
SWIDTH 486 0
DWIDTH 27 0
BBX 28 38 4 0
BITMAP
00002000
00007000
0001F000
0003F800
0007FC00
000FBE00
001F1E00
001C0E00
00080400
00000000
00000000
00000000
3E0000F0
3E0001F0
3C0001E0
3C0001E0
3C0003E0
3C0003C0
3C0F03C0
3C0F07C0
7C1F0780
781F0780
783F0F00
783F0F00
787F0F00
78F71E00
78E71E00
79E71C00
79C73C00
7BC73C00
7F87F800
7707F800
7F07F000
7E07F000
7E03F000
FC03E000
F803E000
F803C000
ENDCHAR
STARTCHAR 0176
ENCODING 374
SWIDTH 486 0
DWIDTH 27 0
BBX 26 45 8 1
BITMAP
00038000
0007C000
000FC000
001FE000
003FF000
0078F800
00F07800
00603000
00000000
00000000
00000000
F80007C0
F8000F80
78000F80
78001F00
78003E00
7C003E00
7C007C00
3C00F800
3C00F800
3E01F000
3E03E000
1E03C000
1E07C000
1F0F8000
0F1F0000
0F1E0000
0FBC0000
07FC0000
07F80000
07F00000
03E00000
03C00000
03C00000
07C00000
07C00000
07C00000
07800000
0F800000
0F800000
0F800000
0F000000
1F000000
1F000000
1F000000
ENDCHAR
STARTCHAR 0177
ENCODING 375
SWIDTH 486 0
DWIDTH 27 0
BBX 31 47 -1 -9
BITMAP
00000600
00000E00
00001F00
00003F80
00007F80
0001F3C0
0003E1E0
0001C0E0
000100C0
00000000
00000000
00000000
0078003E
0078003C
0078007C
0078007C
007C0078
007C00F8
007C00F8
007C00F0
007C01F0
007C01E0
003C03E0
003E03E0
003E03C0
003E07C0
003E0780
001E0F80
001E0F00
001F1F00
001F1E00
000F3E00
000F3C00
000FF800
000FF800
0007F000
0007F000
0007E000
0007C000
00078000
000F8000
001F0000
007E0000
7FFC0000
7FF80000
FFE00000
FF800000
ENDCHAR
STARTCHAR 0178
ENCODING 376
SWIDTH 486 0
DWIDTH 27 0
BBX 26 44 8 0
BITMAP
00F03800
01F07C00
01F8FC00
01F0FC00
01F07800
00C03000
00000000
00000000
00000000
00000000
F80007C0
F8000F80
78000F80
78001F00
78003E00
7C003E00
7C007C00
3C00F800
3C00F800
3E01F000
3E03E000
1E03C000
1E07C000
1F0F8000
0F1F0000
0F1E0000
0FBC0000
07FC0000
07F80000
07F00000
03E00000
03C00000
03C00000
07C00000
07C00000
07C00000
07800000
0F800000
0F800000
0F800000
0F000000
1F000000
1F000000
1F000000
ENDCHAR
STARTCHAR 0179
ENCODING 377
SWIDTH 486 0
DWIDTH 27 0
BBX 30 46 2 0
BITMAP
00000080
000001C0
000003E0
000007E0
00000FC0
00001F80
00003E00
00007C00
00003800
00000000
00000000
00000000
007FFFFC
00FFFFF8
00FFFFF8
00FFFFF8
000001F0
000003E0
000007C0
00000F80
00001F00
00003E00
00007C00
0000F800
0001F800
0001F000
0003E000
0007C000
000F8000
001F0000
003E0000
007E0000
007C0000
00F80000
01F00000
03E00000
07C00000
07C00000
0F800000
1F000000
3E000000
7E000000
7FFFFE00
7FFFFE00
FFFFFC00
FFFFFC00
ENDCHAR
STARTCHAR 017A
ENCODING 378
SWIDTH 486 0
DWIDTH 27 0
BBX 25 38 3 0
BITMAP
00000400
00000E00
00001F00
00003F00
00007E00
0000F800
0001F000
0003E000
00018000
00000000
00000000
00000000
01FFFF80
01FFFF80
01FFFF80
03FFFF00
00003E00
00007C00
0000F800
0001F000
0003E000
0007C000
000F8000
001F0000
003E0000
007C0000
00F80000
01F00000
03E00000
07C00000
0FC00000
0F800000
1F000000
3E000000
7FFFF000
7FFFF000
7FFFF000
FFFFF000
ENDCHAR
STARTCHAR 017B
ENCODING 379
SWIDTH 486 0
DWIDTH 27 0
BBX 30 44 2 0
BITMAP
00003C00
00003E00
00007E00
00007E00
00003E00
00001800
00000000
00000000
00000000
00000000
007FFFFC
00FFFFF8
00FFFFF8
00FFFFF8
000001F0
000003E0
000007C0
00000F80
00001F00
00003E00
00007C00
0000F800
0001F800
0001F000
0003E000
0007C000
000F8000
001F0000
003E0000
007E0000
007C0000
00F80000
01F00000
03E00000
07C00000
07C00000
0F800000
1F000000
3E000000
7E000000
7FFFFE00
7FFFFE00
FFFFFC00
FFFFFC00
ENDCHAR
STARTCHAR 017C
ENCODING 380
SWIDTH 486 0
DWIDTH 27 0
BBX 25 36 3 1
BITMAP
0000F800
0000F800
0001F800
0001F800
0000F000
00002000
00000000
00000000
00000000
00000000
01FFFF80
01FFFF80
01FFFF80
03FFFF00
00003E00
00007C00
0000F800
0001F000
0003E000
0007C000
000F8000
001F0000
003E0000
007C0000
00F80000
01F00000
03E00000
07C00000
0FC00000
0F800000
1F000000
3E000000
7FFFF000
7FFFF000
7FFFF000
FFFFF000
ENDCHAR
STARTCHAR 017D
ENCODING 381
SWIDTH 486 0
DWIDTH 27 0
BBX 30 46 2 0
BITMAP
00008020
0001C0E0
0001E1F0
0000F3E0
0000FF80
00007F00
00003E00
00001C00
00001800
00000000
00000000
00000000
007FFFFC
00FFFFF8
00FFFFF8
00FFFFF8
000001F0
000003E0
000007C0
00000F80
00001F00
00003E00
00007C00
0000F800
0001F800
0001F000
0003E000
0007C000
000F8000
001F0000
003E0000
007E0000
007C0000
00F80000
01F00000
03E00000
07C00000
07C00000
0F800000
1F000000
3E000000
7E000000
7FFFFE00
7FFFFE00
FFFFFC00
FFFFFC00
ENDCHAR
STARTCHAR 017E
ENCODING 382
SWIDTH 486 0
DWIDTH 27 0
BBX 25 38 3 0
BITMAP
00060300
000F0780
000F0F00
0007BE00
0003FC00
0003F800
0001F000
0000E000
00008000
00000000
00000000
00000000
01FFFF80
01FFFF80
01FFFF80
03FFFF00
00003E00
00007C00
0000F800
0001F000
0003E000
0007C000
000F8000
001F0000
003E0000
007C0000
00F80000
01F00000
03E00000
07C00000
0FC00000
0F800000
1F000000
3E000000
7FFFF000
7FFFF000
7FFFF000
FFFFF000
ENDCHAR
STARTCHAR 017F
ENCODING 383
SWIDTH 486 0
DWIDTH 27 0
BBX 32 47 1 -8
BITMAP
000007FF
00001FFF
00003FFE
00007FDE
00007C00
0000F800
0000F800
0001F000
0001F000
0001F000
0001E000
0003E000
0003E000
0003E000
0003C000
0003C000
0007C000
0007C000
0007C000
00078000
00078000
000F8000
000F8000
000F8000
000F0000
000F0000
001F0000
001F0000
001E0000
001E0000
003E0000
003E0000
003E0000
003C0000
003C0000
007C0000
007C0000
00780000
00780000
00F80000
00F80000
01F00000
03F00000
FFE00000
FFE00000
FFC00000
FF000000
ENDCHAR
STARTCHAR 0180
ENCODING 384
SWIDTH 486 0
DWIDTH 27 0
BBX 25 39 4 0
BITMAP
00780000
00F80000
00F80000
00F80000
0FFFF800
0FFFF800
0FFFF000
1FFFF000
01E00000
01E00000
03E00000
03E00000
03CFF000
03FFFC00
07FFFE00
07FFFE00
07E03F00
07801F00
0F800F00
0F800F00
0F000F80
0F000F80
1F000F00
1F000F00
1E000F00
1E001F00
3E001F00
3E001E00
3E003E00
3C007E00
7C007C00
7C00F800
7C03F800
7807F000
7EFFE000
FFFF8000
FFFF0000
7FFC0000
02800000
ENDCHAR
STARTCHAR 0181
ENCODING 385
SWIDTH 486 0
DWIDTH 27 0
BBX 24 35 6 0
BITMAP
007E00
07FFF0
1FFFF8
3FFFFC
7E787E
F8F83E
F0F81E
F0F01F
F0F01F
E1F01E
81F01E
01E03E
01E03E
03E07C
03E0F8
03FFF0
03FFC0
07FFE0
07FFF0
0781F8
0780F8
0F8078
0F8078
0F007C
0F0078
1F0078
1F00F8
1F00F8
1E00F8
3E01F0
3E07F0
3FFFE0
3FFFC0
3FFF00
7FFC00
ENDCHAR
STARTCHAR 0182
ENCODING 386
SWIDTH 486 0
DWIDTH 27 0
BBX 26 34 3 0
BITMAP
00FFFFC0
00FFFFC0
01FFFF80
01FFFF80
01E00000
01E00000
03E00000
03E00000
03C00000
03C00000
07C00000
07C00000
07C00000
07FFE000
0FFFF800
0FFFFC00
0F87FE00
0F007E00
0F003F00
1F001F00
1F001F00
1E001F00
1E001F00
3E001F00
3E001F00
3C001E00
3C003E00
7C007E00
7C00FC00
7803F800
7FFFF800
FFFFE000
FFFFC000
FFFE0000
ENDCHAR
STARTCHAR 0183
ENCODING 387
SWIDTH 486 0
DWIDTH 27 0
BBX 26 39 4 -1
BITMAP
00FFFFC0
00FFFFC0
00FFFFC0
01FFFF80
01F00000
01F00000
01E00000
03E00000
03E00000
03E00000
03C00000
03C00000
07DFF000
07FFF800
07FFFC00
07FFFE00
0FC03E00
0F801F00
0F001F00
0F001F00
1F001F00
1F001F00
1E001F00
1E001F00
3E001F00
3E001F00
3E003E00
3C003E00
3C003E00
7C007C00
7C00FC00
7801F800
7803F000
F80FE000
FCFFC000
FFFF8000
FFFE0000
FFF80000
02000000
ENDCHAR
STARTCHAR 0184
ENCODING 388
SWIDTH 486 0
DWIDTH 27 0
BBX 25 39 4 0
BITMAP
00380000
00F80000
07F80000
07F80000
03F00000
03F00000
01F00000
01F00000
01E00000
01E00000
03E00000
03E00000
03CFF000
03FFFC00
07FFFE00
07FFFE00
07E03F00
07801F00
0F800F00
0F800F00
0F000F80
0F000F80
1F000F00
1F000F00
1E000F00
1E001F00
3E001F00
3E001E00
3E003E00
3C007E00
7C007C00
7C00F800
7C03F800
7807F000
7EFFE000
FFFF8000
FFFF0000
7FFC0000
02800000
ENDCHAR
STARTCHAR 0185
ENCODING 389
SWIDTH 486 0
DWIDTH 27 0
BBX 24 35 4 0
BITMAP
000800
007000
03F000
0FF000
0FF000
07E000
03E000
03E000
03E000
03C000
03C000
07C000
07C000
07FF80
07FFF0
0FFFF8
0FFFFC
0F80FE
0F003E
1F001F
1F001F
1F001F
1E001F
1E001F
3E001F
3E001F
3C001E
3C003E
7C007C
7C00FC
7803F8
7FFFF0
FFFFE0
FFFF80
FFFE00
ENDCHAR
STARTCHAR 0186
ENCODING 390
SWIDTH 486 0
DWIDTH 27 0
BBX 27 36 3 -1
BITMAP
001FF000
007FFC00
01FFFE00
00FFFF00
00E03F80
00001F80
00000FC0
000007C0
000007C0
000003C0
000003C0
000003E0
000003E0
000003E0
000003C0
000003C0
000007C0
000007C0
000007C0
000007C0
00000780
00000F80
00000F80
00001F00
00001F00
00003F00
00003E00
00007C00
0000FC00
0001F800
6007F000
7E7FE000
FFFFC000
FFFF0000
7FFC0000
07C00000
ENDCHAR
STARTCHAR 0187
ENCODING 391
SWIDTH 486 0
DWIDTH 27 0
BBX 30 40 5 -1
BITMAP
0000007C
000000FC
000001FC
000003F8
0003FFC0
000FFF80
003FFF00
007FFF00
01FE0600
03F80000
03E00000
07C00000
0F800000
0F000000
1F000000
3E000000
3E000000
3C000000
7C000000
7C000000
78000000
78000000
F8000000
F8000000
F8000000
F8000000
F8000000
F8000000
F8000000
F8000000
F8000000
F8000000
7C000000
7C000000
7E00C000
3FCFC000
1FFFC000
0FFFC000
07FF0000
00F00000
ENDCHAR
STARTCHAR 0188
ENCODING 392
SWIDTH 486 0
DWIDTH 27 0
BBX 29 32 4 -1
BITMAP
000003F8
000007F0
00000FF0
00001F20
00001E00
001FFC00
00FFF800
01FFF800
03FFF800
07E00000
0FC00000
1F800000
1F000000
3E000000
3E000000
7C000000
7C000000
7C000000
78000000
78000000
F8000000
F8000000
F8000000
78000000
7C000000
7C000000
7E000000
3F878000
1FFFC000
0FFFC000
07FF8000
00F80000
ENDCHAR
STARTCHAR 0189
ENCODING 393
SWIDTH 486 0
DWIDTH 27 0
BBX 25 35 4 0
BITMAP
001F8000
00FFF000
01FFF800
01FFFC00
01F0FE00
01E03F00
01E01F00
03E01F00
03E00F80
03C00F80
03C00F80
07C00F80
07C00F80
07800F80
07800F80
FFF80F80
FFF80F80
FFF80F80
FFF80F00
1F000F00
1F001F00
1F001F00
1E001E00
3E003E00
3E003E00
3E007C00
3C00FC00
3C00F800
7C01F000
7C07F000
781FE000
7FFFC000
FFFF0000
FFFE0000
FFF00000
ENDCHAR
STARTCHAR 018A
ENCODING 394
SWIDTH 486 0
DWIDTH 27 0
BBX 24 35 6 0
BITMAP
007E00
07FFE0
1FFFF0
3FFFF8
7E79FC
F8F87E
F0F83E
F0F03E
F0F01F
E1F01F
81F01F
01E01F
01E01F
03E01F
03E01F
03E01F
03C01F
07C01F
07C01F
07C01E
07803E
0F803E
0F803E
0F807C
0F007C
1F00F8
1F00F8
1F01F0
1E03F0
1E07E0
3E0FC0
3FFF80
3FFF00
3FFC00
7FF000
ENDCHAR
STARTCHAR 018B
ENCODING 395
SWIDTH 486 0
DWIDTH 27 0
BBX 28 34 4 0
BITMAP
00FFFFF0
00FFFFE0
00FFFFE0
01FFFFE0
000003E0
000003C0
000003C0
000007C0
000007C0
00000780
00000780
00000F80
00000F80
003FFF00
01FFFF00
07FFFF00
0FFE1F00
1FC01E00
3F001E00
3E003E00
7C003E00
7C003C00
78003C00
F8007C00
F8007C00
F8007C00
F8007800
7800F800
7C00F800
7E00F800
3FFFF000
3FFFF000
0FFFF000
03FFF000
ENDCHAR
STARTCHAR 018C
ENCODING 396
SWIDTH 486 0
DWIDTH 27 0
BBX 28 39 4 -1
BITMAP
003FFFF0
003FFFF0
003FFFF0
003FFFE0
000003E0
000003E0
000003E0
000003C0
000003C0
000007C0
000007C0
00000780
000FFF80
003FFF80
00FFFF80
01FFFF00
03F80F00
07E01F00
0FC01F00
1F801E00
1F001E00
3E003E00
3E003E00
7C003E00
7C003C00
78007C00
78007C00
78007C00
78007800
F8007800
7800F800
7800F800
7C00F800
7C03F800
3F0FF800
3FFFF800
1FFF7800
0FFC7800
00C00000
ENDCHAR
STARTCHAR 018D
ENCODING 397
SWIDTH 486 0
DWIDTH 27 0
BBX 26 35 2 -9
BITMAP
000FF800
003FFE00
00FFFF00
01FFFF80
03F81F80
03E00FC0
07E007C0
07C007C0
0F8007C0
0F8003C0
0F8003C0
0F0007C0
0F0007C0
0F000780
0F000F80
0F000F80
0F801F00
0F803E00
07C07C00
07E1F800
03F7F000
01FFE000
00FF8000
007F0000
001F8000
000FC000
0007C000
0003C000
0003C000
0003C000
6007C000
7C1F8000
7FFF8000
FFFF0000
3FFC0000
ENDCHAR
STARTCHAR 018E
ENCODING 398
SWIDTH 486 0
DWIDTH 27 0
BBX 28 34 2 0
BITMAP
007FFFF0
007FFFF0
007FFFF0
00FFFFF0
000001E0
000001E0
000003E0
000003E0
000003C0
000003C0
000007C0
000007C0
00000780
00000780
01FFFF80
01FFFF80
01FFFF80
01FFFF00
00001F00
00001F00
00001F00
00001E00
00003E00
00003E00
00003E00
00003C00
00003C00
00007C00
00007C00
00007800
7FFFF800
FFFFF800
FFFFF800
FFFFF000
ENDCHAR
STARTCHAR 018F
ENCODING 399
SWIDTH 486 0
DWIDTH 27 0
BBX 26 36 4 -1
BITMAP
003FE000
01FFF800
03FFFC00
03FFFE00
03803F00
02001F00
00000F80
00000F80
00000780
000007C0
000007C0
000007C0
000007C0
000007C0
000007C0
000007C0
000007C0
7FFFFF80
7FFFFF80
7FFFFF80
7FFFFF80
F8000F80
F8000F00
F8001F00
F8001F00
F8003E00
F8003E00
F8007C00
F800F800
7C01F800
7C03F000
7F0FE000
3FFFC000
1FFF8000
0FFE0000
01F00000
ENDCHAR
STARTCHAR 0190
ENCODING 400
SWIDTH 486 0
DWIDTH 27 0
BBX 27 36 5 -1
BITMAP
0003FE00
001FFFC0
007FFFE0
00FFFFC0
01FC0380
03F00080
07E00000
07C00000
07800000
07800000
07800000
07800000
07C00000
07E00000
03F80000
01FFF000
007FE000
03FFE000
0FFFE000
1FC00000
3F000000
7C000000
F8000000
F8000000
F0000000
F0000000
F0000000
F0000000
F0000000
F8000000
FC003800
7F81F800
7FFFF800
3FFFF800
0FFFE000
00F80000
ENDCHAR
STARTCHAR 0191
ENCODING 401
SWIDTH 486 0
DWIDTH 27 0
BBX 36 43 -4 -9
BITMAP
0000FFFFF0
0000FFFFE0
0000FFFFE0
0001FFFFE0
0001F00000
0001E00000
0001E00000
0003E00000
0003E00000
0003C00000
0003C00000
0007C00000
0007C00000
0007800000
0007FFFC00
000FFFFC00
000FFFFC00
000FFFFC00
000F000000
001F000000
001F000000
001F000000
001E000000
003E000000
003E000000
003E000000
003C000000
003C000000
007C000000
007C000000
0078000000
0078000000
00F8000000
00F8000000
00F0000000
00F0000000
01F0000000
01F0000000
03E0000000
6FE0000000
7FC0000000
7F80000000
FF00000000
ENDCHAR
STARTCHAR 0192
ENCODING 402
SWIDTH 486 0
DWIDTH 27 0
BBX 33 47 0 -8
BITMAP
000003FF80
00000FFF80
00001FFF00
00003FEF00
00003E0000
00007C0000
00007C0000
0000F80000
0000F80000
0000F80000
0000F00000
0001F00000
003FFFFC00
003FFFFC00
007FFFFC00
007FFFFC00
0003E00000
0003E00000
0003E00000
0003C00000
0003C00000
0007C00000
0007C00000
0007C00000
0007800000
000F800000
000F800000
000F800000
000F000000
000F000000
001F000000
001F000000
001F000000
001E000000
001E000000
003E000000
003E000000
003C000000
003C000000
007C000000
007C000000
00F8000000
01F8000000
7FF0000000
7FF0000000
7FE0000000
FF80000000
ENDCHAR
STARTCHAR 0193
ENCODING 403
SWIDTH 486 0
DWIDTH 27 0
BBX 31 40 4 -1
BITMAP
0000003E
000000FE
000001FC
000001FC
0003FFC0
001FFF80
003FFF80
00FFFF00
01FE0700
03F00000
07E00000
07C00000
0F800000
0F000000
1F000000
1E000000
3E000000
3C000000
3C000000
7C000000
7C000000
78000000
78001F00
78001E00
78001E00
F8003E00
F8003E00
F8003C00
F8003C00
F8007C00
78007C00
7C007800
7C007800
7E00F800
3F00F800
1FC3F800
1FFFF000
0FFFF000
03FFE000
007C0000
ENDCHAR
STARTCHAR 0194
ENCODING 404
SWIDTH 486 0
DWIDTH 27 0
BBX 28 43 6 -9
BITMAP
3E0001F0
3E0003E0
3E0003C0
3E0007C0
1E000F80
1E000F80
1F001F00
1F001E00
1F003E00
0F007C00
0F007800
0F00F800
0F00F000
0F81F000
0783E000
0783C000
0787C000
078F8000
07CF0000
03DF0000
03FE0000
03FC0000
03FC0000
01F80000
01F00000
01F00000
03F00000
07F00000
0FF80000
0FF80000
1F780000
3E7C0000
3C7C0000
783C0000
783C0000
F83C0000
F03C0000
F07C0000
F87C0000
FFF80000
7FF00000
7FE00000
1F800000
ENDCHAR
STARTCHAR 0195
ENCODING 405
SWIDTH 486 0
DWIDTH 27 0
BBX 29 39 2 0
BITMAP
00F80000
00F80000
00F00000
00F00000
01F00000
01F00000
01E00000
01E00000
03E00000
03E00000
03C00000
03C00000
03FF00F8
07FF80F8
07FFC0F0
07FFC0F0
0787C1F0
0F83C1F0
0F83C1E0
0F07C1E0
0F0783E0
1F0783E0
1F0783C0
1E0F03C0
1E0F07C0
3E0F07C0
3E0F0780
3C1E0780
3C1E0F80
3C1E0F80
7C1E0F00
781E0F00
781E1F00
781E1E00
F81F7E00
F01FFC00
F01FFC00
F00FF000
00018000
ENDCHAR
STARTCHAR 0196
ENCODING 406
SWIDTH 486 0
DWIDTH 27 0
BBX 18 35 11 -1
BITMAP
FFFFC0
FFFFC0
FFFFC0
FFFF80
07C000
07C000
07C000
078000
0F8000
0F8000
0F8000
0F0000
0F0000
1F0000
1F0000
1E0000
1E0000
3E0000
3E0000
3C0000
3C0000
7C0000
7C0000
7C0000
780000
F80000
F80000
F80000
F80000
F80000
FC1800
7FF800
7FF800
3FF800
0F8000
ENDCHAR
STARTCHAR 0197
ENCODING 407
SWIDTH 486 0
DWIDTH 27 0
BBX 26 34 4 0
BITMAP
00FFFFC0
00FFFFC0
00FFFF80
01FFFF80
0003C000
0007C000
0007C000
0007C000
00078000
00078000
000F8000
000F8000
000F0000
000F0000
03FFF800
03FFF800
03FFF000
07FFF000
003E0000
003E0000
003C0000
003C0000
007C0000
007C0000
00780000
00780000
00F80000
00F80000
00F80000
00F00000
7FFFE000
7FFFC000
FFFFC000
FFFFC000
ENDCHAR
STARTCHAR 0198
ENCODING 408
SWIDTH 486 0
DWIDTH 27 0
BBX 32 35 3 0
BITMAP
000000FC
01F003FE
01F007FF
01F00FFE
01E01F8C
01E03F00
03E07E00
03E07C00
03C0F800
03C1F000
07C3E000
07C7C000
078F8000
079F0000
0FBE0000
0FFC0000
0FF80000
0FF80000
1FFC0000
1F7E0000
1F3E0000
1E1F0000
3E0F8000
3E0F8000
3E07C000
3C03E000
3C03E000
7C01F000
7C01F000
7800F800
7800F800
F8007C00
F8007C00
F0007C00
F0003E00
ENDCHAR
STARTCHAR 0199
ENCODING 409
SWIDTH 486 0
DWIDTH 27 0
BBX 26 38 4 1
BITMAP
001FE000
003FC000
007FC000
00FC4000
00F80000
01F00000
01F00000
01E00000
01E00000
03E00000
03E00000
03C00000
03C007C0
07C01F80
07C03F00
07807E00
0780FC00
0F83F000
0F87E000
0F0FC000
0F1F8000
1F7E0000
1FFC0000
1FF80000
1FF80000
3EFC0000
3E7C0000
3E3E0000
3C1F0000
3C1F8000
7C0F8000
7C07C000
7807E000
7803E000
F801F000
F801F000
F000F800
F000F800
ENDCHAR
STARTCHAR 019A
ENCODING 410
SWIDTH 486 0
DWIDTH 27 0
BBX 20 39 6 -1
BITMAP
07FF80
0FFF00
0FFF00
0FFF00
001F00
001F00
001E00
003E00
003E00
003E00
003C00
007C00
007C00
007C00
007800
007800
7FFFF0
7FFFF0
FFFFF0
FFFFE0
01F000
01F000
01E000
01E000
03E000
03E000
03C000
03C000
07C000
07C000
07C000
07C000
07C000
07C000
07E1C0
03FFC0
03FFE0
01FFC0
001C00
ENDCHAR
STARTCHAR 019B
ENCODING 411
SWIDTH 486 0
DWIDTH 27 0
BBX 25 38 2 1
BITMAP
00FF0000
00FF8000
00FFC000
0087C180
0003EF80
0001FF80
0003FF00
003FF800
007FF000
003CF000
0020F000
0000F000
0001F000
0001F800
0003F800
0007F800
000FF800
000F7800
001F7800
003E7800
007C7C00
00787C00
00F83C00
01F03C00
01F03C00
03E03C00
07C03C00
07C03C00
0F803C00
0F803C00
1F003C00
1E003E00
3E003E00
3C003E00
7C003E00
7C003E00
F8003E00
F8003E00
ENDCHAR
STARTCHAR 019C
ENCODING 412
SWIDTH 486 0
DWIDTH 27 0
BBX 29 35 3 -1
BITMAP
03E00078
03C00078
03C000F8
03C000F0
03C000F0
07C000F0
078001F0
078001E0
078001E0
0F8001E0
0F0003E0
0F0003C0
0F0003C0
1F0783C0
1E0F83C0
1E0F0780
1E0F0780
3E0F0780
3C1F0780
3C1E0F00
3C1E0F00
3C1E0F00
783E0F00
783C1F00
783C1E00
783C1E00
F83C1E00
F0783E00
F0783C00
F0783C00
F8FC7C00
FFFFFC00
7FFFF800
7F9FF800
0C078000
ENDCHAR
STARTCHAR 019D
ENCODING 413
SWIDTH 486 0
DWIDTH 27 0
BBX 38 43 -6 -9
BITMAP
0000F8003C
0000FC003C
0000FC0078
0000FC0078
0001FE0078
0001FE0078
0001FE00F8
0001FF00F0
0003CF00F0
0003CF00F0
0003CF01F0
0003C781E0
00078781E0
00078781E0
000787C3E0
000783C3C0
000F83C3C0
000F03C3C0
000F03E7C0
000F01E780
000F01E780
001E01E780
001E00EF80
001E00FF00
001E00FF00
003C00FF00
003C00FF00
003C007E00
003C007E00
007C007E00
0078007E00
0078007E00
0078003C00
00F8003C00
00F0000000
00F0000000
00F0000000
01F0000000
03E0000000
6FE0000000
7FC0000000
7F80000000
FF00000000
ENDCHAR
STARTCHAR 019E
ENCODING 414
SWIDTH 486 0
DWIDTH 27 0
BBX 23 35 4 -9
BITMAP
00FFE0
07FFF8
07FFFC
07FFFE
07807E
0F803E
0F801E
0F801E
0F001E
1F001E
1F001E
1F003E
1E003E
3E003E
3E003C
3E007C
3C007C
3C007C
7C0078
7C00F8
7800F8
7800F8
F800F0
F800F0
F001F0
F001F0
0001E0
0001E0
0003E0
0003E0
0003C0
0003C0
0007C0
0007C0
000780
ENDCHAR
STARTCHAR 019F
ENCODING 415
SWIDTH 486 0
DWIDTH 27 0
BBX 26 36 4 -1
BITMAP
0007F000
001FFC00
007FFE00
00FFFF00
01F81F80
03F00F80
03E00F80
07C007C0
0F8007C0
0F8007C0
1F0007C0
1F0007C0
1E0007C0
3E0007C0
3C0007C0
3C000780
7FFFFF80
7FFFFF80
7FFFFF80
7FFFFF80
78000F00
F8001F00
F8001F00
F8001E00
F8003E00
F8003C00
F8007C00
F8007800
7800F800
7C01F000
7E03E000
3F0FE000
3FFFC000
1FFF0000
0FFE0000
01E00000
ENDCHAR
STARTCHAR 01A0
ENCODING 416
SWIDTH 486 0
DWIDTH 27 0
BBX 30 41 4 -1
BITMAP
0000003C
0000003C
0000007C
0000007C
00000078
000FF0F8
003FFCF0
007FFFF0
00FFFFE0
01F83FC0
03E01F80
07C00F80
07C00F80
0F800F80
0F000F80
1F000F80
1E000F80
3E000F80
3E000F80
3C000F80
3C000F80
7C000F00
7C000F00
78000F00
78001F00
78001F00
F8001E00
F8003E00
F8003E00
F8003C00
F8007C00
F8007800
F800F800
7801F000
7C03F000
7C07E000
3F1FC000
3FFF8000
1FFF0000
0FFC0000
01E00000
ENDCHAR
STARTCHAR 01A1
ENCODING 417
SWIDTH 486 0
DWIDTH 27 0
BBX 28 32 4 -1
BITMAP
000000F0
000000F0
000000F0
000001F0
000001E0
003FE3E0
00FFF3C0
01FFFF80
03FFFF80
07E07E00
0FC03E00
1F803E00
1F003E00
3E003E00
3E003E00
3C003E00
7C003E00
7C003E00
78003E00
78003C00
78007C00
F8007C00
F800F800
F800F800
7801F000
7C03F000
7C07E000
7FFFC000
3FFF8000
1FFF0000
0FFC0000
01C00000
ENDCHAR
STARTCHAR 01A2
ENCODING 418
SWIDTH 486 0
DWIDTH 27 0
BBX 28 36 3 -1
BITMAP
003F0FC0
007FBFE0
00FFFFF0
01FFFFF0
03E3E1F0
07C1E0F0
0781E0F0
0F81E0F0
0F01E1F0
1F01E1E0
1F01E1E0
1E01E1E0
3E01E3E0
3E03E3E0
3C03E3C0
3C03E3C0
7C03C7C0
7C03C7C0
7803C780
7807C780
7807CF80
F8078F80
F8078F00
F80F8F00
F80F0F00
F00F1F00
F01F1E00
F01E1E00
F03E1E00
F83C3E00
F87C3C00
7CF83C00
7FF03C00
7FE07C00
3FC07800
06000000
ENDCHAR
STARTCHAR 01A3
ENCODING 419
SWIDTH 486 0
DWIDTH 27 0
BBX 26 35 3 -9
BITMAP
01FC7F00
03FFFF80
07FFFF80
0FFFFF80
1F0F0780
1E0F07C0
3E0F0780
3C0F0780
3C0F0780
7C0F0780
780F0F80
780F0F80
780F0F00
F80F0F00
F81F0F00
F01E1F00
F01E1E00
F01E1E00
F03C1E00
F03C3E00
F07C3C00
F8783C00
7DF83C00
7FF07C00
7FE07C00
3FC07800
06007800
0000F800
0000F800
0000F000
0000F000
0001F000
0001F000
0001E000
0001E000
ENDCHAR
STARTCHAR 01A4
ENCODING 420
SWIDTH 486 0
DWIDTH 27 0
BBX 25 35 6 0
BITMAP
007F8000
07FFF000
1FFFFC00
3FFFFE00
7E787E00
F8F81F00
F0F80F00
F0F00F00
F0F00F80
E1F00F80
81F00F80
01E00F00
01E00F00
03E01F00
03E01F00
03C03E00
03C07E00
07C0FC00
07FFF800
07FFF000
07FFC000
0FFF0000
0F800000
0F800000
0F000000
1F000000
1F000000
1F000000
1E000000
3E000000
3E000000
3E000000
3C000000
3C000000
7C000000
ENDCHAR
STARTCHAR 01A5
ENCODING 421
SWIDTH 486 0
DWIDTH 27 0
BBX 27 48 1 -9
BITMAP
00002000
0007F800
000FF800
001FF800
001F8000
003E0000
003E0000
003C0000
007C0000
007C0000
007C0000
00780000
00780000
00FFFC00
00FFFF00
00FFFF80
00FFFFC0
01F00FC0
01F003E0
01E003E0
01E003E0
03E003E0
03E003E0
03E003E0
03C003E0
07C003E0
07C003E0
07C003C0
078007C0
0F8007C0
0F800F80
0F801F80
0F003F00
1F007E00
1F01FC00
1FFFF800
1FFFF000
1FFFE000
3FFF0000
3EE00000
3C000000
3C000000
7C000000
7C000000
78000000
78000000
F8000000
F8000000
ENDCHAR
STARTCHAR 01A6
ENCODING 422
SWIDTH 486 0
DWIDTH 27 0
BBX 26 44 3 -5
BITMAP
00780000
00F80000
00F80000
00F80000
00FFE000
00FFFC00
01FFFF00
01FFFF80
01E03F80
01E00FC0
03E007C0
03E003C0
03C003C0
03C003C0
07C003C0
07C003C0
078007C0
07800780
0F800F80
0F801F00
0F003F00
0F07FE00
1FFFF800
1FFFF000
1FFFC000
1E07C000
3E07C000
3E03E000
3E03E000
3C01E000
3C01F000
7C01F000
7C00F800
7800F800
78007800
F8007800
F8007C00
F0007C00
F0003C00
00003E00
00003E00
00001E00
00001E00
00001F00
ENDCHAR
STARTCHAR 01A7
ENCODING 423
SWIDTH 486 0
DWIDTH 27 0
BBX 26 36 4 -1
BITMAP
001FF800
00FFFE00
01FFFF00
01FFFF80
01E01F80
00800F80
000007C0
000007C0
000007C0
00000780
00000780
00000F80
00001F00
00003F00
0001FE00
0007FC00
003FF000
01FFC000
03FF0000
0FF80000
1FE00000
3F800000
3E000000
7C000000
78000000
F8000000
F8000000
F8000000
F8000000
F8000000
7C003000
7F01F800
3FFFF800
1FFFF800
0FFFE000
00FC0000
ENDCHAR
STARTCHAR 01A8
ENCODING 424
SWIDTH 486 0
DWIDTH 27 0
BBX 23 27 4 -1
BITMAP
01FFE0
07FFF8
07FFFC
07E1FC
06003E
00003E
00003E
00003E
00007C
0000FC
0007F8
003FF0
01FFC0
07FF00
1FF800
3FC000
7E0000
7C0000
780000
F80000
F80000
FC0020
7F03E0
7FFFE0
3FFFE0
0FFFC0
007800
ENDCHAR
STARTCHAR 01A9
ENCODING 425
SWIDTH 486 0
DWIDTH 27 0
BBX 31 34 1 0
BITMAP
007FFFFE
00FFFFFE
00FFFFFC
007FFFFC
007C0000
003C0000
003E0000
001E0000
001F0000
000F0000
000F8000
00078000
0007C000
0003C000
0003E000
0001F000
0001F000
0003E000
0007C000
000F8000
003F0000
007E0000
00FC0000
01F80000
03F00000
07E00000
0FC00000
1F800000
3F000000
3E000000
7FFFFF00
7FFFFE00
FFFFFE00
FFFFFE00
ENDCHAR
STARTCHAR 01AA
ENCODING 426
SWIDTH 486 0
DWIDTH 27 0
BBX 16 47 9 -8
BITMAP
0FF8
1FFC
3FFE
7C3E
781E
F01F
F01F
F01E
F03E
F07E
7FFE
7FFE
3FBC
047C
007C
007C
0078
00F8
00F8
00F8
00F0
00F0
01F0
01F0
01E0
01E0
03E0
03E0
03E0
03C0
07C0
07C0
07C0
0780
0F80
0F80
0F80
0F00
0F00
1F00
1F00
0F80
0F80
0FFC
0FFC
07FC
01FC
ENDCHAR
STARTCHAR 01AB
ENCODING 427
SWIDTH 486 0
DWIDTH 27 0
BBX 23 43 6 -9
BITMAP
000C00
007C00
007800
00F800
00F800
00F800
00F000
01F000
7FFFFE
7FFFFE
FFFFFE
FFFFFE
03E000
03E000
03C000
03C000
07C000
07C000
078000
078000
0F8000
0F8000
0F0000
0F0000
1F0000
1F0000
1F0000
1F0000
1F0000
1F0000
1FE1E0
0FFFE0
07FFE0
03FFC0
0003C0
0003C0
0003C0
0007C0
000780
001F80
01FF00
01FE00
01FC00
ENDCHAR
STARTCHAR 01AC
ENCODING 428
SWIDTH 486 0
DWIDTH 27 0
BBX 26 34 7 0
BITMAP
07FFFFC0
1FFFFFC0
3FFFFFC0
7FFFFF80
780F0000
F01F0000
F01F0000
F01E0000
F01E0000
803E0000
003E0000
003C0000
003C0000
007C0000
007C0000
00780000
00780000
00F80000
00F80000
00F80000
00F00000
01F00000
01F00000
01F00000
01E00000
03E00000
03E00000
03E00000
03C00000
03C00000
07C00000
07C00000
07800000
07800000
ENDCHAR
STARTCHAR 01AD
ENCODING 429
SWIDTH 486 0
DWIDTH 27 0
BBX 25 40 7 -1
BITMAP
00001000
0003FF80
000FFF80
001FFF00
003FCF00
007E0000
00F80000
00F80000
00F00000
01F00000
01F00000
01E00000
03E00000
7FFFF800
7FFFF800
FFFFF000
FFFFF000
07C00000
07C00000
07800000
07800000
0F800000
0F800000
0F000000
0F000000
1F000000
1F000000
1E000000
1E000000
3E000000
3E000000
3E000000
3E000000
3E000000
3E008000
3FCF8000
1FFF8000
0FFF8000
07FF0000
00600000
ENDCHAR
STARTCHAR 01AE
ENCODING 430
SWIDTH 486 0
DWIDTH 27 0
BBX 25 43 8 -9
BITMAP
7FFFFF80
7FFFFF00
7FFFFF00
FFFFFF00
003C0000
007C0000
007C0000
00780000
00780000
00F80000
00F80000
00F00000
00F00000
01F00000
01F00000
01F00000
01E00000
03E00000
03E00000
03E00000
03C00000
07C00000
07C00000
07C00000
07800000
0F800000
0F800000
0F800000
0F000000
0F000000
1F000000
1F000000
1E000000
1E000000
3E000000
3E000000
3E000000
3C000000
3E000000
3FA00000
3FE00000
1FE00000
0FE00000
ENDCHAR
STARTCHAR 01AF
ENCODING 431
SWIDTH 486 0
DWIDTH 27 0
BBX 34 41 3 -1
BITMAP
00000007C0
00000007C0
00000007C0
0000000780
0000000F80
0000003F00
03E003FE00
03C003FC00
03C007F000
07C007C000
07C007C000
0780078000
0780078000
0F800F8000
0F800F8000
0F000F0000
0F000F0000
1F001F0000
1F001F0000
1E001E0000
1E001E0000
3E003E0000
3E003E0000
3C003E0000
3C003C0000
7C007C0000
7C007C0000
7C007C0000
7800780000
7800F80000
7800F80000
F800F00000
7801F00000
7801F00000
7803E00000
7C07E00000
7F1FC00000
3FFF800000
1FFF000000
0FFE000000
03F0000000
ENDCHAR
STARTCHAR 01B0
ENCODING 432
SWIDTH 486 0
DWIDTH 27 0
BBX 29 32 4 -1
BITMAP
00000078
00000078
00000078
000000F8
000001F0
0F803FF0
0F003FE0
0F003F80
1F003C00
1F003C00
1E007C00
1E007C00
3E007800
3E007800
3C00F800
3C00F800
7C00F000
7C00F000
7801F000
7801F000
F801E000
F801E000
F803E000
F803E000
F803E000
F807E000
FC0FE000
7E3FE000
7FFFE000
3FF9E000
1FF1E000
01000000
ENDCHAR
STARTCHAR 01B1
ENCODING 433
SWIDTH 486 0
DWIDTH 27 0
BBX 30 35 4 -1
BITMAP
0FFE1FFC
0FFE3FFC
0FFC3FF8
1FF81FF8
00F01F00
01E00F00
03E00F00
07C00F80
07800F80
0F800780
0F000780
1F000780
1E000780
3E000780
3C000780
7C000780
7C000F80
78000F80
F8000F80
F8000F80
F8000F80
F8001F00
F8001F00
F8001F00
F8003E00
F8003E00
F8007C00
F800FC00
FC01F800
7E03F000
7FDFE000
3FFFC000
1FFF8000
0FFE0000
01F00000
ENDCHAR
STARTCHAR 01B2
ENCODING 434
SWIDTH 486 0
DWIDTH 27 0
BBX 25 36 4 -1
BITMAP
00006000
07C1FC00
07C1FE00
07C1FF00
07801F80
07800F80
0F800780
0F800780
0F000780
0F000780
1F000780
1F000780
1E000780
1E000780
3E000780
3E000780
3C000780
3C000F80
7C000F80
7C000F00
7C000F00
78001F00
F8001E00
F8003E00
F8003E00
F8007C00
F0007C00
F000F800
F801F000
F803F000
F807E000
7E3FC000
7FFF8000
3FFE0000
1FFC0000
03E00000
ENDCHAR
STARTCHAR 01B3
ENCODING 435
SWIDTH 486 0
DWIDTH 27 0
BBX 28 35 7 0
BITMAP
000003C0
F0000FE0
F8001FF0
F8003FE0
F8007C40
78007800
7800F800
7801F000
7C01E000
7C03E000
3C07C000
3C078000
3E0F8000
1E1F0000
1E1E0000
1E3E0000
0F7C0000
0F780000
0FF80000
07F00000
07E00000
07E00000
07C00000
07C00000
07C00000
07800000
0F800000
0F800000
0F800000
0F000000
0F000000
1F000000
1F000000
1E000000
1E000000
ENDCHAR
STARTCHAR 01B4
ENCODING 436
SWIDTH 486 0
DWIDTH 27 0
BBX 33 35 -1 -9
BITMAP
00F8003F80
00F800FF80
00F800FF00
00F801F100
00F801E000
00F803E000
00F803C000
00F807C000
007807C000
00780F8000
00780F8000
00780F0000
00781F0000
00781E0000
007C3E0000
007C3C0000
007C7C0000
003C780000
003CF80000
003CF00000
003FF00000
003FE00000
001FE00000
001FC00000
001F800000
000F800000
001F000000
001F000000
003E000000
007C000000
01F8000000
7FF0000000
FFE0000000
FFC0000000
FF00000000
ENDCHAR
STARTCHAR 01B5
ENCODING 437
SWIDTH 486 0
DWIDTH 27 0
BBX 30 34 2 0
BITMAP
007FFFFC
00FFFFF8
00FFFFF8
00FFFFF8
000001F0
000003E0
000007C0
00000F80
00001F00
00003E00
00007C00
0000F800
0001F800
0001F000
03FFFF80
03FFFF80
03FFFF80
03FFFF00
003E0000
007E0000
007C0000
00F80000
01F00000
03E00000
07C00000
07C00000
0F800000
1F000000
3E000000
7E000000
7FFFFE00
7FFFFE00
FFFFFC00
FFFFFC00
ENDCHAR
STARTCHAR 01B6
ENCODING 438
SWIDTH 486 0
DWIDTH 27 0
BBX 25 26 3 0
BITMAP
01FFFF80
01FFFF80
01FFFF80
03FFFF00
00003E00
00007C00
0000F800
0001F000
0003E000
0007C000
000F8000
07FFFC00
07FFFC00
07FFFC00
00F80000
01F00000
03E00000
07C00000
0FC00000
0F800000
1F000000
3E000000
7FFFF000
7FFFF000
7FFFF000
FFFFF000
ENDCHAR
STARTCHAR 01B7
ENCODING 439
SWIDTH 486 0
DWIDTH 27 0
BBX 30 35 2 -1
BITMAP
007FFFFC
007FFFF8
00FFFFF8
00FFFFF0
000003E0
000007C0
00000F80
00001F00
00003E00
00007C00
0000F800
0001F000
0003E000
000F8000
001F8000
001FF800
001FFC00
0001FE00
00003F00
00001F00
00000F80
00000F80
00000F80
00000F80
00000F80
00000F00
00001F00
00001F00
00003E00
2000FE00
7C0FFC00
7FFFF800
FFFFE000
3FFF8000
03F80000
ENDCHAR
STARTCHAR 01B8
ENCODING 440
SWIDTH 486 0
DWIDTH 27 0
BBX 27 35 5 -1
BITMAP
01FFFFE0
01FFFFE0
03FFFFC0
01FFFFC0
01F00000
00F00000
00F80000
00780000
003C0000
003E0000
001E0000
001F0000
000F0000
000F8000
001FC000
01FFC000
07FF8000
0FFF8000
1FC00000
3F000000
7E000000
7C000000
F8000000
F8000000
F8000000
F8000000
F8000000
F8000000
F8000000
7E001000
7F81F000
3FFFF800
1FFFF800
07FFE000
00FC0000
ENDCHAR
STARTCHAR 01B9
ENCODING 441
SWIDTH 486 0
DWIDTH 27 0
BBX 26 35 4 -9
BITMAP
01FFFFC0
01FFFF80
01FFFF80
01FFFF80
01F00000
00F00000
00F80000
00780000
007C0000
003C0000
003E0000
001E0000
000F0000
000F8000
00078000
00FFC000
03FFC000
0FFF8000
1FF00000
3F800000
3E000000
7C000000
78000000
F8000000
F8000000
F8000000
F8000000
F8000000
F8000000
FC000000
7E00E000
7FFFE000
3FFFE000
0FFFE000
03FF0000
ENDCHAR
STARTCHAR 01BA
ENCODING 442
SWIDTH 486 0
DWIDTH 27 0
BBX 26 35 2 -9
BITMAP
00FFFFC0
01FFFFC0
01FFFFC0
01FFFF80
00000F00
00001E00
00007C00
0000F800
0001F000
0003E000
000F8000
001F0000
003F0000
003FE000
003FF800
0001FC00
00007C00
00003C00
00003C00
00003C00
00003C00
00007C00
0000FC00
0001F800
000FF000
01FFE000
0FFF8000
3FFE0000
7FE00000
FC000000
F0000000
F0000000
E0000000
E0000000
F0000000
ENDCHAR
STARTCHAR 01BB
ENCODING 443
SWIDTH 486 0
DWIDTH 27 0
BBX 26 35 3 0
BITMAP
000FF800
003FFE00
00FFFF00
01FFFF80
01F00F80
00C00F80
008007C0
000007C0
000007C0
000007C0
00000780
00000F80
00000F80
00001F00
00003E00
00007E00
0000FC00
03FFFF80
03FFFF80
07FFFF80
07FFFF00
007F0000
00FC0000
01F80000
03F00000
07E00000
0F800000
1F000000
1F000000
3E000000
3E000000
7FFFF800
7FFFF800
7FFFF800
FFFFF800
ENDCHAR
STARTCHAR 01BC
ENCODING 444
SWIDTH 486 0
DWIDTH 27 0
BBX 27 35 4 -1
BITMAP
03FFFFE0
03FFFFE0
07FFFFC0
07FFFFC0
007C0000
00780000
00780000
00F80000
00F00000
00F00000
01F00000
01E00000
01E00000
03FE0000
03FFC000
03FFF000
00FFF800
0003F800
0000FC00
00007C00
00003E00
00003E00
00003E00
00003E00
00003E00
00003C00
00007C00
0000FC00
0001F800
4003F000
F81FF000
FFFFE000
FFFF8000
7FFE0000
07E00000
ENDCHAR
STARTCHAR 01BD
ENCODING 445
SWIDTH 486 0
DWIDTH 27 0
BBX 23 27 5 -1
BITMAP
0FFFFE
0FFFFE
0FFFFE
0FFFFC
01E000
01E000
03E000
03C000
03C000
07C000
07FE00
07FF80
0FFFC0
007FE0
0003F0
0001F0
0000F0
0000F0
0000F0
0001F0
0001F0
0003E0
7C1FE0
7FFFC0
FFFF80
FFFE00
03C000
ENDCHAR
STARTCHAR 01BE
ENCODING 446
SWIDTH 486 0
DWIDTH 27 0
BBX 23 35 5 -1
BITMAP
000600
003E00
003C00
007C00
007C00
007C00
007800
00F800
1FFFFE
1FFFFE
3FFFFC
3FFFFC
01F000
01F000
01E000
01E000
01F000
01F000
01FC00
00FF00
007FC0
001FE0
0007F0
0001F8
0000F8
0000F8
000078
0000F8
0000F8
6001F0
7C0FF0
FFFFE0
FFFFC0
3FFF00
03F000
ENDCHAR
STARTCHAR 01BF
ENCODING 447
SWIDTH 486 0
DWIDTH 27 0
BBX 27 35 1 -9
BITMAP
001FFC00
00FFFF00
00FFFF80
01FFFFC0
01F00FC0
01F007E0
01E003E0
03E003E0
03E003E0
03E003E0
03C003E0
03C003E0
07C003E0
07C003C0
078007C0
078007C0
0F800F80
0F801F80
0F003F00
0F007E00
1F00FC00
1F03F800
1F0FF000
1E3FE000
3FFF8000
3FFE0000
3FF80000
3FC00000
7E000000
7C000000
7C000000
78000000
F8000000
F8000000
F8000000
ENDCHAR
STARTCHAR 01C0
ENCODING 448
SWIDTH 486 0
DWIDTH 27 0
BBX 15 48 9 -9
BITMAP
001E
001E
003E
003E
003C
003C
003C
007C
0078
0078
0078
00F8
00F0
00F0
00F0
01F0
01E0
01E0
01E0
03E0
03E0
03C0
03C0
07C0
07C0
0780
0780
0F80
0F80
0F00
0F00
1F00
1F00
1E00
1E00
1E00
3E00
3C00
3C00
3C00
7C00
7800
7800
7800
F800
F000
F000
F000
ENDCHAR
STARTCHAR 01C1
ENCODING 449
SWIDTH 486 0
DWIDTH 27 0
BBX 25 48 4 -9
BITMAP
001E0780
001E0780
003E0F80
003E0F00
003C0F00
003C0F00
007C1F00
007C1F00
00781E00
00781E00
00F83E00
00F83E00
00F03C00
00F03C00
00F07C00
01F07C00
01E07800
01E07800
01E07800
03E0F800
03C0F000
03C0F000
03C0F000
07C1F000
0781E000
0781E000
0781E000
0F83E000
0F83C000
0F03C000
0F03C000
1F07C000
1F07C000
1E078000
1E078000
3E0F8000
3E0F8000
3C0F0000
3C0F0000
3C1F0000
7C1F0000
781E0000
781E0000
783E0000
F83E0000
F03C0000
F03C0000
F03C0000
ENDCHAR
STARTCHAR 01C2
ENCODING 450
SWIDTH 486 0
DWIDTH 27 0
BBX 27 48 3 -9
BITMAP
00007800
00007800
0000F800
0000F000
0000F000
0000F000
0001F000
0001E000
0001E000
0001E000
0003E000
0003E000
0003C000
0003C000
0003C000
0007C000
00078000
1FFFFFE0
1FFFFFE0
1FFFFFC0
3FFFFFC0
000F0000
000F0000
001F0000
001E0000
001E0000
001E0000
7FFFFF00
FFFFFF00
FFFFFF00
FFFFFF00
007C0000
00780000
00780000
00780000
00F80000
00F00000
00F00000
00F00000
00F00000
01F00000
01E00000
01E00000
01E00000
03E00000
03C00000
03C00000
03C00000
ENDCHAR
STARTCHAR 01C3
ENCODING 451
SWIDTH 486 0
DWIDTH 27 0
BBX 13 35 10 -1
BITMAP
00F8
00F8
01F0
01F0
01F0
01F0
03E0
03E0
03E0
03E0
07C0
07C0
07C0
07C0
0780
0F80
0F80
0F00
0F00
0F00
0E00
0E00
0000
0000
0000
0000
0000
3800
FC00
FE00
FE00
FE00
FC00
FC00
3000
ENDCHAR
STARTCHAR 01C4
ENCODING 452
SWIDTH 486 0
DWIDTH 27 0
BBX 36 45 1 0
BITMAP
0000004000
000000E070
00000070F0
00000039E0
0000003F80
0000001F00
0000000E00
0000000C00
0000000000
0000000000
003E000000
00FF80FF80
00FF81FF80
00FFC1FF80
01E3C1FF00
01E1E00F00
01E1E01E00
01E1E01E00
03C1E03C00
03C1E03C00
03C1E07800
03C1E07800
0781E0F000
0781E0F000
0783E1E000
0783C1E000
0703C3C000
0F03C3C000
0F03C78000
0F07878000
0F078F0000
1E078F0000
1E0F8E0000
1E0F1E0000
1E0F1C0000
3C1E3C0000
3C1E380000
3C3C780000
3C7C780000
7878F00000
78F8F00000
7FF1FFC000
7FE1FFC000
FFC1FFC000
FF01FF8000
ENDCHAR
STARTCHAR 01C5
ENCODING 453
SWIDTH 486 0
DWIDTH 27 0
BBX 34 36 1 0
BITMAP
0000004080
003C00C3C0
00FF00E780
00FF80FF00
01FFC07E00
01E7C03800
01E3E01000
01E1E00000
03C1E00000
03C1E00000
03C1E3FF00
03C1E3FF00
03C1E3FE00
0781E3FE00
0783E01E00
0783C03C00
0783C07800
0F03C07800
0F03C0F000
0F07C0F000
0F0781E000
1E0781C000
1E0783C000
1E0F078000
1E0F078000
3C1F0F0000
3C1E0F0000
3C3E1E0000
3C3C1E0000
787C3C0000
7878380000
78F0780000
7FF07FE000
7FE0FFE000
FF80FFC000
FF00FFC000
ENDCHAR
STARTCHAR 01C6
ENCODING 454
SWIDTH 486 0
DWIDTH 27 0
BBX 35 39 1 0
BITMAP
00007C0000
0000780000
0000780040
00007861E0
0000F873C0
0000F07F80
0000F03F00
0000F01C00
0000F00800
0001E00000
0001E00000
0001E00000
00FFE3FF00
01FFC3FE00
03FFC3FE00
07C3C7FE00
0F83C01E00
0F07803C00
1F07807800
1E07807800
3E0780F000
3C0F00E000
7C0F01E000
7C0F03C000
780F03C000
781F078000
F81E078000
F81E0F0000
F81E0F0000
F03E1E0000
F03C1C0000
F03C3C0000
F03C380000
F83C780000
78787FE000
7FF8FFE000
3FF8FFC000
1FF8FFC000
0780000000
ENDCHAR
STARTCHAR 01C7
ENCODING 455
SWIDTH 486 0
DWIDTH 27 0
BBX 32 34 1 0
BITMAP
00F0001F
01F0001F
01F0001E
01F0001E
01E0003E
03E0003E
03E0003E
03E0003C
03C0007C
03C0007C
07C0007C
07C00078
07800078
078000F8
0F8000F8
0F8000F0
0F0000F0
0F0001F0
1F0001F0
1F0001E0
1E0001E0
1E0003E0
3E0003E0
3E0003C0
3E0003C0
3C0007C0
7C0007C0
7C000780
7C000F80
78001F80
7FF1FF00
FFF3FE00
FFF3FC00
FFF3E000
ENDCHAR
STARTCHAR 01C8
ENCODING 456
SWIDTH 486 0
DWIDTH 27 0
BBX 31 46 1 -9
BITMAP
0000001C
0000003E
0000007E
00F8007E
00F8007E
00F0007E
01F00038
01F00000
01F00000
01E00000
03E00000
03E000F8
03E000F0
03C000F0
03C001F0
07C001F0
07C001E0
078001E0
078003E0
0F8003E0
0F8003C0
0F0003C0
0F0007C0
1F0007C0
1F0007C0
1E000780
1E000F80
3E000F80
3E000F80
3E000F00
3C001F00
7C001F00
7C001F00
7FFC1E00
7FFC1E00
7FFC3E00
FFFC3E00
00003C00
00007C00
00007C00
0000F800
0001F800
007FF000
007FF000
007FE000
007F8000
ENDCHAR
STARTCHAR 01C9
ENCODING 457
SWIDTH 486 0
DWIDTH 27 0
BBX 24 48 5 -9
BITMAP
001000
01E000
03E01C
03E03E
03E07F
03C07F
07C07E
07C07E
07C03C
078000
0F8000
0F8000
0F8000
0F00F8
0F00F0
1F00F0
1F01F0
1E01F0
1E01F0
3E01E0
3E03E0
3C03E0
3C03E0
7C03C0
7C03C0
7C07C0
7807C0
F80780
F80780
F80F80
F00F80
F00F00
F00F00
F81F00
F81F00
FE1E00
7C1E00
7C3E00
1C3E00
003C00
003C00
007C00
00F800
00F800
7FF000
7FF000
7FE000
7F8000
ENDCHAR
STARTCHAR 01CA
ENCODING 458
SWIDTH 486 0
DWIDTH 27 0
BBX 32 34 1 0
BITMAP
00F0780F
01F0780F
01F0700E
01F0701E
01F0701E
01F0F01E
03F0F01E
03F0E03C
03F0E03C
03F1E03C
07F1E03C
0771C078
0771C078
0773C078
0F73C078
0E7380F0
0E7380F0
0E7380F0
1E7780F0
1E7701E0
1C7701E0
1C7701E0
3C7701E0
3C7E03C0
387E03C0
387E03C0
387E03C0
787C0780
707C0780
707C1F00
707CFF00
F07CFE00
E078FC00
E079E000
ENDCHAR
STARTCHAR 01CB
ENCODING 459
SWIDTH 486 0
DWIDTH 27 0
BBX 33 46 1 -9
BITMAP
0000000E00
0000001F00
0000003F80
00F0383F80
00F0383F00
00F0383F00
00F0781E00
01F0780000
01F0700000
01F0700000
01F0F00000
03F0F03C00
03F0E07800
03F0E07800
03F1E07800
0779E07800
0779C0F800
0779C0F000
077BC0F000
0F7BC0F000
0E7B81F000
0E7B81E000
0E7B81E000
1E7B81E000
1E7F03E000
1C7F03C000
1C7F03C000
3C7F03C000
3C7E03C000
387E078000
383E078000
783E078000
783C078000
703C0F0000
703C0F0000
703C0F0000
F03C0F0000
00001E0000
00001E0000
00001E0000
00003C0000
00007C0000
001FF80000
001FF80000
003FF00000
003FC00000
ENDCHAR
STARTCHAR 01CC
ENCODING 460
SWIDTH 486 0
DWIDTH 27 0
BBX 32 46 2 -9
BITMAP
0000001C
0000003E
0000007F
0000007F
0000007E
0000007E
0000003C
00000000
00000000
00000000
00000000
01FF0078
07FF80F0
07FF80F0
07FFC0F0
0783C0F0
0F03C1F0
0F03C1E0
0F03C1E0
0F03C1E0
1E0783E0
1E0783C0
1E0783C0
1E0783C0
3C0F87C0
3C0F0780
3C0F0780
3C0F0780
7C1F0780
781E0F00
781E0F00
781E0F00
F83E0F00
F03C1E00
F03C1E00
F03C1E00
F03C1E00
00003C00
00003C00
00003C00
00007800
0000F800
003FF000
003FF000
007FE000
007F8000
ENDCHAR
STARTCHAR 01CD
ENCODING 461
SWIDTH 486 0
DWIDTH 27 0
BBX 29 46 0 0
BITMAP
00006010
0000F038
0000F0F8
000079F0
00003FE0
00003FC0
00001F00
00000E00
00000400
00000000
00000000
00000000
00003F00
00007F00
0000FF00
0000FF00
0001EF00
0001EF00
0003CF00
0007CF80
00078F80
000F0F80
000F0780
001E0780
001E0780
003C0780
007C0780
00780780
00F80780
00F00780
01F00780
01E00780
03C007C0
03FFFFC0
07FFFFC0
07FFFFC0
0FFFFFC0
0F0007C0
1E0007C0
1E0007C0
3C0007C0
3C0007C0
7C0007C0
780007C0
F80007C0
F00007C0
ENDCHAR
STARTCHAR 01CE
ENCODING 462
SWIDTH 486 0
DWIDTH 27 0
BBX 25 39 4 -1
BITMAP
00060300
000F0780
000F8F80
0007BE00
0003FC00
0003F800
0001F000
0000E000
00004000
00000000
00000000
00000000
000FFE00
007FFF00
00FFFF00
03FFFF00
07F01F00
0FC01E00
1F801E00
1F003E00
3E003E00
3E003C00
7C003C00
7C007C00
78007C00
F8007800
F8007800
F800F800
F800F800
F800F800
F800F000
F800F000
F801F000
7C03F000
7F0FF000
3FFFF000
3FFEF800
0FF87800
01800000
ENDCHAR
STARTCHAR 01CF
ENCODING 463
SWIDTH 486 0
DWIDTH 27 0
BBX 26 46 4 0
BITMAP
00020100
00070380
00078780
0007DF00
0003FE00
0001FC00
0001F800
0000E000
00004000
00000000
00000000
00000000
00FFFFC0
00FFFFC0
00FFFF80
01FFFF80
0003C000
0007C000
0007C000
0007C000
00078000
000F8000
000F8000
000F8000
000F0000
001F0000
001F0000
001F0000
001E0000
001E0000
003E0000
003E0000
003C0000
003C0000
007C0000
007C0000
00780000
00780000
00F80000
00F80000
00F00000
00F00000
7FFFE000
7FFFC000
FFFFC000
FFFFC000
ENDCHAR
STARTCHAR 01D0
ENCODING 464
SWIDTH 486 0
DWIDTH 27 0
BBX 18 38 8 0
BITMAP
030180
0783C0
07C7C0
03DF00
01FE00
01FC00
00F800
007000
002000
000000
000000
000000
FFF000
FFF000
FFF000
FFF000
01E000
01E000
03E000
03E000
03C000
03C000
07C000
07C000
078000
078000
0F8000
0F8000
0F8000
0F0000
0F0000
0F0000
0F8000
0F8000
0FFF00
07FF00
03FE00
01FE00
ENDCHAR
STARTCHAR 01D1
ENCODING 465
SWIDTH 486 0
DWIDTH 27 0
BBX 26 47 4 -1
BITMAP
00020080
00070380
000787C0
0003CF80
0003FE00
0001FC00
0000F800
00007000
00006000
00000000
00000000
0007F800
001FFC00
007FFF00
00FFFF00
01FC1F80
01F00F80
03E007C0
07C007C0
078007C0
0F8007C0
0F0007C0
1F0007C0
1E0007C0
3E0007C0
3E0007C0
3C0007C0
3C000780
7C000780
7C000780
78000F80
78000F80
78000F00
78001F00
F8001F00
F8001E00
F8003E00
F8007C00
78007C00
7C00F800
7C01F000
7E03F000
3F8FE000
3FFFC000
1FFF0000
07FE0000
01E00000
ENDCHAR
STARTCHAR 01D2
ENCODING 466
SWIDTH 486 0
DWIDTH 27 0
BBX 24 39 4 -1
BITMAP
000C06
001E0F
001E1E
000F7C
0007F8
0007F0
0003E0
0001C0
000100
000000
000000
000000
003FF0
00FFF8
01FFFC
03FFFE
07E03E
0FC01F
1F801F
1F001F
3E001F
3E001F
3C001F
7C001F
7C001F
78001F
78001E
78003E
F8003E
F8007C
F8007C
7800F8
7C01F8
7E03F0
7FFFE0
3FFFC0
1FFF80
0FFE00
00C000
ENDCHAR
STARTCHAR 01D3
ENCODING 467
SWIDTH 486 0
DWIDTH 27 0
BBX 28 47 4 -1
BITMAP
00020100
00070380
00078780
0007DF00
0003FE00
0001FC00
0001F800
0000F000
00004000
00000000
00000000
00000000
03E001F0
03C001F0
03C001E0
07C003E0
07C003E0
078003E0
078003C0
0F8003C0
0F8007C0
0F0007C0
0F000780
1F000780
1F000F80
1E000F80
1E000F00
3E000F00
3E001F00
3C001F00
3C001E00
7C001E00
7C003E00
7C003E00
78003E00
78003C00
F8007C00
F8007C00
78007800
7800F800
7C01F000
7C03F000
3F0FE000
3FFFC000
1FFF8000
0FFF0000
01F00000
ENDCHAR
STARTCHAR 01D4
ENCODING 468
SWIDTH 486 0
DWIDTH 27 0
BBX 24 39 5 -1
BITMAP
003008
00781C
003C7C
001EF8
001FF0
000FE0
000780
000700
000200
000000
000000
000000
1F001F
1F001E
1F003E
1E003E
1E003E
3E003C
3E003C
3C007C
3C007C
7C0078
7C0078
7800F8
7800F8
F800F0
F800F0
F001F0
F001F0
F001F0
F001E0
F001E0
F803E0
F80FE0
FE3FE0
7FFFE0
3FFDF0
1FF0F0
010000
ENDCHAR
STARTCHAR 01D5
ENCODING 469
SWIDTH 486 0
DWIDTH 27 0
BBX 28 47 4 -1
BITMAP
0007FFC0
0007FFC0
0007FF80
00000000
00000000
001E0780
003E0F80
003E0F80
003E0F80
001C0700
00000000
00000000
00000000
03C001F0
03C001E0
07C003E0
07C003E0
078003E0
078003C0
0F8003C0
0F8007C0
0F0007C0
0F000780
1F000780
1F000F80
1E000F80
1E000F00
3E000F00
3E001F00
3C001F00
3C001E00
7C001E00
7C003E00
7C003E00
78003E00
78003C00
F8007C00
F8007C00
78007800
7800F800
7C01F000
7C03F000
3F0FE000
3FFFC000
1FFF8000
0FFF0000
01F00000
ENDCHAR
STARTCHAR 01D6
ENCODING 470
SWIDTH 486 0
DWIDTH 27 0
BBX 24 41 5 -1
BITMAP
003FFE
003FFE
003FFC
000000
000000
000008
00F03C
01F07C
01F07C
01F07C
00E038
000000
000000
000000
1F001F
1F001E
1F003E
1E003E
1E003E
3E003C
3E003C
3C007C
3C007C
7C0078
7C0078
7800F8
7800F8
F800F0
F800F0
F001F0
F001F0
F001F0
F001E0
F001E0
F803E0
F80FE0
FE3FE0
7FFFE0
3FFDF0
1FF0F0
010000
ENDCHAR
STARTCHAR 01D7
ENCODING 471
SWIDTH 486 0
DWIDTH 27 0
BBX 28 47 4 -1
BITMAP
00001000
00003800
00003E00
00007C00
0038F9C0
007CF3E0
00FCE3E0
00FC43E0
007803E0
00000080
00000000
00000000
03E001F0
03C001F0
03C001E0
07C003E0
07C003E0
078003E0
078003C0
0F8003C0
0F8007C0
0F0007C0
0F000780
1F000780
1F000F80
1E000F80
1E000F00
3E000F00
3E001F00
3C001F00
3C001E00
7C001E00
7C003E00
7C003E00
78003E00
78003C00
F8007C00
F8007C00
78007800
7800F800
7C01F000
7C03F000
3F0FE000
3FFFC000
1FFF8000
0FFF0000
01F00000
ENDCHAR
STARTCHAR 01D8
ENCODING 472
SWIDTH 486 0
DWIDTH 27 0
BBX 24 43 5 -1
BITMAP
000020
000070
0000F8
0001F0
0001E0
0003C0
000780
000308
00F03C
01F03E
01F03E
01F03C
00E018
000000
000000
000000
1F001F
1F001E
1F003E
1E003E
1E003E
3E003C
3E003C
3C007C
3C007C
7C0078
7C0078
7800F8
7800F8
F800F0
F800F0
F001F0
F001F0
F001F0
F001E0
F001E0
F803E0
F80FE0
FE3FE0
7FFFE0
3FFDF0
1FF0F0
010000
ENDCHAR
STARTCHAR 01D9
ENCODING 473
SWIDTH 486 0
DWIDTH 27 0
BBX 28 47 4 -1
BITMAP
00010400
0003DE00
0003FE00
0001F800
0038F1C0
007C43E0
00FC03E0
00FC03E0
007803E0
00000080
00000000
00000000
03E001F0
03C001F0
03C001E0
07C003E0
07C003E0
078003E0
078003C0
0F8003C0
0F8007C0
0F0007C0
0F000780
1F000780
1F000F80
1E000F80
1E000F00
3E000F00
3E001F00
3C001F00
3C001E00
7C001E00
7C003E00
7C003E00
78003E00
78003C00
F8007C00
F8007C00
78007800
7800F800
7C01F000
7C03F000
3F0FE000
3FFFC000
1FFF8000
0FFF0000
01F00000
ENDCHAR
STARTCHAR 01DA
ENCODING 474
SWIDTH 486 0
DWIDTH 27 0
BBX 24 42 5 -1
BITMAP
001818
003C38
001EF8
000FF0
0007C0
000380
000108
00F03C
01F03E
01F03E
01F03C
00E018
000000
000000
000000
1F001F
1F001E
1F003E
1E003E
1E003E
3E003C
3E003C
3C007C
3C007C
7C0078
7C0078
7800F8
7800F8
F800F0
F800F0
F001F0
F001F0
F001F0
F001E0
F001E0
F803E0
F80FE0
FE3FE0
7FFFE0
3FFDF0
1FF0F0
010000
ENDCHAR
STARTCHAR 01DB
ENCODING 475
SWIDTH 486 0
DWIDTH 27 0
BBX 28 47 4 -1
BITMAP
00004000
0001C000
0003E000
0001E000
0038E1C0
007CF3E0
00FC73E0
00FC03E0
007803C0
00000080
00000000
00000000
03E001F0
03C001F0
03C001E0
07C003E0
07C003E0
078003E0
078003C0
0F8003C0
0F8007C0
0F0007C0
0F000780
1F000780
1F000F80
1E000F80
1E000F00
3E000F00
3E001F00
3C001F00
3C001E00
7C001E00
7C003E00
7C003E00
78003E00
78003C00
F8007C00
F8007C00
78007800
7800F800
7C01F000
7C03F000
3F0FE000
3FFFC000
1FFF8000
0FFF0000
01F00000
ENDCHAR
STARTCHAR 01DC
ENCODING 476
SWIDTH 486 0
DWIDTH 27 0
BBX 24 43 5 -1
BITMAP
000C00
003E00
001E00
001E00
000F00
000700
000780
000308
00F03C
01F03E
01F07E
01F03C
00E018
000000
000000
000000
1F001F
1F001E
1F003E
1E003E
1E003E
3E003C
3E003C
3C007C
3C007C
7C0078
7C0078
7800F8
7800F8
F800F0
F800F0
F001F0
F001F0
F001F0
F001E0
F001E0
F803E0
F80FE0
FE3FE0
7FFFE0
3FFDF0
1FF0F0
010000
ENDCHAR
STARTCHAR 01DD
ENCODING 477
SWIDTH 486 0
DWIDTH 27 0
BBX 24 27 4 -1
BITMAP
01FFE0
0FFFF8
0FFFFC
0FFFFE
0E007E
00003F
00001F
00000F
00000F
00000F
0001FF
00FFFF
07FFFF
0FFFFF
1FE01F
3F001E
7C003E
7C003E
78007C
F800FC
F801F8
7C03F0
7E0FE0
7FFFC0
3FFF80
1FFE00
03C000
ENDCHAR
STARTCHAR 01DE
ENCODING 478
SWIDTH 486 0
DWIDTH 27 0
BBX 29 46 0 0
BITMAP
00007FF8
00007FF8
0000FFF8
00000000
00000000
0001E078
0003E0F8
0003E0F8
0003E0F8
0001C070
00000000
00000000
00000000
00007E00
00007F00
0000FF00
0000FF00
0001EF00
0003EF00
0003CF00
00078F00
00078F00
000F0F80
001F0F80
001E0780
003C0780
003C0780
00780780
00780780
00F00780
01E00780
01E00780
03C00780
03FFFF80
07FFFFC0
07FFFFC0
0FFFFFC0
0F0007C0
1E0007C0
1E0007C0
3C0007C0
3C0007C0
7C0007C0
780007C0
F80007C0
F00007C0
ENDCHAR
STARTCHAR 01DF
ENCODING 479
SWIDTH 486 0
DWIDTH 27 0
BBX 25 41 4 -1
BITMAP
0007FF80
000FFF80
000FFF80
00000000
00000000
00080200
003C0F00
003E0F80
007E1F80
003C0F00
00380600
00000000
00000000
00000000
000FFE00
007FFF00
00FFFF00
03FFFF00
07F01F00
0FC01E00
1F801E00
1F003E00
3E003E00
3E003C00
7C003C00
7C007C00
78007C00
F8007800
F8007800
F800F800
F800F800
F800F800
F800F000
F800F000
F801F000
7C03F000
7F0FF000
3FFFF000
3FFEF800
0FF87800
01800000
ENDCHAR
STARTCHAR 01E0
ENCODING 480
SWIDTH 486 0
DWIDTH 27 0
BBX 30 46 0 0
BITMAP
00007FFC
00007FF8
00007FF8
00000000
00000000
00000F00
00001F80
00001F80
00001F00
00000E00
00000000
00000000
00000000
00007E00
00007F00
0000FF00
0000FF00
0001EF00
0003EF00
0003CF00
00078F00
00078F00
000F0F80
001F0F80
001E0780
003C0780
003C0780
00780780
00780780
00F00780
01E00780
01E00780
03C00780
03FFFF80
07FFFFC0
07FFFFC0
0FFFFFC0
0F0007C0
1E0007C0
1E0007C0
3C0007C0
3C0007C0
7C0007C0
780007C0
F80007C0
F00007C0
ENDCHAR
STARTCHAR 01E1
ENCODING 481
SWIDTH 486 0
DWIDTH 27 0
BBX 25 41 4 -1
BITMAP
0007FF80
0007FF80
000FFF80
00000000
00000000
00006000
0001F000
0001F000
0001F000
0001F000
0000C000
00000000
00000000
00000000
000FFE00
007FFF00
00FFFF00
03FFFF00
07F01F00
0FC01E00
1F801E00
1F003E00
3E003E00
3E003C00
7C003C00
7C007C00
78007C00
F8007800
F8007800
F800F800
F800F800
F800F800
F800F000
F800F000
F801F000
7C03F000
7F0FF000
3FFFF000
3FFEF800
0FF87800
01800000
ENDCHAR
STARTCHAR 01E2
ENCODING 482
SWIDTH 486 0
DWIDTH 27 0
BBX 34 43 1 0
BITMAP
00000FFFC0
00001FFF80
00001FFF80
00001FFF80
0000000000
0000000000
0000000000
0000000000
0000000000
00003FFF00
00007FFF00
00007FFF00
0000FFFE00
0001EF0000
0001FF0000
0003DF0000
00079E0000
00079E0000
000F1E0000
000F3E0000
001E3C0000
001E3C0000
003C3C0000
003C7FF000
00787FE000
00F87FE000
00F07FE000
01F0F80000
01E0F80000
03C0F00000
03FFF00000
07FFF00000
07FFF00000
0FFFE00000
0F01E00000
1E03E00000
1E03E00000
3C03C00000
3C03C00000
7C07FFC000
7807FF8000
F807FF8000
F007FF8000
ENDCHAR
STARTCHAR 01E3
ENCODING 483
SWIDTH 486 0
DWIDTH 27 0
BBX 27 36 3 -1
BITMAP
001FFF80
001FFF80
001FFF80
00000000
00000000
00000000
00000000
00000000
00000000
07F81F80
0FFC3FC0
0FFE7FE0
0FFEFFE0
083FE1E0
001FC1E0
001FC1E0
000F81E0
000F83E0
000F03C0
007F07C0
03FF1F80
0FFFFF00
1FFFFE00
3F9FF800
7C1FE000
781E0000
F03E0000
F03E0000
F07E0000
F07F0000
F0FF0200
F9EFFE00
FFEFFE00
FFC7FE00
7F03FC00
0C00E000
ENDCHAR
STARTCHAR 01E4
ENCODING 484
SWIDTH 486 0
DWIDTH 27 0
BBX 26 36 4 -1
BITMAP
0003FE00
000FFF80
003FFFC0
007FFF80
00FE0780
01F80100
03E00000
07C00000
07800000
0F800000
1F000000
1F000000
1E000000
3E000000
3C000000
3C000000
7C000000
7C003E00
78003E00
78003C00
78003C00
78007C00
F807FF00
F807FF00
F807FF00
F800F800
7800F800
7C00F000
7C00F000
7E01F000
3F01F000
3FC7F000
1FFFE000
0FFFE000
03FFC000
00780000
ENDCHAR
STARTCHAR 01E5
ENCODING 485
SWIDTH 486 0
DWIDTH 27 0
BBX 28 35 1 -9
BITMAP
0001FFE0
0007FFE0
001FFFE0
003FFFE0
007F03E0
00FC03C0
01F807C0
03F007C0
03E007C0
07C00780
07C00780
0781FFF0
0F81FFF0
0F81FFF0
0F000F00
0F001F00
0F001F00
0F001E00
0F801E00
0F803E00
0FC0FE00
07FFFC00
07FFFC00
03FFFC00
00FE7C00
00007800
00007800
0000F800
0000F000
0001F000
7007E000
7FFFC000
7FFF8000
FFFF0000
1FFC0000
ENDCHAR
STARTCHAR 01E6
ENCODING 486
SWIDTH 486 0
DWIDTH 27 0
BBX 27 47 4 -1
BITMAP
00008040
0001C0E0
0001E1E0
0001F7C0
0000FF80
00007F00
00007E00
00003800
00001000
00000000
00000000
0003FF00
000FFFC0
003FFFE0
007FFFC0
00FE03C0
01F80080
03F00000
07E00000
07C00000
0F800000
0F000000
1F000000
1E000000
3E000000
3C000000
3C000000
7C000000
7C000000
78001F00
78001E00
78001E00
78003E00
F8003E00
F8003C00
F8003C00
F8007C00
78007C00
7C007C00
7C007800
7E00F800
3F00F800
3FC1F800
1FFFF000
0FFFF000
03FFE000
00FC0000
ENDCHAR
STARTCHAR 01E7
ENCODING 487
SWIDTH 486 0
DWIDTH 27 0
BBX 29 47 1 -9
BITMAP
00006010
0000F038
000078F8
00007DF0
00003FE0
00001F80
00000F00
00000E00
00000400
00000000
00000000
00000000
0001FFF0
0007FFF0
001FFFF0
003FFFF0
007F01F0
00FC01E0
01F801E0
03F003E0
03E003E0
07C003C0
07C003C0
078007C0
0F8007C0
0F800780
0F000780
0F000F80
0F000F80
0F000F00
0F800F00
0F801F00
0FC07F00
07FFFE00
07FFFE00
01FFFE00
007E3E00
00003C00
00003C00
00007C00
0000F800
0001F800
7003F000
7FFFE000
7FFFC000
FFFF8000
1FFC0000
ENDCHAR
STARTCHAR 01E8
ENCODING 488
SWIDTH 486 0
DWIDTH 27 0
BBX 29 46 3 0
BITMAP
00020080
00070380
000787C0
0003CF80
0001FF00
0001FC00
0000F800
00007000
00006000
00000000
00000000
00000000
01F001F8
01F003F0
01F007E0
01E00FC0
01E01F80
03E03F00
03E07E00
03C0FC00
03C1F800
07C3F000
07C7E000
078FC000
079F8000
0FBF0000
0FFE0000
0FF80000
0FF80000
1FFC0000
1F7E0000
1F3E0000
1E1F0000
3E0F8000
3E0F8000
3E07C000
3C03E000
3C03E000
7C01F000
7C01F000
7800F800
7800F800
F8007C00
F8007C00
F0007C00
F0003E00
ENDCHAR
STARTCHAR 01E9
ENCODING 489
SWIDTH 486 0
DWIDTH 27 0
BBX 26 46 4 0
BITMAP
00202000
00707000
007DF000
003FE000
001F8000
000F0000
00060000
00000000
00000000
00180000
00F80000
00F00000
00F00000
01F00000
01F00000
01E00000
01E00000
03E00000
03E00000
03C00000
03C007C0
07C01F80
07C03F00
07807E00
0780FC00
0F83F000
0F87E000
0F0FC000
0F1F8000
1F7E0000
1FFC0000
1FF80000
1FF80000
3EFC0000
3E7C0000
3E3E0000
3C1F0000
3C1F8000
7C0F8000
7C07C000
7807E000
7803E000
F801F000
F801F000
F000F800
F000F800
ENDCHAR
STARTCHAR 01EA
ENCODING 490
SWIDTH 486 0
DWIDTH 27 0
BBX 26 44 4 -9
BITMAP
0007F000
001FFC00
007FFE00
00FFFF00
01F81F80
03F00F80
03E00F80
07C007C0
0F8007C0
0F8007C0
1F0007C0
1F0007C0
1E0007C0
3E0007C0
3C0007C0
3C000780
7C000780
7C000780
78000F80
78000F80
78000F00
F8001F00
F8001F00
F8001E00
F8003E00
F8003E00
F8007C00
F8007800
7800F800
7C01F000
7E03E000
3F0FE000
3FFFC000
1FFF0000
0FFE0000
01F80000
01E00000
03C00000
07800000
0F000000
0F000000
0FF00000
0FF00000
07F00000
ENDCHAR
STARTCHAR 01EB
ENCODING 491
SWIDTH 486 0
DWIDTH 27 0
BBX 24 35 4 -9
BITMAP
003FF0
00FFF8
01FFFC
03FFFE
07E03E
0FC01F
1F801F
1F001F
3E001F
3E001F
3C001F
7C001F
7C001F
78001F
78001E
78003E
F8003E
F8007C
F8007C
7800F8
7C01F8
7E03F0
7FFFE0
3FFFC0
1FFF80
0FFE00
01F800
00F000
03E000
03C000
078000
078000
07F800
07F800
03F800
ENDCHAR
STARTCHAR 01EC
ENCODING 492
SWIDTH 486 0
DWIDTH 27 0
BBX 26 52 4 -9
BITMAP
000FFFC0
000FFF80
001FFF80
001FFF80
00000000
00000000
00000000
00000000
0007F000
001FFC00
007FFE00
00FFFF00
01F81F80
03F00F80
03E00F80
07C007C0
0F8007C0
0F8007C0
1F0007C0
1F0007C0
1E0007C0
3E0007C0
3C0007C0
3C000780
7C000780
7C000780
78000F80
78000F80
78000F00
F8001F00
F8001F00
F8001E00
F8003E00
F8003E00
F8007C00
F8007800
7800F800
7C01F000
7E03E000
3F0FE000
3FFFC000
1FFF0000
0FFE0000
01F80000
01E00000
03C00000
07800000
0F000000
0F000000
0FF00000
0FF00000
07F00000
ENDCHAR
STARTCHAR 01ED
ENCODING 493
SWIDTH 486 0
DWIDTH 27 0
BBX 25 44 4 -9
BITMAP
001FFF80
003FFF00
003FFF00
00000000
00000000
00000000
00000000
00000000
00000000
003FF000
00FFF800
01FFFC00
03FFFE00
07E03E00
0FC01F00
1F801F00
1F001F00
3E001F00
3E001F00
3C001F00
7C001F00
7C001F00
78001F00
78001E00
78003E00
F8003E00
F8007C00
F8007C00
7800F800
7C01F800
7E03F000
7FFFE000
3FFFC000
1FFF8000
0FFE0000
01F80000
00F00000
03E00000
03C00000
07800000
07800000
07F80000
07F80000
03F80000
ENDCHAR
STARTCHAR 01EE
ENCODING 494
SWIDTH 486 0
DWIDTH 27 0
BBX 30 47 2 -1
BITMAP
00008040
0001C0E0
0001E1E0
0001F7C0
0000FF80
00007F00
00007E00
00003C00
00001000
00000000
00000000
00000000
007FFFFC
007FFFF8
00FFFFF8
00FFFFF0
000003E0
000007C0
00000F80
00001F00
00003E00
00007C00
0000F800
0001F000
0003E000
000F8000
001F8000
001FF800
001FFC00
0001FE00
00003F00
00001F00
00000F80
00000F80
00000F80
00000F80
00000F80
00000F00
00001F00
00001F00
00003E00
2000FE00
7C0FFC00
7FFFF800
FFFFE000
3FFF8000
03F80000
ENDCHAR
STARTCHAR 01EF
ENCODING 495
SWIDTH 486 0
DWIDTH 27 0
BBX 26 47 2 -9
BITMAP
00030180
000783C0
00078780
0003DF00
0001FE00
0001FC00
0000F800
00007000
00004000
00000000
00000000
00000000
00FFFFC0
01FFFFC0
01FFFF80
01FFFF80
00000F00
00001E00
00003C00
00007800
0000F800
0001E000
0003E000
00078000
000F0000
003E0000
007C0000
007F0000
00FFC000
00FFF000
0003F000
0000F800
0000F800
00007C00
00007C00
00007C00
00007C00
00007C00
00007800
0000F800
0001F800
0003F000
6007E000
7FFFE000
FFFF8000
FFFF0000
1FF80000
ENDCHAR
STARTCHAR 01F0
ENCODING 496
SWIDTH 486 0
DWIDTH 27 0
BBX 29 47 1 -9
BITMAP
00006030
0000F078
0000F0F0
00007BE0
00003FC0
00003F80
00001F00
00000E00
00000800
00000000
00000000
00000000
003FFF80
003FFF80
003FFF80
003FFF80
00000F00
00000F00
00001F00
00001F00
00001F00
00001E00
00003E00
00003E00
00003E00
00003C00
00003C00
00007C00
00007C00
00007800
00007800
0000F800
0000F800
0000F000
0000F000
0001F000
0001F000
0001E000
0001E000
0003E000
0003C000
0007C000
700FC000
7FFF8000
7FFF0000
FFFE0000
1FF80000
ENDCHAR
STARTCHAR 01F1
ENCODING 497
SWIDTH 486 0
DWIDTH 27 0
BBX 33 35 1 0
BITMAP
003E000000
00FF80FF80
00FF81FF80
00FFC1FF80
01E3C1FF00
01E1E00F00
01E1E01E00
01E1E01E00
03C1E03C00
03C1E03C00
03C1E07800
03C1E07800
0781E0F000
0781E0F000
0783E1E000
0783C1E000
0703C3C000
0F03C3C000
0F03C78000
0F07878000
0F078F0000
1E078F0000
1E0F8E0000
1E0F1E0000
1E0F1C0000
3C1E3C0000
3C1E380000
3C3C780000
3C7C780000
7878F00000
78F8F00000
7FF1FFC000
7FE1FFC000
FFC1FFC000
FF01FF8000
ENDCHAR
STARTCHAR 01F2
ENCODING 498
SWIDTH 486 0
DWIDTH 27 0
BBX 32 35 1 0
BITMAP
003C0000
00FF0000
00FF8000
01FFC000
01E7C000
01E3E000
01E1E000
03C1E000
03C1E000
03C1E3FF
03C1E3FF
03C1E3FE
0781E3FE
0783E01E
0783C03C
0783C078
0F03C078
0F03C0F0
0F07C0F0
0F0781E0
1E0781C0
1E0783C0
1E0F0780
1E0F0780
3C1F0F00
3C1E0F00
3C3E1E00
3C3C1E00
787C3C00
78783800
78F07800
7FF07FE0
7FE0FFE0
FF80FFC0
FF00FFC0
ENDCHAR
STARTCHAR 01F3
ENCODING 499
SWIDTH 486 0
DWIDTH 27 0
BBX 32 39 1 0
BITMAP
00007C00
00007800
00007800
00007800
0000F800
0000F000
0000F000
0000F000
0000F000
0001E000
0001E000
0001E000
00FFE3FF
01FFC3FE
03FFC3FE
07C3C7FE
0F83C01E
0F07803C
1F078078
1E078078
3E0780F0
3C0F00E0
7C0F01E0
7C0F03C0
780F03C0
781F0780
F81E0780
F81E0F00
F81E0F00
F03E1E00
F03C1C00
F03C3C00
F03C3800
F83C7800
78787FE0
7FF8FFE0
3FF8FFC0
1FF8FFC0
07800000
ENDCHAR
STARTCHAR 01F4
ENCODING 500
SWIDTH 486 0
DWIDTH 27 0
BBX 27 47 4 -1
BITMAP
00000400
00000E00
00001F00
00003F00
00007E00
0000FC00
0001F000
0003E000
0001C000
00000000
00000000
0003FF00
000FFFC0
003FFFE0
007FFFC0
00FE03C0
01F80080
03F00000
07E00000
07C00000
0F800000
0F000000
1F000000
1E000000
3E000000
3C000000
3C000000
7C000000
7C000000
78001F00
78001E00
78001E00
78003E00
F8003E00
F8003C00
F8003C00
F8007C00
78007C00
7C007C00
7C007800
7E00F800
3F00F800
3FC1F800
1FFFF000
0FFFF000
03FFE000
00FC0000
ENDCHAR
STARTCHAR 01F5
ENCODING 501
SWIDTH 486 0
DWIDTH 27 0
BBX 28 47 1 -9
BITMAP
00000080
000001C0
000003E0
000007E0
00000FC0
00001F00
00003E00
00007C00
00003000
00000000
00000000
00000000
0001FFF0
0007FFF0
001FFFF0
003FFFF0
007F01F0
00FC01E0
01F801E0
03F003E0
03E003E0
07C003C0
07C003C0
078007C0
0F8007C0
0F800780
0F000780
0F000F80
0F000F80
0F000F00
0F800F00
0F801F00
0FC07F00
07FFFE00
07FFFE00
01FFFE00
007E3E00
00003C00
00003C00
00007C00
0000F800
0001F800
7003F000
7FFFE000
7FFFC000
FFFF8000
1FFC0000
ENDCHAR
STARTCHAR 01F6
ENCODING 502
SWIDTH 486 0
DWIDTH 27 0
BBX 30 35 1 -1
BITMAP
00F03C00
00F03C00
01F07C00
01F07C00
01E07800
01E07800
01E07800
03E0F800
03C0F03C
03C0F07C
03C0F07C
07C1F078
0781E078
0781E0F8
07FFE0F8
0FFFE0F0
0FFFE0F0
0FFFC1F0
0F03C1F0
1F07C1E0
1F07C1E0
1E0783E0
1E0783E0
3E0783C0
3E0F83C0
3C0F07C0
3C0F07C0
3C0F0780
7C0F0F80
780F0F80
780F1F00
780FFE00
F80FFE00
F007F800
0001E000
ENDCHAR
STARTCHAR 01F7
ENCODING 503
SWIDTH 486 0
DWIDTH 27 0
BBX 29 44 1 -9
BITMAP
0000FC00
000FFF80
003FFFE0
003FFFF0
007F07F0
007C01F8
007C00F8
007800F8
00780078
00F80078
00F80078
00F00078
00F000F8
01F000F8
01F000F8
01E000F8
01E001F0
03E001F0
03E003F0
03C003E0
03C007E0
07C007C0
07C00F80
07C01F80
07803F00
0F807E00
0F80FC00
0F83F800
0F0FF000
1F1FC000
1FFF8000
1FFE0000
1FF80000
1FE00000
3F000000
3E000000
3C000000
3C000000
7C000000
7C000000
78000000
78000000
F8000000
F8000000
ENDCHAR
STARTCHAR 01F8
ENCODING 504
SWIDTH 486 0
DWIDTH 27 0
BBX 30 46 2 0
BITMAP
00008000
0001C000
0003E000
0003F000
0001F800
0000F800
00007C00
00003E00
00001C00
00000800
00000000
00000000
00F8003C
00FC003C
00FC0078
00FC0078
01FC0078
01FE0078
01FE00F8
01FE00F0
03CF00F0
03CF00F0
03CF01F0
03C701E0
078781E0
078781E0
078783E0
078383C0
0F83C3C0
0F03C3C0
0F03C3C0
0F01C780
1F01C780
1E01E780
1E01E780
1E01EF00
3E00EF00
3C00EF00
3C00FF00
3C00FE00
3C00FE00
78007E00
78007E00
78007E00
78007C00
F8007C00
ENDCHAR
STARTCHAR 01F9
ENCODING 505
SWIDTH 486 0
DWIDTH 27 0
BBX 23 38 4 0
BITMAP
000600
000E00
001F00
000F80
0007C0
0003E0
0001E0
0000F0
0000E0
000040
000000
000000
00FFE0
07FFF8
07FFFC
07FFFE
07807E
0F803E
0F801E
0F801E
0F001E
1F001E
1F001E
1F003E
1E003E
3E003E
3E003C
3E007C
3C007C
3C007C
7C0078
7C0078
7800F8
7800F8
F800F0
F800F0
F001F0
F001F0
ENDCHAR
STARTCHAR 01FA
ENCODING 506
SWIDTH 486 0
DWIDTH 27 0
BBX 27 46 0 0
BITMAP
00000040
000003C0
00000FE0
00003FE0
00001E00
00001000
00000000
00001E00
00007F80
00007380
000061C0
0000E1C0
000061C0
00007180
00007F80
00007F00
0000FF00
0000EF00
0001EF00
0003CF00
0003CF00
00078700
00070780
000F0780
001E0780
001E0780
003C0780
003C0780
00780780
00F00780
00F00780
01E00780
01E007C0
03FFFFC0
03FFFFC0
07FFFFC0
07FFFFC0
0F0003C0
1F0003C0
1E0003C0
3E0003C0
3C0003C0
7C0003C0
780003C0
F80003C0
F00003C0
ENDCHAR
STARTCHAR 01FB
ENCODING 507
SWIDTH 486 0
DWIDTH 27 0
BBX 24 46 4 -1
BITMAP
000002
00000F
00003F
0000FF
0000F8
0000C0
000000
000060
0001F8
0003FC
00030C
00070E
00070E
00030C
0003FC
0001F8
000000
000000
000000
000FFE
007FFF
00FFFF
03FFFF
07F01F
0FC01E
1F801E
1F003E
3E003E
3E003C
7C003C
7C007C
78007C
F80078
F80078
F800F8
F800F8
F800F8
F800F0
F800F0
F801F0
7C03F0
7F0FF0
3FFFF0
3FFEF8
0FF878
018000
ENDCHAR
STARTCHAR 01FC
ENCODING 508
SWIDTH 486 0
DWIDTH 27 0
BBX 32 46 1 0
BITMAP
00000008
0000001C
0000003E
0000007F
000000FC
000001F8
000003F0
000007C0
00000380
00000100
00000000
00000000
00003FFF
00007FFF
00007FFF
0000FFFE
0001EF00
0001FF00
0003DF00
00079E00
00079E00
000F1E00
000F3E00
001E3C00
001E3C00
003C3C00
003C7FF0
00787FE0
00F87FE0
00F07FE0
01F0F800
01E0F800
03C0F000
03FFF000
07FFF000
07FFF000
0FFFE000
0F01E000
1E03E000
1E03E000
3C03C000
3C03C000
7C07FFC0
7807FF80
F807FF80
F007FF80
ENDCHAR
STARTCHAR 01FD
ENCODING 509
SWIDTH 486 0
DWIDTH 27 0
BBX 27 39 3 -1
BITMAP
00000400
00000E00
00001F00
00003F00
00007E00
0000F800
0001F000
0003E000
00018000
00000000
00000000
00000000
07F81F80
0FFC3FC0
0FFE7FE0
0FFEFFE0
083FE1E0
001FC1E0
001FC1E0
000F81E0
000F83E0
000F03C0
007F07C0
03FF1F80
0FFFFF00
1FFFFE00
3F9FF800
7C1FE000
781E0000
F03E0000
F03E0000
F07E0000
F07F0000
F0FF0200
F9EFFE00
FFEFFE00
FFC7FE00
7F03FC00
0C00E000
ENDCHAR
STARTCHAR 01FE
ENCODING 510
SWIDTH 486 0
DWIDTH 27 0
BBX 28 47 3 -2
BITMAP
00000800
00001800
00003C00
00007E00
0000FC00
0003F000
0007E000
0007C000
00070000
00020000
00000040
0003F8F0
001FFFF0
003FFFE0
007FFFC0
00FC0FC0
01F80FC0
03E00FC0
03E01FC0
07C03FC0
07803FE0
0F807BE0
0F00F3E0
1F01F3C0
1E01E3C0
1E03C3C0
3E07C3C0
3C0783C0
3C0F07C0
3C1E07C0
7C3E0780
7C3C0780
7C780F80
7CF00F00
79F00F00
79E01F00
7BC01E00
7FC03E00
7F807C00
7F007C00
3E00F800
3E01F000
3F8FE000
7FFFC000
FFFF8000
F7FE0000
E0700000
ENDCHAR
STARTCHAR 01FF
ENCODING 511
SWIDTH 486 0
DWIDTH 27 0
BBX 29 39 2 -2
BITMAP
00000C00
00001E00
00003E00
00007E00
0000FC00
0001F800
0003F000
0003C000
00018000
00010000
00000020
00000070
000FFCF8
003FFFF0
007FFFE0
00FFFFC0
01F80F80
03F00FC0
07E01FC0
07C03FC0
0F807BC0
0F80F3C0
0F01E3C0
1F03C7C0
1F0787C0
1E0F07C0
1E1E0780
1E3C0F80
3E780F80
3EF01F00
3FE01F00
1FC03E00
1F807E00
1F00FC00
1FFFF800
3FFFF000
7FFFE000
F3FF8000
60300000
ENDCHAR
STARTCHAR 0200
ENCODING 512
SWIDTH 486 0
DWIDTH 27 0
BBX 28 46 0 0
BITMAP
00010100
00078380
000F8F80
0007C7C0
0003C3C0
0001E1E0
0001E0F0
0000F070
00007070
00002020
00000000
00000000
00003F00
00007F00
0000FF00
0000FF00
0001EF00
0001EF00
0003CF00
0007CF80
00078F80
000F0F80
000F0780
001E0780
001E0780
003C0780
007C0780
00780780
00F80780
00F00780
01F00780
01E00780
03C007C0
03FFFFC0
07FFFFC0
07FFFFC0
0FFFFFC0
0F0007C0
1E0007C0
1E0007C0
3C0007C0
3C0007C0
7C0007C0
780007C0
F80007C0
F00007C0
ENDCHAR
STARTCHAR 0201
ENCODING 513
SWIDTH 486 0
DWIDTH 27 0
BBX 24 39 4 -1
BITMAP
002020
00F070
01F1F0
00F8F8
007878
003C3C
003E1E
001E0E
000E0E
000404
000000
000000
000FFE
007FFF
00FFFF
03FFFF
07F01F
0FC01E
1F801E
1F003E
3E003E
3E003C
7C003C
7C007C
78007C
F80078
F80078
F800F8
F800F8
F800F8
F800F0
F800F0
F801F0
7C03F0
7F0FF0
3FFFF0
3FFEF8
0FF878
018000
ENDCHAR
STARTCHAR 0202
ENCODING 514
SWIDTH 486 0
DWIDTH 27 0
BBX 28 45 0 0
BITMAP
00001FC0
00003FE0
00007FF0
0000F0F0
0001E070
0001C070
0001C070
00000000
00000000
00000000
00000000
00003F00
00007F00
0000FF00
0000FF00
0001EF00
0001EF00
0003CF00
0007CF80
00078F80
000F0F80
000F0780
001E0780
001E0780
003C0780
007C0780
00780780
00F80780
00F00780
01F00780
01E00780
03C007C0
03FFFFC0
07FFFFC0
07FFFFC0
0FFFFFC0
0F0007C0
1E0007C0
1E0007C0
3C0007C0
3C0007C0
7C0007C0
780007C0
F80007C0
F00007C0
ENDCHAR
STARTCHAR 0203
ENCODING 515
SWIDTH 486 0
DWIDTH 27 0
BBX 24 38 4 -1
BITMAP
0003F8
0007FC
000FFE
001F1E
001C0E
003C0F
00380E
000000
000000
000000
000000
000FFE
007FFF
00FFFF
03FFFF
07F01F
0FC01E
1F801E
1F003E
3E003E
3E003C
7C003C
7C007C
78007C
F80078
F80078
F800F8
F800F8
F800F8
F800F0
F800F0
F801F0
7C03F0
7F0FF0
3FFFF0
3FFEF8
0FF878
018000
ENDCHAR
STARTCHAR 0204
ENCODING 516
SWIDTH 486 0
DWIDTH 27 0
BBX 27 46 4 0
BITMAP
00080800
003C1C00
007C7C00
003E3E00
001E1E00
000F0F00
000F0780
00078380
00038380
00010100
00000000
00000000
00FFFFE0
00FFFFE0
00FFFFE0
01FFFFE0
01F00000
01E00000
01E00000
03E00000
03E00000
03C00000
03C00000
07C00000
07C00000
07800000
07FFFC00
0FFFFC00
0FFFFC00
0FFFF800
0F000000
1F000000
1F000000
1F000000
1E000000
3E000000
3E000000
3E000000
3C000000
3C000000
7C000000
7C000000
7FFFF800
7FFFF800
FFFFF800
FFFFF800
ENDCHAR
STARTCHAR 0205
ENCODING 517
SWIDTH 486 0
DWIDTH 27 0
BBX 24 39 4 -1
BITMAP
002020
00F070
01F1F0
00F8F8
007878
003C3C
003E1E
001E0E
000E0E
000404
000000
000000
003FF0
00FFFC
01FFFE
07FEFE
0FE01F
0F801F
1F001F
3E001F
3E001F
7C003E
7C007E
7801FC
FFFFF8
FFFFF0
FFFF80
FFF800
F00000
F00000
F80000
F80000
7C0000
7E0010
3FE3F0
3FFFF0
1FFFF0
07FFE0
00FC00
ENDCHAR
STARTCHAR 0206
ENCODING 518
SWIDTH 486 0
DWIDTH 27 0
BBX 27 45 4 0
BITMAP
00007E00
0001FF00
0003FF80
0007C780
00070380
000F03C0
000E0380
00000000
00000000
00000000
00000000
00FFFFE0
00FFFFE0
00FFFFE0
01FFFFE0
01F00000
01E00000
01E00000
03E00000
03E00000
03C00000
03C00000
07C00000
07C00000
07800000
07FFFC00
0FFFFC00
0FFFFC00
0FFFF800
0F000000
1F000000
1F000000
1F000000
1E000000
3E000000
3E000000
3E000000
3C000000
3C000000
7C000000
7C000000
7FFFF800
7FFFF800
FFFFF800
FFFFF800
ENDCHAR
STARTCHAR 0207
ENCODING 519
SWIDTH 486 0
DWIDTH 27 0
BBX 24 38 4 -1
BITMAP
0003F0
000FFC
001FFC
001E1E
003C0E
00380E
00380E
000000
000000
000000
000000
003FF0
00FFFC
01FFFE
07FEFE
0FE01F
0F801F
1F001F
3E001F
3E001F
7C003E
7C007E
7801FC
FFFFF8
FFFFF0
FFFF80
FFF800
F00000
F00000
F80000
F80000
7C0000
7E0010
3FE3F0
3FFFF0
1FFFF0
07FFE0
00FC00
ENDCHAR
STARTCHAR 0208
ENCODING 520
SWIDTH 486 0
DWIDTH 27 0
BBX 26 46 4 0
BITMAP
00101000
00783800
00F8F800
007C7C00
003C3C00
001E1E00
001E0F00
000F0700
00070700
00020200
00000000
00000000
00FFFFC0
00FFFFC0
00FFFF80
01FFFF80
0003C000
0007C000
0007C000
0007C000
00078000
000F8000
000F8000
000F8000
000F0000
001F0000
001F0000
001F0000
001E0000
001E0000
003E0000
003E0000
003C0000
003C0000
007C0000
007C0000
00780000
00780000
00F80000
00F80000
00F00000
00F00000
7FFFE000
7FFFC000
FFFFC000
FFFFC000
ENDCHAR
STARTCHAR 0209
ENCODING 521
SWIDTH 486 0
DWIDTH 27 0
BBX 17 38 8 0
BITMAP
080800
3C1C00
7C3C00
3E3E00
1E1F00
0F0F00
078780
078380
038380
010100
000000
000000
FFF000
FFF000
FFF000
FFF000
01E000
01E000
03E000
03E000
03C000
03C000
07C000
07C000
078000
078000
0F8000
0F8000
0F8000
0F0000
0F0000
0F0000
0F8000
0F8000
0FFF00
07FF00
03FE00
01FE00
ENDCHAR
STARTCHAR 020A
ENCODING 522
SWIDTH 486 0
DWIDTH 27 0
BBX 26 45 4 0
BITMAP
0000FC00
0003FE00
0007FF00
000F8F00
000E0700
001E0780
001C0700
00000000
00000000
00000000
00000000
00FFFFC0
00FFFFC0
00FFFF80
01FFFF80
0003C000
0007C000
0007C000
0007C000
00078000
000F8000
000F8000
000F8000
000F0000
001F0000
001F0000
001F0000
001E0000
001E0000
003E0000
003E0000
003C0000
003C0000
007C0000
007C0000
00780000
00780000
00F80000
00F80000
00F00000
00F00000
7FFFE000
7FFFC000
FFFFC000
FFFFC000
ENDCHAR
STARTCHAR 020B
ENCODING 523
SWIDTH 486 0
DWIDTH 27 0
BBX 17 37 8 0
BITMAP
00FC00
03FF00
07FF00
078780
0F0380
0E0380
0E0380
000000
000000
000000
000000
FFF000
FFF000
FFF000
FFF000
01E000
01E000
03E000
03E000
03C000
03C000
07C000
07C000
078000
078000
0F8000
0F8000
0F8000
0F0000
0F0000
0F0000
0F8000
0F8000
0FFF00
07FF00
03FE00
01FE00
ENDCHAR
STARTCHAR 020C
ENCODING 524
SWIDTH 486 0
DWIDTH 27 0
BBX 26 47 4 -1
BITMAP
00100800
00383800
007C7C00
003C3C00
003E1E00
001E1F00
000F0F00
00078780
00038380
00020000
00000000
0007F800
001FFC00
007FFF00
00FFFF00
01FC1F80
01F00F80
03E007C0
07C007C0
078007C0
0F8007C0
0F0007C0
1F0007C0
1E0007C0
3E0007C0
3E0007C0
3C0007C0
3C000780
7C000780
7C000780
78000F80
78000F80
78000F00
78001F00
F8001F00
F8001E00
F8003E00
F8007C00
78007C00
7C00F800
7C01F000
7E03F000
3F8FE000
3FFFC000
1FFF0000
07FE0000
01E00000
ENDCHAR
STARTCHAR 020D
ENCODING 525
SWIDTH 486 0
DWIDTH 27 0
BBX 24 39 4 -1
BITMAP
006020
00E0E0
01F1F0
00F0F0
00F878
00787C
003C3C
001E1E
000E0E
000800
000000
000000
003FF0
00FFF8
01FFFC
03FFFE
07E03E
0FC01F
1F801F
1F001F
3E001F
3E001F
3C001F
7C001F
7C001F
78001F
78001E
78003E
F8003E
F8007C
F8007C
7800F8
7C01F8
7E03F0
7FFFE0
3FFFC0
1FFF80
0FFE00
00C000
ENDCHAR
STARTCHAR 020E
ENCODING 526
SWIDTH 486 0
DWIDTH 27 0
BBX 26 46 4 -1
BITMAP
0000FC00
0003FF00
0007FF00
00078780
000F0380
000E0380
000E0380
00000000
00000000
00000000
0007F800
001FFC00
007FFF00
00FFFF00
01FC1F80
01F00F80
03E007C0
07C007C0
078007C0
0F8007C0
0F0007C0
1F0007C0
1E0007C0
3E0007C0
3E0007C0
3C0007C0
3C000780
7C000780
7C000780
78000F80
78000F80
78000F00
78001F00
F8001F00
F8001E00
F8003E00
F8007C00
78007C00
7C00F800
7C01F000
7E03F000
3F8FE000
3FFFC000
1FFF0000
07FE0000
01E00000
ENDCHAR
STARTCHAR 020F
ENCODING 527
SWIDTH 486 0
DWIDTH 27 0
BBX 24 38 4 -1
BITMAP
0003F0
000FFC
001FFC
001E1E
003C0E
00380E
00380E
000000
000000
000000
000000
003FF0
00FFF8
01FFFC
03FFFE
07E03E
0FC01F
1F801F
1F001F
3E001F
3E001F
3C001F
7C001F
7C001F
78001F
78001E
78003E
F8003E
F8007C
F8007C
7800F8
7C01F8
7E03F0
7FFFE0
3FFFC0
1FFF80
0FFE00
00C000
ENDCHAR
STARTCHAR 0210
ENCODING 528
SWIDTH 486 0
DWIDTH 27 0
BBX 26 46 3 0
BITMAP
00101000
00783800
00F8F800
007C7C00
003C3C00
001E1E00
001E0F00
000F0700
00070700
00020200
00000000
001FE000
01FFFC00
01FFFF00
01FFFF80
01E03F80
01E00FC0
03E007C0
03E003C0
03C003C0
03C003C0
07C003C0
07C003C0
078007C0
07800780
0F800F80
0F801F00
0F003F00
0F07FE00
1FFFF800
1FFFF000
1FFFC000
1E07C000
3E07C000
3E03E000
3E03E000
3C01E000
3C01F000
7C01F000
7C00F000
7800F800
7800F800
F8007800
F8007800
F0007C00
F0007C00
ENDCHAR
STARTCHAR 0211
ENCODING 529
SWIDTH 486 0
DWIDTH 27 0
BBX 24 38 5 0
BITMAP
004040
01E0E0
03E3E0
01F1F0
00F0F0
007878
007C3C
003C1C
001C1C
000808
000000
000000
003FFF
03FFFF
03FFFE
07FFFE
07C000
078000
078000
0F8000
0F8000
0F0000
0F0000
1F0000
1F0000
1E0000
1E0000
3E0000
3E0000
3E0000
3C0000
7C0000
7C0000
7C0000
780000
780000
F80000
F80000
ENDCHAR
STARTCHAR 0212
ENCODING 530
SWIDTH 486 0
DWIDTH 27 0
BBX 26 45 3 0
BITMAP
00007E00
0001FF00
0003FF80
0007C780
00070380
000F03C0
000E0380
00000000
00000000
00000000
001FE000
01FFFC00
01FFFF00
01FFFF80
01E03F80
01E00FC0
03E007C0
03E003C0
03C003C0
03C003C0
07C003C0
07C003C0
078007C0
07800780
0F800F80
0F801F00
0F003F00
0F07FE00
1FFFF800
1FFFF000
1FFFC000
1E07C000
3E07C000
3E03E000
3E03E000
3C01E000
3C01F000
7C01F000
7C00F000
7800F800
7800F800
F8007800
F8007800
F0007C00
F0007C00
ENDCHAR
STARTCHAR 0213
ENCODING 531
SWIDTH 486 0
DWIDTH 27 0
BBX 24 37 5 0
BITMAP
0007F0
000FF8
001FFC
003E3C
00381C
00781E
00701C
000000
000000
000000
000000
003FFF
03FFFF
03FFFE
07FFFE
07C000
078000
078000
0F8000
0F8000
0F0000
0F0000
1F0000
1F0000
1E0000
1E0000
3E0000
3E0000
3E0000
3C0000
7C0000
7C0000
7C0000
780000
780000
F80000
F80000
ENDCHAR
STARTCHAR 0214
ENCODING 532
SWIDTH 486 0
DWIDTH 27 0
BBX 28 47 4 -1
BITMAP
00101000
00783800
00F8F800
007C7C00
003C3C00
001E1E00
001E0F00
000F0700
00070700
00020200
00000000
00000000
03E001F0
03C001F0
03C001E0
07C003E0
07C003E0
078003E0
078003C0
0F8003C0
0F8007C0
0F0007C0
0F000780
1F000780
1F000F80
1E000F80
1E000F00
3E000F00
3E001F00
3C001F00
3C001E00
7C001E00
7C003E00
7C003E00
78003E00
78003C00
F8007C00
F8007C00
78007800
7800F800
7C01F000
7C03F000
3F0FE000
3FFFC000
1FFF8000
0FFF0000
01F00000
ENDCHAR
STARTCHAR 0215
ENCODING 533
SWIDTH 486 0
DWIDTH 27 0
BBX 24 39 5 -1
BITMAP
00C040
01C1C0
03E3E0
01E1E0
01F0F0
00F0F8
007878
003C3C
001C1C
001000
000000
000000
1F001F
1F001E
1F003E
1E003E
1E003E
3E003C
3E003C
3C007C
3C007C
7C0078
7C0078
7800F8
7800F8
F800F0
F800F0
F001F0
F001F0
F001F0
F001E0
F001E0
F803E0
F80FE0
FE3FE0
7FFFE0
3FFDF0
1FF0F0
010000
ENDCHAR
STARTCHAR 0216
ENCODING 534
SWIDTH 486 0
DWIDTH 27 0
BBX 28 46 4 -1
BITMAP
0000FC00
0003FE00
0007FF00
000F8F00
000E0700
001E0780
001C0700
00000000
00000000
00000000
00000000
03E001F0
03C001F0
03C001E0
07C003E0
07C003E0
078003E0
078003C0
0F8003C0
0F8007C0
0F0007C0
0F000780
1F000780
1F000F80
1E000F80
1E000F00
3E000F00
3E001F00
3C001F00
3C001E00
7C001E00
7C003E00
7C003E00
78003E00
78003C00
F8007C00
F8007C00
78007800
7800F800
7C01F000
7C03F000
3F0FE000
3FFFC000
1FFF8000
0FFF0000
01F00000
ENDCHAR
STARTCHAR 0217
ENCODING 535
SWIDTH 486 0
DWIDTH 27 0
BBX 24 38 5 -1
BITMAP
0007E0
001FF8
003FF8
003C3C
00781C
00701C
00701C
000000
000000
000000
000000
1F001F
1F001E
1F003E
1E003E
1E003E
3E003C
3E003C
3C007C
3C007C
7C0078
7C0078
7800F8
7800F8
F800F0
F800F0
F001F0
F001F0
F001F0
F001E0
F001E0
F803E0
F80FE0
FE3FE0
7FFFE0
3FFDF0
1FF0F0
010000
ENDCHAR
STARTCHAR 0218
ENCODING 536
SWIDTH 486 0
DWIDTH 27 0
BBX 27 44 3 -9
BITMAP
0003FF00
001FFFC0
003FFFE0
007FFFC0
00FC01C0
01F80000
01F00000
01E00000
03E00000
03E00000
03E00000
03E00000
01F00000
01F80000
01FC0000
00FF0000
007FC000
003FE000
000FF000
0003F800
0001FC00
00007C00
00003E00
00003E00
00003E00
00003E00
00003E00
00003E00
00003C00
00007C00
3001FC00
7E0FF800
FFFFF000
FFFFE000
3FFF8000
03F80000
00000000
01E00000
03E00000
03E00000
07C00000
3FC00000
3F800000
7E000000
ENDCHAR
STARTCHAR 0219
ENCODING 537
SWIDTH 486 0
DWIDTH 27 0
BBX 24 35 4 -9
BITMAP
001FFE
007FFF
01FFFE
01FFFE
03E004
03C000
07C000
07C000
07C000
03E000
03F800
01FE00
00FF80
007FC0
001FE0
0007F0
0001F0
0000F8
0000F8
0000F0
0000F0
3001F0
7E0FE0
7FFFE0
FFFFC0
3FFF00
03F000
000000
01E000
03E000
03E000
07C000
3FC000
3F8000
7E0000
ENDCHAR
STARTCHAR 021A
ENCODING 538
SWIDTH 486 0
DWIDTH 27 0
BBX 28 43 5 -9
BITMAP
0FFFFFF0
0FFFFFE0
0FFFFFE0
1FFFFFE0
00078000
000F8000
000F8000
000F0000
000F0000
001F0000
001F0000
001E0000
001E0000
003E0000
003E0000
003E0000
003C0000
007C0000
007C0000
007C0000
00780000
00F80000
00F80000
00F80000
00F00000
01F00000
01F00000
01F00000
01E00000
01E00000
03E00000
03E00000
03C00000
03C00000
00000000
00000000
07800000
07800000
0F800000
0F800000
FF000000
FE000000
FC000000
ENDCHAR
STARTCHAR 021B
ENCODING 539
SWIDTH 486 0
DWIDTH 27 0
BBX 20 43 8 -9
BITMAP
001800
00F000
01F000
01F000
01F000
01E000
03E000
03E000
FFFFF0
FFFFF0
FFFFF0
FFFFF0
07C000
078000
0F8000
0F8000
0F8000
0F0000
0F0000
1F0000
1F0000
1E0000
1E0000
3E0000
3E0000
3C0000
3C0000
3C0000
3C0000
3E0080
3F9F00
3FFF00
1FFF00
0FFF00
00C000
000000
03C000
07C000
07C000
0F8000
7F8000
7F0000
FC0000
ENDCHAR
STARTCHAR 021C
ENCODING 540
SWIDTH 486 0
DWIDTH 27 0
BBX 30 44 -1 -9
BITMAP
0003FF00
003FFFC0
007FFFF0
007FFFF8
007801F8
000000FC
0000007C
0000007C
0000003C
0000003C
0000007C
0000007C
00000078
000000F8
000001F8
000003F0
00000FE0
00003FC0
003FFF80
003FFE00
003FFC00
003FFF00
0000FF80
00001FC0
00000FC0
000007C0
000003E0
000003E0
000003E0
000003E0
000003E0
000003E0
000003C0
000007C0
00000FC0
00000F80
00003F00
00007F00
0001FE00
001FFC00
7FFFF000
FFFFC000
FFFF0000
FFF00000
ENDCHAR
STARTCHAR 021D
ENCODING 541
SWIDTH 486 0
DWIDTH 27 0
BBX 26 35 1 -9
BITMAP
007FFC00
01FFFE00
01FFFF00
01FCFF80
01800F80
000007C0
000007C0
000007C0
000007C0
00000780
00000F80
00001F00
00007F00
0003FE00
007FF800
007FE000
007FF000
00FFFC00
0001FC00
00007E00
00003E00
00001E00
00001E00
00001E00
00003E00
00003E00
00007C00
0000FC00
0001F800
0007F000
007FE000
7FFFC000
7FFF0000
FFF80000
FF800000
ENDCHAR
STARTCHAR 021E
ENCODING 542
SWIDTH 486 0
DWIDTH 27 0
BBX 30 46 2 0
BITMAP
00008040
0001C0E0
0001E1E0
0001F7C0
0000FF80
00007F00
00007E00
00003800
00001000
00000000
00000000
00000000
00F8007C
00F0007C
00F00078
01F00078
01F000F8
01E000F8
01E000F0
03E000F0
03E001F0
03C001F0
03C001E0
07C001E0
07C003E0
078003E0
07FFFFC0
0FFFFFC0
0FFFFFC0
0FFFFFC0
0F0007C0
1F000780
1F000F80
1F000F80
1E000F80
3E000F00
3E001F00
3E001F00
3C001F00
3C001E00
7C001E00
7C003E00
78003E00
78003C00
F8003C00
F8007C00
ENDCHAR
STARTCHAR 021F
ENCODING 543
SWIDTH 486 0
DWIDTH 27 0
BBX 23 46 3 0
BITMAP
002020
007070
007DF0
003FE0
001F80
000F00
000600
000000
000000
001800
00F800
00F000
01F000
01F000
01F000
01E000
01E000
03E000
03E000
03C000
03FFE0
07FFF8
07FFFC
07FFFE
07807E
0F803E
0F801E
0F801E
0F001E
1F001E
1F001E
1F003E
1E003E
3E003E
3E003C
3E007C
3C007C
3C007C
7C0078
7C00F8
7800F8
7800F8
F800F0
F800F0
F001F0
F001F0
ENDCHAR
STARTCHAR 0220
ENCODING 544
SWIDTH 486 0
DWIDTH 27 0
BBX 28 44 2 -9
BITMAP
000FFE00
00FFFF80
00FFFFC0
00FFFFE0
01F007E0
01F003F0
01E001F0
01E001F0
03E001F0
03E001F0
03E001F0
03C001F0
07C001E0
07C001E0
07C003E0
078003E0
0F8003E0
0F8003C0
0F8007C0
0F0007C0
1F0007C0
1F000780
1F000F80
1E000F80
1E000F80
3E000F00
3E001F00
3C001F00
3C001F00
7C001E00
7C001E00
78003E00
78003E00
F8003C00
F8003C00
00007C00
00007C00
00007800
00007800
0000F800
0000F800
0000F000
0000F000
0001F000
ENDCHAR
STARTCHAR 0221
ENCODING 545
SWIDTH 486 0
DWIDTH 27 0
BBX 24 47 3 -8
BITMAP
00003E
00003E
00003C
00007C
00007C
00007C
000078
000078
0000F8
0000F8
0000F0
0000F0
007FF0
01FFF0
03FFE0
07FFE0
0F83E0
1F03E0
3E03E0
3E03C0
7C07C0
7C07C0
7807C0
F80780
F80780
F80F80
F00F80
F00F00
F00F00
F01F00
F01F00
F01E00
F81E00
F83E78
FFFFFE
7FFFFF
3FFFBF
1FFE0F
007C07
007C07
01F80F
03F80F
07FC1F
0FBE3E
1F3FFC
1E1FF8
0C0FE0
ENDCHAR
STARTCHAR 0222
ENCODING 546
SWIDTH 486 0
DWIDTH 27 0
BBX 27 34 3 0
BITMAP
007C03E0
007803E0
00F803E0
00F003E0
00F003E0
01F003C0
01E003C0
01E007C0
01E007C0
03E00780
01E00F80
01E01F00
01F03F00
01FFFE00
00FFFC00
01FFF800
07FFFE00
0FF9FE00
1F803F00
3F001F00
3E000F80
7C000F80
7C000F80
78000F80
F8000F00
F8001F00
F8001F00
F8003E00
7C007E00
7E01FC00
3FFFF800
3FFFF000
0FFFC000
07FF0000
ENDCHAR
STARTCHAR 0223
ENCODING 547
SWIDTH 486 0
DWIDTH 27 0
BBX 27 40 4 -1
BITMAP
007C01E0
007801E0
00F801E0
00F003E0
01F003E0
01F003E0
01E003E0
01E003C0
03E003C0
03E007C0
03E007C0
03E00F80
03E00F80
03E01F00
01F07E00
01FFFE00
00FFF800
01FFF000
07FFF800
0FE0FC00
1F807E00
1F003E00
3E003E00
3C001E00
7C001E00
78001E00
78001E00
F8003E00
F8003E00
F8003E00
F8003C00
F8007C00
F800FC00
7C01F800
7C03F000
7F9FF000
3FFFE000
1FFF8000
0FFE0000
01E00000
ENDCHAR
STARTCHAR 0224
ENCODING 548
SWIDTH 486 0
DWIDTH 27 0
BBX 30 43 2 -9
BITMAP
007FFFFC
00FFFFF8
00FFFFF8
00FFFFF8
000001F0
000003E0
000007C0
00000F80
00001F00
00003E00
00007C00
0000F800
0001F800
0001F000
0003E000
0007C000
000F8000
001F0000
003E0000
007E0000
007C0000
00F80000
01F00000
03E00000
07C00000
07C00000
0F800000
1F000000
3E000000
7E000000
7FFFFE00
7FFFFE00
FFFFFC00
FFFFFC00
00003C00
00007C00
00007800
00007800
0000F800
001FF000
001FF000
003FE000
003F8000
ENDCHAR
STARTCHAR 0225
ENCODING 549
SWIDTH 486 0
DWIDTH 27 0
BBX 25 35 3 -9
BITMAP
01FFFF80
01FFFF80
01FFFF80
03FFFF00
00003E00
00007C00
0000F800
0001F000
0003E000
0007C000
000F8000
001F0000
003E0000
007C0000
00F80000
01F00000
03E00000
07C00000
0FC00000
0F800000
1F000000
3E000000
7FFFF000
7FFFF000
7FFFF000
FFFFF000
0001E000
0001E000
0001E000
0003E000
0003C000
008FC000
00FF8000
00FF0000
01FE0000
ENDCHAR
STARTCHAR 0226
ENCODING 550
SWIDTH 486 0
DWIDTH 27 0
BBX 26 44 0 0
BITMAP
00000F00
00001F80
00001F80
00001F80
00001F00
00000E00
00000000
00000000
00000000
00000000
00003F00
00007F00
0000FF00
0000FF00
0001EF00
0001EF00
0003CF00
0007CF80
00078F80
000F0F80
000F0780
001E0780
001E0780
003C0780
007C0780
00780780
00F80780
00F00780
01F00780
01E00780
03C007C0
03FFFFC0
07FFFFC0
07FFFFC0
0FFFFFC0
0F0007C0
1E0007C0
1E0007C0
3C0007C0
3C0007C0
7C0007C0
780007C0
F80007C0
F00007C0
ENDCHAR
STARTCHAR 0227
ENCODING 551
SWIDTH 486 0
DWIDTH 27 0
BBX 24 37 4 0
BITMAP
0000F0
0001F8
0001F8
0001F8
0001F0
000040
000000
000000
000000
000000
000FFE
007FFF
00FFFF
03FFFF
07F01F
0FC01E
1F801E
1F003E
3E003E
3E003C
7C003C
7C007C
78007C
F80078
F80078
F800F8
F800F8
F800F8
F800F0
F800F0
F801F0
7C03F0
7F0FF0
3FFFF0
3FFEF8
0FF878
018000
ENDCHAR
STARTCHAR 0228
ENCODING 552
SWIDTH 486 0
DWIDTH 27 0
BBX 27 43 3 -9
BITMAP
00FFFFE0
00FFFFE0
00FFFFE0
01FFFFE0
01F00000
01E00000
01E00000
03E00000
03E00000
03C00000
03C00000
07C00000
07C00000
07800000
07FFFC00
0FFFFC00
0FFFFC00
0FFFF800
0F000000
1F000000
1F000000
1F000000
1E000000
1E000000
3E000000
3E000000
3C000000
3C000000
7C000000
7C000000
7FFFF800
7FFFF800
FFFFF800
FFFFF800
00380000
00380000
00780000
00FC0000
003C0000
003C0000
03FC0000
07FC0000
07F00000
ENDCHAR
STARTCHAR 0229
ENCODING 553
SWIDTH 486 0
DWIDTH 27 0
BBX 24 35 4 -9
BITMAP
003FF0
00FFFC
01FFFE
07FEFE
0FE01F
0F801F
1F001F
3E001F
3E001F
7C003E
7C007E
7801FC
FFFFF8
FFFFF0
FFFF80
FFF800
F00000
F00000
F80000
F80000
7C0000
7E0010
3FE3F0
3FFFF0
1FFFF0
07FFC0
007800
007000
00F000
01F800
007800
007800
07F800
0FF800
0FE000
ENDCHAR
STARTCHAR 022A
ENCODING 554
SWIDTH 486 0
DWIDTH 27 0
BBX 26 47 4 -1
BITMAP
0007FFC0
0007FFC0
0007FF80
00000000
00000000
001E0780
003E0F80
003E0F80
003E0F80
001C0700
00000000
00000000
0007F800
001FFC00
003FFF00
00FFFF00
01FC1F80
01F00F80
03E007C0
07C007C0
078007C0
0F8007C0
0F0007C0
1F0007C0
1E0007C0
3E0007C0
3E0007C0
3C0007C0
7C000780
7C000780
7C000F80
78000F80
78000F00
78001F00
F8001F00
F8001E00
F8003E00
F8003C00
78007C00
7800F800
7C01F800
7E03F000
3F8FE000
3FFFC000
1FFF8000
07FE0000
01F00000
ENDCHAR
STARTCHAR 022B
ENCODING 555
SWIDTH 486 0
DWIDTH 27 0
BBX 25 41 4 -1
BITMAP
0007FF80
000FFF80
000FFF80
00000000
00000000
00080200
003E0F80
003E0F80
007E0F80
003C0F00
00380600
00000000
00000000
00000000
003FF000
00FFF800
01FFFC00
03FFFE00
07E03E00
0FC01F00
1F801F00
1F001F00
3E001F00
3E001F00
3C001F00
7C001F00
7C001F00
78001F00
78001E00
78003E00
F8003E00
F8007C00
F8007C00
7800F800
7C01F800
7E03F000
7FFFE000
3FFFC000
1FFF8000
0FFE0000
00C00000
ENDCHAR
STARTCHAR 022C
ENCODING 556
SWIDTH 486 0
DWIDTH 27 0
BBX 26 47 4 -1
BITMAP
0007FFC0
0007FFC0
0007FF80
00000000
00000000
0007C180
001FF380
001FFF80
0038FF00
00101C00
00000000
00000000
0007F800
001FFC00
003FFF00
00FFFF00
01FC1F80
01F00F80
03E007C0
07C007C0
078007C0
0F8007C0
0F0007C0
1F0007C0
1E0007C0
3E0007C0
3E0007C0
3C0007C0
7C000780
7C000780
7C000F80
78000F80
78000F00
78001F00
F8001F00
F8001E00
F8003E00
F8003C00
78007C00
7800F800
7C01F800
7E03F000
3F8FE000
3FFFC000
1FFF8000
07FE0000
01F00000
ENDCHAR
STARTCHAR 022D
ENCODING 557
SWIDTH 486 0
DWIDTH 27 0
BBX 25 41 4 -1
BITMAP
0007FF80
0007FF80
000FFF80
00000000
00000000
00000000
000FC380
001FF780
003FFF00
0078FE00
00101800
00000000
00000000
00000000
003FF000
00FFF800
01FFFC00
03FFFE00
07E03E00
0FC01F00
1F801F00
1F001F00
3E001F00
3E001F00
3C001F00
7C001F00
7C001F00
78001F00
78001E00
78003E00
F8003E00
F8007C00
F8007C00
7800F800
7C01F800
7E03F000
7FFFE000
3FFFC000
1FFF8000
0FFE0000
00C00000
ENDCHAR
STARTCHAR 022E
ENCODING 558
SWIDTH 486 0
DWIDTH 27 0
BBX 26 45 4 -1
BITMAP
00007800
00007C00
0000FC00
0000FC00
00007C00
00003000
00000000
00000000
00000000
0007F800
001FFC00
007FFF00
00FFFF00
01FC1F80
01F00F80
03E007C0
07C007C0
078007C0
0F8007C0
0F0007C0
1F0007C0
1E0007C0
3E0007C0
3E0007C0
3C0007C0
3C000780
7C000780
7C000780
78000F80
78000F80
78000F00
78001F00
F8001F00
F8001E00
F8003E00
F8007C00
78007C00
7C00F800
7C01F000
7E03F000
3F8FE000
3FFFC000
1FFF0000
07FE0000
01E00000
ENDCHAR
STARTCHAR 022F
ENCODING 559
SWIDTH 486 0
DWIDTH 27 0
BBX 24 37 4 0
BITMAP
0001F0
0001F0
0003F0
0003F0
0001E0
000000
000000
000000
000000
000000
003FF0
00FFF8
01FFFC
03FFFE
07E03E
0FC01F
1F801F
1F001F
3E001F
3E001F
3C001F
7C001F
7C001F
78001F
78001E
78003E
F8003E
F8007C
F8007C
7800F8
7C01F8
7E03F0
7FFFE0
3FFFC0
1FFF80
0FFE00
00C000
ENDCHAR
STARTCHAR 0230
ENCODING 560
SWIDTH 486 0
DWIDTH 27 0
BBX 26 47 4 -1
BITMAP
0003FFC0
0003FFC0
0007FFC0
00000000
00000000
00007800
0000F800
0000F800
0000F800
00007000
00000000
00000000
0007F800
001FFC00
003FFF00
00FFFF00
01FC1F80
01F00F80
03E007C0
07C007C0
078007C0
0F8007C0
0F0007C0
1F0007C0
1E0007C0
3E0007C0
3E0007C0
3C0007C0
7C000780
7C000780
7C000F80
78000F80
78000F00
78001F00
F8001F00
F8001E00
F8003E00
F8003C00
78007C00
7800F800
7C01F800
7E03F000
3F8FE000
3FFFC000
1FFF8000
07FE0000
01F00000
ENDCHAR
STARTCHAR 0231
ENCODING 561
SWIDTH 486 0
DWIDTH 27 0
BBX 25 41 4 -1
BITMAP
000FFF80
000FFF80
000FFF80
00000000
00000000
0000C000
0001E000
0003F000
0003F000
0003E000
0001C000
00000000
00000000
00000000
003FF000
00FFF800
01FFFC00
03FFFE00
07E03E00
0FC01F00
1F801F00
1F001F00
3E001F00
3E001F00
3C001F00
7C001F00
7C001F00
78001F00
78001E00
78003E00
F8003E00
F8007C00
F8007C00
7800F800
7C01F800
7E03F000
7FFFE000
3FFFC000
1FFF8000
0FFE0000
00C00000
ENDCHAR
ENDFONT
